<?xml version="1.0" encoding="UTF-8"?>
<svg id="Layer_1" xmlns="http://www.w3.org/2000/svg" xmlns:xlink="http://www.w3.org/1999/xlink" viewBox="0 0 426.58 92.72">
  <defs>
    <style>
      .cls-1 {
        font-size: 62.86px;
        stroke: #231f20;
        stroke-miterlimit: 10;
        stroke-width: .15px;
      }

      .cls-1, .cls-2 {
        font-family: Ebrima-Bold, Ebrima;
        font-weight: 700;
      }

      .cls-3 {
        fill: #fff;
      }

      .cls-4 {
        fill: none;
      }

      .cls-2 {
        font-size: 63.32px;
      }

      .cls-2, .cls-5, .cls-6 {
        fill: #009ee5;
      }

      .cls-7 {
        opacity: 0;
      }

      .cls-5 {
        fill-rule: evenodd;
      }

      .cls-8 {
        clip-path: url(#clippath);
      }
    </style>
    <clipPath id="clippath">
      <rect class="cls-4" x="342.69" y="39.02" width="22.03" height="22.03"/>
    </clipPath>
  </defs>
  <text class="cls-1" transform="translate(53.88 72.33)"><tspan class="cls-7" x="0" y="0">K</tspan><tspan x="40.79" y="0">A</tspan><tspan class="cls-7" x="84.99" y="0">V</tspan><tspan x="126.92" y="0">USHION</tspan></text>
  <path class="cls-6" d="M39.72,22.23c-17.93,6.36-30.9,17.69-32.42,27.35C1.42,55.53-1.28,61.86.59,67.14c2.64,7.44,13.65,10.77,27.48,9.36-5.99-.99-10.48-2.19-12.02-3.78-1.99-2.06-1.24-4.22,1.14-6.32.98-.86,2.23-1.71,3.69-2.55,8.44-4.82,23.58-8.92,30.39-10.13,3.19-.56,6.79.27,10.5,1.93,2.32,1.04,4.68,2.41,7.01,3.96,9.39,6.27,18.19,15.6,21.33,18.87,6.67,6.95,18.89,7.53,20.26,7.66,46.7-1.37,42.39,5.67-.72-8.61-10.72-3.55-8.15-8.41-20.48-21.72-.51-.55-13.91-13.11-14.54-13.47.69-.6,22.01-13.01,23.87-15.07C118.67,4.95,126.59,4.87,137.81.57c10.37-3.98-76.7,14.07-98.09,21.66Z"/>
  <path class="cls-3" d="M22.81,42.05c-3.84,1.24-1.32.47-5.7,1.57-.09.02-.18.04-.27.05.53-1.81,2.07-3.9,4.1-6.2,1.51-1.71,3.28-2.97,5.02-3.68,1.87,2.3-.31,7.33-3.15,8.25Z"/>
  <g class="cls-8">
    <path class="cls-5" d="M353.69,39.02l1,6.23c.15.95.6,1.82,1.28,2.5.68.68,1.55,1.13,2.5,1.28l6.23,1-6.23,1c-.95.15-1.82.6-2.5,1.28s-1.13,1.55-1.28,2.5l-1,6.23-1-6.23c-.15-.95-.6-1.82-1.28-2.5-.68-.68-1.55-1.13-2.5-1.28l-6.23-1,6.23-1c.95-.15,1.82-.6,2.5-1.28s1.13-1.55,1.28-2.5l1-6.23Z"/>
  </g>
  <polygon class="cls-6" points="421.26 19.26 172.61 19.26 172.61 19.27 172.55 19.25 167.53 36.3 176.56 39.55 181.53 25.75 421.26 25.75 421.26 19.26"/>
  <text class="cls-2" transform="translate(138.15 72.5)"><tspan x="0" y="0">V</tspan></text>
</svg>