<svg width="466" height="523" viewBox="0 0 466 523" fill="none" xmlns="http://www.w3.org/2000/svg">
<path d="M462.985 382.856C459.442 374.169 447.635 359.978 439.773 358.915C437.993 358.705 436.21 358.659 434.427 358.788C411.313 333.109 385.645 317.982 356.942 313.106C355.132 312.539 353.296 311.997 351.397 311.512C349.722 310.75 347.949 310.128 346.136 309.486C344.212 308.469 342.286 307.534 340.347 306.664C339.176 305.907 338.007 305.177 336.811 304.461L335.303 303.608C334.868 303.281 334.475 302.935 334.033 302.604C332.976 301.812 331.9 301.08 330.803 300.371C329.407 299.123 328.014 298.01 326.595 297.036C325.31 295.78 323.962 294.599 322.546 293.499C321.383 292.264 320.145 291.103 318.834 290.024C317.638 288.702 316.365 287.465 315.011 286.301C313.966 285.095 312.849 283.956 311.657 282.889C310.542 281.547 309.337 280.283 308.048 279.099C307.033 277.867 305.943 276.709 304.78 275.616C301.114 271.019 296.071 266.784 289.319 265.362C262.717 259.772 235.792 286.776 214.104 312.185C199.829 310.468 185.8 307.572 172.008 303.503C126.843 290.123 108.895 248.686 91.5169 208.615C89.1662 203.201 86.7528 197.605 84.3173 192.234C81.8785 186.869 79.5171 181.022 76.907 174.799C69.4882 156.903 61.406 137.365 50.257 122.366L49.8817 121.971L49.5734 121.32L49.3442 120.764L49.0857 119.993L49.0994 119.776L48.9322 118.966L48.8669 118.55L48.7908 117.908C48.7895 117.695 48.7752 117.476 48.7609 117.256C48.7481 117.042 48.7646 116.851 48.755 116.647C48.7469 116.447 48.7838 116.026 48.7843 115.715C50.8921 87.8106 50.4457 53.0274 35.2907 36.9724C29.1536 30.4714 21.0174 27.5465 11.1233 28.1492C-18.5787 29.9637 -45.6305 59.4487 -65.8806 84.9351C-85.4165 109.515 -100.914 140.136 -114.795 181.238L-114.654 181.303C-114.683 181.351 -114.706 181.401 -114.726 181.457L-114.594 181.514C-114.615 181.569 -114.637 181.62 -114.666 181.667L-114.525 181.732L-114.592 181.884L-114.451 181.949C-114.469 181.998 -114.493 182.044 -114.516 182.09L-114.376 182.155L-114.441 182.295L-114.289 182.362C-114.289 182.362 -114.33 182.457 -114.354 182.503L-114.2 182.575L-114.259 182.702L-114.107 182.769C-114.107 182.769 -114.146 182.852 -114.163 182.901L-113.998 182.975C-114.024 183.016 -114.044 183.055 -114.061 183.104L-113.909 183.171C-113.909 183.171 -113.944 183.253 -113.959 183.29L-113.794 183.364C-113.808 183.407 -113.828 183.446 -113.85 183.48L-113.672 183.561C-113.672 183.561 -113.705 183.631 -113.729 183.677L-113.55 183.757L-113.597 183.853L-113.306 184.084C-101.425 169.438 -88.2868 156.035 -73.8798 143.871C-59.4713 131.712 -44.0501 121.003 -27.6198 111.752C-11.3244 102.592 12.9246 91.9709 33.507 106.239C39.0166 110.169 43.8467 114.804 47.9941 120.151C47.304 128.223 46.4469 135.574 45.7526 141.513C45.5203 143.415 45.3152 145.177 45.1427 146.766C44.4752 152.773 43.6406 159.395 42.7646 166.407C38.7242 198.795 33.1916 243.149 36.5847 282.515C38.4551 303.95 42.8671 322.163 49.656 336.769C57.5254 353.666 68.9973 366.287 83.6716 374.244C85.4292 375.198 87.1816 376.067 88.9532 376.875C92.9232 378.773 97.0439 380.246 101.324 381.287C105.598 382.33 109.937 382.916 114.338 383.056C118.732 383.193 123.099 382.88 127.437 382.107C131.769 381.335 135.976 380.128 140.056 378.486C150.535 374.495 161.188 367.845 172.34 358.336C174.691 356.576 177.077 354.735 179.515 352.73C181.648 351.213 183.826 349.595 186.038 347.879C188.638 346.145 191.188 344.356 193.691 342.505C196.024 341.052 198.41 339.505 200.871 337.836C203.328 336.169 206.024 334.809 208.609 333.271L213.704 330.567C214.566 330.094 215.443 329.6 216.343 329.094L218.112 328.314C219.859 327.514 221.674 326.638 223.554 325.67C225.946 324.733 228.402 323.689 230.921 322.548C233.429 321.705 235.974 320.769 238.59 319.783C241.227 319.086 243.897 318.324 246.616 317.508C249.303 317.007 252.034 316.455 254.787 315.869C257.62 315.59 260.47 315.262 263.339 314.923C281.962 314.788 300.549 313.687 318.897 312.535C319.645 314.812 320.436 317.085 321.372 319.319C329.225 337.554 341.54 336.611 354.182 333.043C355.737 332.745 357.183 332.362 358.692 331.969C360.198 331.584 361.824 331.302 363.407 330.936C364.988 330.565 366.414 330.395 367.898 330.147L368.438 330.043L370.301 329.785L374.021 329.288C376.314 329.097 378.575 328.944 380.789 328.903C382.364 328.927 383.934 328.92 385.413 329.126C388.975 331.031 392.031 334.657 394.351 340.878C394.605 341.53 394.845 342.208 395.091 342.884C397.472 349.402 399.938 356.14 405.778 359.595C411.052 362.704 416.96 362.065 423.204 360.966L424.71 360.771L426.333 360.621L427.618 360.469L427.889 360.466L428.326 360.465L429.404 360.492L431.663 360.694L433.642 361.191L434.853 361.64L435.968 362.147L437.068 362.834L438.015 363.59L438.536 364.081C445.64 372.549 452.159 381.447 458.091 390.77L458.149 390.801L458.212 390.825L458.413 390.805L458.604 390.822L458.749 390.885L458.819 390.918L458.934 390.969L459.074 391.034C460.972 391.306 462.321 390.959 463.059 390.022C464.494 388.578 464.328 386.14 462.985 382.856ZM434.017 358.84L433.531 358.89L431.312 356.901C429.423 355.234 427.481 353.502 425.565 351.713C423.653 349.917 421.463 347.761 419.505 345.821C418.067 344.406 416.572 342.932 415.124 341.52C403.682 330.543 390.211 325.511 375.946 320.177C372.321 318.822 368.575 317.411 364.832 315.906C363.124 315.214 361.377 314.573 359.591 313.961C386.968 319.237 411.667 334.133 434.017 358.84ZM236.226 320.008C236.98 319.645 237.748 319.273 238.517 318.889L240.782 318.505L238.384 319.422C237.686 319.598 236.963 319.782 236.226 320.008ZM222.29 325.746L221.189 326.152L223.177 324.888L225.345 324.262L223.303 325.356L222.29 325.746ZM216.06 328.838L213.998 329.694C214.577 329.294 215.188 328.823 215.756 328.443L217.902 327.681C217.277 328.09 216.69 328.444 216.098 328.783L216.06 328.838ZM208.368 332.991L206.523 333.931L208.289 332.601C208.983 332.323 209.655 332.03 210.33 331.731L209.054 332.568L208.368 332.991ZM330.959 301.092L331.686 301.791L330.385 301.195L329.299 299.981L330.525 300.737C330.714 300.781 330.88 300.86 331.003 301.023L330.959 301.092ZM335.045 303.984C335.53 304.345 336.001 304.716 336.464 305.094L335.102 304.479L333.775 303.193C334.228 303.417 334.642 303.658 335.09 303.921L335.045 303.984ZM340.123 307.062L341.602 308.017L340.003 307.515L338.745 306.447L340.154 307.091L340.123 307.062ZM356.818 313.527C359.495 314.367 362.093 315.271 364.606 316.283C368.342 317.8 372.102 319.202 375.732 320.556C389.953 325.888 403.391 330.902 414.766 341.84C416.234 343.246 417.702 344.706 419.149 346.129C421.1 348.066 423.149 350.086 425.225 352.022C427.135 353.824 429.091 355.551 430.965 357.223L432.928 358.97L432.425 359.019L432.367 358.993C429.412 356.935 426.569 354.733 423.844 352.385C420.789 349.578 417.893 346.617 415.157 343.502L413.331 341.515C404.229 331.709 393.357 328.175 381.892 324.369C374.732 322.273 367.824 319.541 361.172 316.177C359.218 315.12 357.242 314.147 355.219 313.216L356.818 313.527ZM230.589 321.32L227.629 321.923C228.599 321.274 229.565 320.615 230.551 319.946L233.566 319.533C232.63 320.1 231.606 320.733 230.633 321.252L230.589 321.32ZM204.422 335.012C203.6 335.417 202.774 335.83 201.94 336.234C202.731 335.587 203.545 334.911 204.367 334.194C205.26 333.853 206.104 333.484 207.016 333.138C206.204 333.731 205.418 334.306 204.645 334.887L204.422 335.012ZM325.911 297.972L327.337 299.849C326.714 299.57 326.058 299.394 325.414 299.187C325.016 298.51 324.61 297.845 324.157 297.202C324.746 297.426 325.327 297.675 325.911 297.972ZM345.284 310.458L347.21 311.845L344.802 311.668L342.986 310.006C343.684 310.125 344.373 310.252 345.082 310.406L345.284 310.458ZM363.17 330.219L364.369 329.847L364.885 329.838L363.672 330.165L363.17 330.219ZM317.737 297.914C318.485 298.001 319.244 298.106 319.993 298.231C320.388 299.194 320.762 300.141 321.138 301.093C320.355 301.017 319.557 300.962 318.758 300.94L317.737 297.914ZM246.42 314.452L243.027 314.322C263.596 301.996 286.709 288.609 309.637 290.588C310.611 290.681 311.571 290.816 312.531 291.006C312.862 291.955 313.175 292.916 313.469 293.888C313.17 293.857 312.881 293.805 312.58 293.785C289.951 292.308 266.916 303.962 246.661 314.262L246.42 314.452ZM193.705 339.962C194.659 338.985 195.625 338.01 196.584 337.032C197.602 336.691 198.604 336.354 199.602 335.986C198.579 336.935 197.563 337.887 196.616 338.731C195.671 339.093 194.698 339.525 193.715 339.942L193.705 339.962ZM131.289 336.037L129.295 335.13C78.9077 312.183 69.7054 247.777 62.9867 200.606C62.1247 194.457 61.3742 188.054 60.6413 181.864C59.2173 169.46 57.6726 156.603 55.1176 145.395L53.7408 139.293C52.7945 135.151 51.8435 130.717 50.717 126.141C52.3168 131.354 53.7388 136.558 55.0367 141.506L56.1303 145.317C59.2179 156.499 61.2464 169.194 63.1981 181.47C64.1371 187.361 65.1103 193.464 66.1744 199.266C75.1021 247.577 86.1593 307.41 134.628 329.48C135.704 329.966 136.807 330.471 137.941 330.901C158.527 339.255 177.802 338.538 195.426 334.508C194.417 335.693 193.428 336.839 192.447 337.939C173.977 343.616 153.545 345.45 131.298 336.013L131.289 336.037ZM192.071 338.428C191.013 339.629 189.978 340.784 188.984 341.877C169.724 349.282 148.529 352.387 125.748 342.015L124.576 341.482C75.3056 318.042 65.1501 257.222 59.5025 202.045C58.8197 195.44 58.2969 188.633 57.7782 182.065C56.7636 169.035 55.8008 156.727 53.795 145.668C53.3463 143.233 52.8971 140.639 52.439 137.895C51.7951 134.177 51.1126 130.215 50.3457 126.089C51.4859 130.726 52.4964 135.245 53.4238 139.43L54.8622 145.59C57.41 156.74 58.922 169.58 60.3614 182.05C61.0811 188.233 61.8301 194.631 62.7052 200.787C66.545 227.778 71.0925 256.136 80.7886 280.359C91.7212 307.649 107.566 325.742 129.208 335.599C129.876 335.902 130.558 336.212 131.226 336.515C138.37 339.599 145.802 341.621 153.528 342.578C161.248 343.537 168.95 343.394 176.635 342.154C181.868 341.263 187.016 340.011 192.08 338.404L192.071 338.428ZM51.2017 126.502C53.4568 132.585 55.4326 138.717 57.3164 144.557L57.4972 145.15C61.0893 156.304 63.6294 168.751 66.0748 180.774C67.2478 186.471 68.4387 192.364 69.7118 197.893L70.2713 200.299C81.3176 248.316 93.7969 302.51 139.883 323.494C141.457 324.211 143.037 324.932 144.707 325.521C163.893 332.912 182.073 333.069 198.877 330.377C197.834 331.644 196.815 332.849 195.806 334.017C178.103 338.122 158.747 338.93 138.059 330.547C136.939 330.091 135.84 329.618 134.758 329.128C86.4786 307.14 75.4299 247.387 66.5303 199.165C65.4628 193.37 64.4912 187.271 63.5522 181.381C61.5874 169.098 59.5657 156.39 56.4803 145.18L55.3799 141.382C54.149 136.648 52.7561 131.571 51.2017 126.502ZM196.012 334.395C197.099 334.152 198.171 333.88 199.209 333.587C198.207 334.672 197.236 335.719 196.28 336.724C195.229 337.081 194.173 337.419 193.098 337.751C194.063 336.689 195.03 335.56 196.012 334.395ZM196.418 333.913C197.393 332.76 198.392 331.562 199.458 330.348C200.566 330.174 201.69 329.947 202.772 329.776C201.759 330.913 200.741 332.035 199.752 333.11C198.624 333.378 197.526 333.652 196.369 333.895L196.418 333.913ZM203.339 329.652L206.635 328.988C205.626 330.031 204.623 331.029 203.638 332.01C202.558 332.327 201.471 332.636 200.392 332.921C201.346 331.856 202.335 330.765 203.339 329.652ZM203.744 329.187C204.799 328.026 205.847 326.844 206.921 325.639C208.038 325.512 209.156 325.385 210.287 325.231L207.108 328.512C205.989 328.754 204.87 328.98 203.744 329.187ZM203.138 329.306L199.775 329.899C200.823 328.647 201.87 327.373 202.944 326.048C204.066 325.936 205.203 325.835 206.34 325.702L203.138 329.306ZM199.201 330.035C182.398 332.765 164.063 332.635 144.806 325.212C94.9195 305.978 82.0065 249.813 70.5997 200.267L70.047 197.847C68.7655 192.327 67.5746 186.433 66.4147 180.743C63.9596 168.707 61.4132 156.241 57.8149 145.066L57.6341 144.473C55.7972 138.783 53.8443 132.845 51.6879 126.868C54.2848 132.805 56.5873 139.004 58.8339 145.008C62.8944 156.038 65.9411 168.15 68.8781 179.844C70.3433 185.689 71.7366 191.218 73.2387 196.555L74.9946 202.735C87.3663 247.272 101.324 297.502 145.137 317.454C147.188 318.387 149.298 319.264 151.48 320.058C168.684 326.335 185.111 327.605 202.428 326.057C201.347 327.429 200.26 328.731 199.201 330.035ZM119.845 347.833L117.737 346.874C70.0784 323.49 59.8551 264.105 55.8943 203.419C55.4343 196.22 55.1276 188.919 54.8482 181.844C54.3334 168.876 53.8247 156.693 52.3573 145.836C51.9959 143.122 51.6389 140.144 51.2585 137.004C50.8311 133.437 50.3682 129.636 49.8417 125.701C50.6443 129.958 51.3568 134.085 52.0118 137.925C52.47 140.669 52.9207 143.268 53.361 145.712C55.4066 156.758 56.3318 169.051 57.3532 182.067C57.8669 188.637 58.344 195.421 59.0707 202.06C64.7364 257.33 74.9384 318.229 124.358 341.78L125.601 342.345C148.217 352.643 169.267 349.72 188.415 342.481C187.969 342.955 187.506 343.482 187.101 343.877C186.691 344.273 186.155 344.862 185.691 345.313C165.194 354.603 143.333 358.524 119.845 347.833ZM185.006 346.02C184.187 346.851 183.352 347.686 182.461 348.501C161.674 359.28 138.202 364.661 112.325 352.881L110.918 352.242C88.3038 341.446 72.7835 321.379 63.4659 290.906C55.0998 263.514 53.1356 231.997 52.3177 204.772C52.0681 196.836 52.0332 188.87 51.9921 181.164C51.9283 168.502 51.8816 156.555 51.0098 146.03C50.7638 143.214 50.542 140.041 50.297 136.69C50.0536 133.343 49.7928 129.472 49.4728 125.604C50.0083 129.585 50.4735 133.446 50.9037 137.039C51.2842 140.179 51.6411 143.157 52.0088 145.891C53.4699 156.728 53.9718 168.924 54.4906 181.853C54.7815 188.93 55.0139 196.238 55.5482 203.429C57.2651 229.919 60.2492 260.564 69.2387 286.969C79.2669 316.454 95.0902 336.148 117.595 347.186L119.716 348.152C142.988 358.779 164.662 355.081 185.006 346.02ZM187.365 344.127C187.968 343.49 188.588 342.842 189.22 342.141C190.178 341.769 191.145 341.389 192.106 340.989L191.514 341.573C190.834 342.223 190.143 342.872 189.475 343.475C188.535 343.923 187.647 344.382 186.663 344.795C186.871 344.621 187.139 344.345 187.365 344.127ZM189.774 341.541C190.707 340.549 191.717 339.386 192.714 338.199C193.761 337.881 194.798 337.533 195.831 337.187C194.779 338.287 193.756 339.324 192.77 340.305C191.804 340.81 190.787 341.152 189.774 341.541ZM197.077 336.479C198.005 335.488 198.938 334.497 199.886 333.413C200.945 333.134 202.002 332.835 203.106 332.559C202.122 333.529 201.157 334.504 200.246 335.358L197.077 336.479ZM203.833 332.353C204.879 332.051 205.914 331.731 206.949 331.412C205.999 332.262 205.069 333.089 204.146 333.87C203.131 334.271 202.122 334.659 201.081 335.046C202.003 334.139 202.904 333.272 203.833 332.353ZM204.384 331.797C205.35 330.822 206.316 329.847 207.288 328.876L210.529 328.158C209.513 329.11 208.551 329.975 207.593 330.838C206.534 331.149 205.466 331.468 204.397 331.804L204.384 331.797ZM207.756 328.368C208.786 327.319 209.828 326.238 210.889 325.151L214.243 324.654C213.17 325.668 212.13 326.65 211.085 327.617C209.992 327.873 208.895 328.136 207.756 328.368ZM214.544 321.355L217.957 321.129L214.712 324.218L211.306 324.704L214.017 321.865C214.204 321.697 214.383 321.52 214.544 321.355ZM214.881 324.563C215.976 324.399 217.102 324.16 218.182 324.017C217.113 324.943 216.107 325.788 215.077 326.647C214.001 326.925 212.905 327.188 211.874 327.468C212.818 326.511 213.856 325.54 214.881 324.563ZM215.345 324.128L218.551 321.074C219.675 320.988 220.81 320.899 221.917 320.791C220.844 321.718 219.783 322.652 218.71 323.578C217.596 323.754 216.465 323.94 215.345 324.128ZM226.8 317.062C227.976 316.027 229.152 314.991 230.387 313.97L233.883 314.149C232.707 315.026 231.48 316.007 230.308 316.932L226.8 317.062ZM226.232 317.06L222.725 317.087C223.924 315.951 225.167 314.835 226.354 313.659L229.854 313.924L226.232 317.06ZM225.794 317.438L224.391 318.654C223.723 319.241 223.058 319.799 222.399 320.378L218.985 320.648L219.318 320.319C220.321 319.36 221.333 318.409 222.336 317.449L225.794 317.438ZM222.566 320.735C223.675 320.632 224.783 320.529 225.886 320.407C224.816 321.223 223.733 322.017 222.731 322.823L219.444 323.43L222.566 320.735ZM223.039 320.313L224.631 318.934C225.208 318.441 225.79 317.931 226.364 317.428L229.788 317.363C228.656 318.259 227.55 319.169 226.434 319.978L223.039 320.313ZM230.027 317.653L230.418 317.35L233.772 317.252L230.461 319.521L227.15 319.895L230.027 317.653ZM230.902 316.964L234.43 314.223L237.893 314.385L235.294 316.173L234.344 316.832L230.902 316.964ZM311.704 287.695C311.432 287.022 311.11 286.239 310.721 285.383C311.281 285.639 311.893 285.916 312.396 286.146C312.78 286.828 313.167 287.557 313.494 288.268C312.892 288.07 312.305 287.872 311.704 287.695ZM313.727 288.817L314.18 289.772C314.397 290.239 314.569 290.698 314.769 291.16C314.113 290.984 313.496 290.844 312.8 290.697C312.51 289.844 312.161 288.993 311.864 288.153C312.49 288.338 313.136 288.534 313.734 288.804L313.727 288.817ZM311.245 287.555C309.776 287.138 308.281 286.843 306.765 286.676C283.019 284.129 259.379 299.609 238.273 314.134L234.778 313.955C255.275 298.082 279.9 280.458 303.83 283.487C306.037 283.787 308.172 284.361 310.238 285.202C310.622 286.059 310.962 286.864 311.245 287.555ZM235.498 316.508L238.485 314.444L241.891 314.581L240.899 315.177L238.365 316.737L235.002 316.876C235.194 316.707 235.362 316.616 235.498 316.508ZM238.889 314.148C259.845 299.736 283.269 284.526 306.729 287.031C308.325 287.228 309.891 287.555 311.431 288.01C311.762 288.872 312.071 289.714 312.38 290.595C311.473 290.437 310.583 290.313 309.709 290.243C286.483 288.238 263.071 301.872 242.346 314.307L238.889 314.148ZM312.964 291.115C313.627 291.245 314.259 291.38 314.944 291.58C315.323 292.454 315.678 293.325 316.017 294.229C315.307 294.108 314.587 294.006 313.871 293.931C313.582 292.979 313.274 292.05 312.956 291.123L312.964 291.115ZM315.408 291.718C316.055 291.902 316.647 292.098 317.334 292.357C317.734 293.16 318.12 293.956 318.488 294.763C317.814 294.598 317.13 294.452 316.447 294.312C316.112 293.456 315.771 292.559 315.4 291.726L315.408 291.718ZM316.115 294.629C316.476 295.586 316.825 296.524 317.153 297.48C316.581 297.431 316.015 297.368 315.429 297.345L314.841 297.333C314.551 296.322 314.249 295.308 313.945 294.307C314.715 294.414 315.443 294.524 316.115 294.629ZM316.545 294.712C317.241 294.86 317.937 295.007 318.642 295.2C319.024 296.068 319.397 296.961 319.773 297.809C319.034 297.698 318.294 297.586 317.566 297.509C317.282 296.605 316.932 295.666 316.59 294.731L316.545 294.712ZM319.095 295.32C319.76 295.509 320.419 295.712 321.093 295.948L322.357 298.389C321.65 298.224 320.943 298.075 320.237 297.947C319.898 297.044 319.523 296.195 319.145 295.342L319.095 295.32ZM320.381 298.284C321.098 298.414 321.812 298.582 322.539 298.758C322.99 299.637 323.389 300.56 323.831 301.393C323.067 301.273 322.288 301.174 321.5 301.099C321.188 300.176 320.807 299.242 320.425 298.303L320.381 298.284ZM383.049 327.598C385.593 328.049 388.117 328.49 390.535 329.182C388.787 328.765 386.987 328.457 385.185 328.16L384.942 328.046C384.496 327.842 384.019 327.768 383.547 327.654L383.049 327.598ZM460.267 389.966C460.569 389.483 460.716 388.962 460.715 388.4C460.94 382.221 448.645 365.191 440.464 362.089C439.108 361.592 437.726 361.208 436.307 360.933C437.615 361.117 438.902 361.406 440.16 361.797C448.478 364.468 461.44 382.178 460.923 388.368C460.943 388.989 460.736 389.529 460.318 389.988L460.267 389.966ZM338.287 311.783C339.766 313.747 341.287 315.753 342.874 317.766C349.761 326.444 357.78 328.527 366.083 328.943L364.206 329.5C355.301 329.688 346.647 327.843 339.586 317.811C338.186 315.756 336.871 313.74 335.576 311.739L338.287 311.783ZM367.248 328.965L367.947 328.985C367.405 329.117 366.864 329.255 366.339 329.409L365.602 329.444L367.248 328.965ZM368.533 328.626C369.237 328.449 369.928 328.27 370.602 328.156L371.371 328.204L369.361 328.705L368.533 328.626ZM372.927 328.294L373.494 328.324C372.944 328.414 372.372 328.523 371.811 328.634L371.175 328.642L372.927 328.294ZM374.746 328.001C375.618 327.891 376.481 327.789 377.332 327.767L377.712 327.795C376.946 327.861 376.221 327.969 375.393 328.043L374.746 328.001ZM406.216 341.387L406.924 342.529C409.751 347.111 412.67 351.85 417.087 355.136C419.943 357.153 423.066 358.58 426.465 359.406C422.554 358.932 418.958 357.616 415.669 355.455C411.117 352.191 408.275 347.176 405.524 342.347L404.822 341.12C402.748 337.213 399.82 334.115 396.04 331.814C398.17 332.876 400.109 334.216 401.846 335.837C403.591 337.462 405.068 339.296 406.279 341.345L406.216 341.387ZM404.514 341.305L405.214 342.526C407.971 347.408 410.836 352.459 415.468 355.77C418.927 358.04 422.709 359.407 426.821 359.862L426.573 359.907C422.154 359.483 417.934 358.805 414.051 356.089C409.283 352.8 406.512 347.507 403.825 342.378L403.145 341.047C401.188 337.01 398.299 333.807 394.483 331.446C396.633 332.518 398.571 333.891 400.293 335.566C402.015 337.242 403.441 339.141 404.576 341.258L404.514 341.305ZM428.47 359.568C424.422 358.76 420.705 357.182 417.306 354.843C412.956 351.596 410.048 346.893 407.239 342.332L406.531 341.19C404.211 337.229 401.047 334.128 397.04 331.888C401.581 334.054 405.227 337.232 407.993 341.429L408.731 342.546C411.611 346.811 414.591 351.241 418.773 354.475C421.815 356.702 425.13 358.373 428.73 359.492L428.47 359.568ZM402.869 341.177L403.569 342.502C406.265 347.677 409.059 353.006 413.901 356.36C417.107 358.432 420.615 359.639 424.414 359.985C420.194 359.777 416.213 359.079 412.482 356.675C407.524 353.369 404.819 347.782 402.207 342.39L401.462 340.921C400.571 338.886 399.408 337.024 397.966 335.337C396.527 333.643 394.872 332.198 393.005 330.999C396.763 332.81 400.1 335.927 402.869 341.177ZM429.527 359.389C425.739 358.242 422.237 356.515 419.03 354.197C414.897 350.998 411.936 346.594 409.072 342.346L408.333 341.246C405.583 337.011 401.938 333.783 397.4 331.573C402.397 333.786 406.509 337.107 409.732 341.527L410.611 342.708C413.417 346.844 416.698 350.563 420.454 353.865C423.353 356.104 426.492 357.929 429.874 359.345L429.527 359.389ZM377.367 327.341L376.837 327.289C377.444 327.257 378.052 327.263 378.662 327.295C378.213 327.288 377.77 327.302 377.329 327.326L377.367 327.341ZM375.532 327.514C374.684 327.611 373.85 327.737 372.982 327.895L372.146 327.841C373.075 327.669 373.987 327.53 374.889 327.432L375.532 327.514ZM370.718 327.743C362.387 327.118 354.091 325.231 346.88 317.239L344.068 314.093L342.1 311.895L344.715 312.05C346.579 313.779 348.423 315.515 350.25 317.261C357.457 324.179 365.454 326.193 373.428 327.263C372.472 327.367 371.583 327.526 370.686 327.726L370.718 327.743ZM343.763 314.32L346.574 317.482C353.553 325.204 361.49 327.285 369.508 328.009C368.777 328.184 368.052 328.379 367.327 328.574C358.785 328.321 350.347 326.501 343.255 317.499C341.726 315.572 340.266 313.65 338.795 311.749C339.694 311.761 340.586 311.77 341.469 311.815L343.763 314.32ZM338.587 311.399L338.437 311.2L336.791 309.037C337.624 309.135 338.447 309.254 339.279 309.38C339.914 310.065 340.563 310.756 341.165 311.457C340.293 311.409 339.422 311.399 338.537 311.415L338.587 311.399ZM338.117 311.383L335.368 311.389L333.963 309.194L333.665 308.731L336.231 308.994L338.117 311.383ZM334.98 311.369L332.221 311.401C331.683 310.434 331.136 309.493 330.639 308.502L333.252 308.669L333.696 309.371L334.98 311.369ZM333.469 308.317L331.883 305.84C332.653 305.98 333.428 306.136 334.225 306.311L336.038 308.553L333.469 308.317ZM333.002 308.289L330.432 308.12L330.04 307.55L328.865 305.375C329.669 305.482 330.472 305.607 331.282 305.751C331.9 306.572 332.422 307.418 332.964 308.274L333.002 308.289ZM328.743 304.933L327.353 302.421C328.111 302.592 328.855 302.79 329.593 303L331.062 305.312C330.259 305.171 329.467 305.049 328.689 304.955L328.743 304.933ZM328.297 304.887C327.465 304.777 326.651 304.705 325.848 304.635L324.56 301.874C325.342 301.999 326.111 302.151 326.859 302.325L328.297 304.887ZM324.315 301.476C323.907 300.61 323.516 299.696 323.064 298.883C323.763 299.056 324.454 299.276 325.162 299.495C325.644 300.299 326.116 301.107 326.581 301.91C325.833 301.752 325.081 301.601 324.315 301.476ZM324.066 301.811C324.515 302.756 324.974 303.643 325.372 304.632C324.533 304.568 323.702 304.529 322.879 304.515L321.715 301.506C322.511 301.589 323.314 301.659 324.066 301.811ZM325.537 305.017L326.116 306.287L326.883 308.05C325.989 308.053 325.101 308.059 324.204 308.089L322.982 304.93C323.857 304.917 324.702 304.947 325.537 305.017ZM326.447 306.123L325.952 305.034C326.769 305.099 327.595 305.189 328.427 305.283L329.736 307.694L329.94 308.083C329.056 308.033 328.172 308.016 327.317 308.006L326.447 306.123ZM330.139 308.457L331.744 311.392C330.809 311.424 329.884 311.469 328.938 311.532C328.434 310.483 327.948 309.441 327.526 308.41L330.139 308.457ZM331.932 311.748C333.128 313.905 334.363 316.078 335.714 318.208C342.536 329.042 351.074 331.076 360.06 330.71L358.869 331.089C349.044 332.189 339.55 330.783 332.46 318.243C331.253 316.138 330.156 313.982 329.137 311.835C330.093 311.818 331.027 311.787 331.958 311.762L331.932 311.748ZM336.029 318.011C334.697 315.995 333.512 313.84 332.362 311.744C333.305 311.721 334.227 311.72 335.192 311.734C336.546 313.765 337.897 315.896 339.35 317.983C346.233 327.728 354.496 329.805 363.045 329.837L361.491 330.331C352.168 330.924 343.126 329.271 336.05 318.027L336.029 318.011ZM368.315 329.323L369.526 329.024L369.95 329.033L368.726 329.292L368.315 329.323ZM374.313 328.585C374.708 328.521 375.104 328.462 375.505 328.418L375.596 328.465L374.403 328.628L374.313 328.585ZM401.137 341.137L401.882 342.606C404.522 348.055 407.251 353.683 412.286 357.042C415.425 359.021 418.846 360.108 422.547 360.299C418.356 360.496 414.453 359.523 410.846 357.375C405.697 354.052 403.069 348.173 400.507 342.52L399.802 340.956C397.484 335.854 394.664 332.646 391.477 330.688C395.138 332.365 398.48 335.601 401.167 341.095L401.137 341.137ZM437.007 361.788C438.192 362.137 439.337 362.585 440.447 363.126C447.927 366.83 459.632 382.26 459.737 388.522C459.765 389.01 459.66 389.474 459.432 389.912C459.594 389.282 459.618 388.647 459.504 388.006C458.549 381.629 448.325 367.349 440.751 363.418C439.564 362.819 438.342 362.302 437.087 361.867L437.007 361.788ZM460.138 388.478C460.036 382.123 448.193 366.496 440.646 362.752C439.986 362.408 439.318 362.105 438.626 361.831C439.214 362.001 439.801 362.182 440.378 362.405C448.513 365.483 460.625 382.26 460.381 388.347C460.385 388.897 460.231 389.399 459.914 389.848C460.08 389.403 460.155 388.948 460.138 388.478ZM460.728 390.078C461.117 389.595 461.326 389.044 461.355 388.423C461.614 385.372 458.791 379.516 454.19 373.488C450.465 368.62 444.863 362.901 440.316 361.513C438.881 361.063 437.417 360.748 435.928 360.56C437.338 360.669 438.732 360.902 440.107 361.262C448.735 363.563 462.366 381.98 461.677 388.458C461.641 389.141 461.349 389.691 460.81 390.112L460.728 390.078ZM435.396 360.449L435.21 360.36L435.408 360.364L435.396 360.449ZM430.454 359.212C426.918 357.757 423.638 355.867 420.603 353.539C416.875 350.256 413.616 346.557 410.826 342.439L409.947 341.274C401.951 330.558 391.681 328.713 380.804 326.813C371.79 325.228 362.468 323.588 353.976 316.664C352.055 315.1 350.23 313.67 348.441 312.321L350.848 312.564C352.971 313.829 355.125 315.194 357.364 316.707C365.365 322.104 373.77 324.18 381.926 326.248C392.803 328.983 403.085 331.544 411.352 341.575L412.465 342.945C415.32 346.645 418.483 350.056 421.952 353.192C424.717 355.441 427.664 357.419 430.794 359.127L430.454 359.212ZM353.8 316.954C361.838 323.442 370.521 325.343 379.001 326.861C377.592 326.79 376.188 326.838 374.788 327.005C366.398 326.016 357.973 324.17 350.417 316.925C348.7 315.264 346.962 313.643 345.221 312.028L347.759 312.235C349.727 313.686 351.706 315.275 353.8 316.954ZM344.212 311.597L341.683 311.436L339.851 309.429C340.659 309.552 341.464 309.681 342.284 309.839L344.212 311.597ZM339.437 308.997L337.754 307.168C338.447 307.359 339.152 307.553 339.855 307.774C340.492 308.306 341.115 308.83 341.728 309.375L339.437 308.997ZM338.855 308.918L336.452 308.603L334.772 306.417L337.05 306.979L338.855 308.918ZM334.403 305.955L332.892 304.049L334.911 304.774L336.545 306.466C335.829 306.288 335.11 306.12 334.396 305.968L334.403 305.955ZM333.838 305.826C333.077 305.662 332.31 305.515 331.565 305.383L330.103 303.162C330.825 303.377 331.535 303.586 332.231 303.82L333.838 305.826ZM329.767 302.684C329.298 301.974 328.816 301.29 328.331 300.618C328.941 300.89 329.56 301.176 330.196 301.462L331.783 303.35C331.12 303.099 330.452 302.883 329.76 302.697L329.767 302.684ZM329.224 302.538C328.504 302.349 327.799 302.155 327.052 301.986C326.616 301.206 326.154 300.429 325.693 299.64C326.369 299.864 327.044 300.116 327.716 300.38C328.251 301.074 328.727 301.826 329.222 302.549L329.224 302.538ZM324.887 299.02C324.203 298.808 323.525 298.612 322.851 298.447C322.467 297.678 322.127 296.928 321.68 296.146C322.278 296.416 322.891 296.595 323.544 296.865C323.991 297.592 324.444 298.307 324.878 299.028L324.887 299.02ZM321.397 295.645C321.02 294.95 320.619 294.246 320.245 293.577C320.819 293.839 321.418 294.115 321.957 294.475L322.592 295.384L323.176 296.303C322.541 296.055 321.988 295.874 321.39 295.658L321.397 295.645ZM319.797 293.505C320.171 294.141 320.512 294.793 320.882 295.413C320.282 295.138 319.637 295.03 318.989 294.845C318.618 294.045 318.285 293.281 317.846 292.475C318.444 292.746 319.018 293.007 319.686 293.311C319.711 293.39 319.745 293.462 319.788 293.53L319.797 293.505ZM317.631 292.051L317.343 291.465L316.572 290.053C317.101 290.296 317.624 290.536 318.136 290.877C318.576 291.53 318.965 292.162 319.343 292.758C318.763 292.509 318.189 292.247 317.596 292.062L317.631 292.051ZM317.023 291.647L317.141 291.883C316.504 291.663 315.92 291.453 315.243 291.262C315.019 290.704 314.802 290.155 314.576 289.626L314.281 288.998C314.854 289.26 315.452 289.531 316.013 289.786C316.341 290.431 316.689 291.069 316.973 291.695L317.023 291.647ZM314.015 288.465C313.691 287.781 313.351 287.118 313.003 286.462C313.539 286.709 314.028 287.03 314.532 287.331C314.933 287.964 315.368 288.602 315.669 289.179C315.086 288.936 314.571 288.705 313.98 288.476L314.015 288.465ZM312.691 285.867C312.37 285.297 312.048 284.726 311.707 284.178C312.132 284.454 312.551 284.743 312.956 285.042C313.352 285.572 313.705 286.089 314.063 286.621L312.691 285.867ZM312.117 285.605C311.576 285.36 311.053 285.121 310.525 284.883C310.23 284.222 309.893 283.531 309.512 282.821C310.035 283.06 310.51 283.392 310.992 283.693C311.353 284.339 311.718 284.961 312.091 285.608L312.117 285.605ZM310.033 284.655C308.05 283.886 306.007 283.36 303.9 283.083C279.713 280.02 254.879 297.9 234.255 313.89L230.722 313.696C251.613 295.776 276.507 276.381 300.916 279.909C303.733 280.345 306.401 281.227 308.927 282.54C309.298 283.287 309.641 283.998 309.985 284.692L310.033 284.655ZM300.983 279.517C276.3 275.933 251.219 295.583 230.263 313.643L226.723 313.374C247.983 293.346 273.144 272.262 298.073 276.337C301.508 276.928 304.685 278.179 307.597 280.098C307.973 280.722 308.33 281.336 308.656 281.992C306.213 280.767 303.643 279.953 300.935 279.554L300.983 279.517ZM298.032 275.995C272.829 271.903 247.479 293.27 226.135 313.362L222.579 313.06C231.751 303.698 241.72 294.14 252.194 286.575C268.215 275.012 282.22 270.535 295.058 272.802C299.127 273.554 302.783 275.217 306.023 277.797C306.394 278.319 306.744 278.859 307.084 279.385C304.289 277.665 301.269 276.534 298.032 275.995ZM225.847 313.628C224.606 314.787 223.387 315.945 222.187 317.097C221.021 317.104 219.85 317.095 218.671 317.078C219.874 315.832 221.083 314.573 222.317 313.323L225.847 313.628ZM221.812 317.45L219.067 320.06L218.391 320.703C217.229 320.795 216.083 320.866 214.932 320.938C216.053 319.778 217.168 318.603 218.317 317.413C219.488 317.454 220.646 317.456 221.805 317.463L221.812 317.45ZM214.38 320.97C213.225 321.049 212.07 321.106 210.899 321.152C212.023 319.898 213.162 318.606 214.326 317.324C215.501 317.364 216.664 317.381 217.817 317.401C216.651 318.624 215.513 319.817 214.373 320.983L214.38 320.97ZM213.994 321.375C213.96 321.457 213.856 321.528 213.781 321.6C212.739 322.665 211.719 323.727 210.716 324.791C209.57 324.949 208.433 325.082 207.295 325.216C207.801 324.636 208.308 324.079 208.814 323.499C209.315 322.921 209.968 322.203 210.581 321.476C211.673 321.564 212.848 321.446 213.992 321.387L213.994 321.375ZM208.538 323.264C207.935 323.934 207.334 324.609 206.746 325.274C205.597 325.405 204.454 325.519 203.305 325.618L203.623 325.239L206.655 321.683L210.114 321.573C209.53 322.144 209.031 322.711 208.537 323.275L208.538 323.264ZM203.324 325.017C203.147 325.253 202.967 325.462 202.777 325.691C185.364 327.297 168.798 326.092 151.619 319.752C102.95 301.981 88.2911 249.225 75.3631 202.674L73.6129 196.443C72.1177 191.093 70.7356 185.582 69.2654 179.739C66.3221 168.025 63.2754 155.912 59.2171 144.855C57.0524 138.973 54.816 132.95 52.2794 127.239C55.2798 133.088 57.871 139.076 60.2426 144.8C64.7188 155.606 68.2361 167.271 71.6249 178.56C73.3819 184.396 75.0439 189.912 76.7978 195.164C77.8671 198.48 78.9623 201.723 80.058 205.037C87.3931 227.479 94.9915 250.691 106.754 270.476C118.375 290.016 132.649 303.493 150.218 311.49C152.819 312.676 155.502 313.744 158.264 314.7C173.813 319.898 189.779 322.235 206.162 321.712L203.324 325.017ZM49.8937 136.674C50.1319 140.039 50.3536 143.212 50.6046 146.027C51.4734 156.541 51.5707 168.51 51.5922 181.142C51.6299 188.855 51.6973 196.75 51.9159 204.761C52.7317 232.015 54.7103 263.559 63.0873 290.987C72.5129 321.595 88.1166 341.702 110.815 352.591L112.273 353.253C116.032 355.036 119.921 356.467 123.943 357.557C127.96 358.647 132.041 359.369 136.191 359.736C140.334 360.099 144.482 360.095 148.628 359.721C152.774 359.346 156.856 358.61 160.868 357.513C168.042 355.586 174.924 352.905 181.509 349.466C180.676 350.274 179.837 351.094 178.984 351.908C157.239 364.8 132.326 371.569 104.207 357.659C55.1142 333.394 48.6631 267.458 48.826 206.169C48.852 197.251 49.102 188.438 49.3405 179.901C49.6978 167.745 50.0188 156.256 49.6364 146.194C49.4871 143.408 49.495 140.288 49.3904 136.914C49.3102 133.271 49.2182 129.364 49.0236 125.287C49.3924 129.292 49.6478 133.181 49.8937 136.674ZM182.616 348.906C183.365 348.528 184.098 348.167 184.867 347.712C184.112 348.386 183.344 349.07 182.539 349.721L180.343 351.159C181.124 350.379 181.863 349.655 182.616 348.906ZM183.594 347.937C184.364 347.172 185.133 346.389 185.898 345.609C186.773 345.214 187.674 344.816 188.507 344.39C187.735 345.113 186.945 345.831 186.116 346.528C185.287 347.226 184.499 347.533 183.581 347.964L183.594 347.937ZM189.635 343.828C190.396 343.469 191.155 343.105 191.918 342.702C191.211 343.301 190.484 343.889 189.738 344.539L187.53 345.816C188.229 345.155 188.933 344.513 189.627 343.853L189.635 343.828ZM190.571 342.967L191.762 341.839C192.18 341.451 192.595 341.032 193.027 340.617L195.739 339.449C194.901 340.171 194.055 340.9 193.184 341.638C192.301 342.112 191.435 342.553 190.556 342.988L190.571 342.967ZM196.156 339.58C196.385 339.388 196.618 339.156 196.854 338.951L199.227 337.867C198.48 338.462 197.721 339.033 196.99 339.678C196.259 340.323 195.46 340.525 194.677 340.934L196.156 339.58ZM197.781 338.13C198.673 337.32 199.587 336.46 200.527 335.575C201.464 335.221 202.427 334.88 203.352 334.524C202.402 335.341 201.46 336.112 200.55 336.829C199.616 337.297 198.697 337.728 197.771 338.15L197.781 338.13ZM205.216 333.419C206.056 332.686 206.917 331.918 207.801 331.133L210.751 330.184C209.861 330.895 208.979 331.582 208.114 332.236L205.216 333.419ZM208.454 330.535C209.377 329.688 210.32 328.83 211.278 327.934C212.338 327.693 213.371 327.472 214.455 327.17C213.499 327.967 212.55 328.751 211.611 329.499C210.55 329.876 209.502 330.222 208.44 330.561L208.454 330.535ZM215.258 326.961L218.279 326.17C217.365 326.84 216.454 327.503 215.572 328.135L212.644 329.224C213.462 328.475 214.355 327.736 215.247 326.981L215.258 326.961ZM215.92 326.41C216.906 325.587 217.899 324.734 218.896 323.875L222.085 323.304C221.083 324.078 220.091 324.831 219.105 325.567L215.92 326.41ZM222.906 323.155C223.903 322.957 224.897 322.786 225.909 322.583C224.952 323.222 223.998 323.85 223.056 324.468L220.056 325.378C220.989 324.631 221.941 323.906 222.897 323.18L222.906 323.155ZM223.561 322.649C224.559 321.883 225.567 321.096 226.596 320.304L229.821 319.935C228.786 320.653 227.757 321.358 226.737 322.039L223.561 322.649ZM231.265 319.404L234.471 317.202C235.567 317.163 236.65 317.118 237.722 317.054L234.474 319.002L231.265 319.404ZM238.498 317.039L239.949 316.949L241.567 316.85C240.495 317.4 239.448 317.925 238.396 318.436C237.437 318.579 236.484 318.726 235.52 318.854L235.351 318.874C236.409 318.296 237.432 317.729 238.491 317.052L238.498 317.039ZM239.967 316.605L239.175 316.641L241.111 315.487L242.571 314.608L245.894 314.705C244.748 315.299 243.593 315.88 242.45 316.464L239.967 316.605ZM246.661 314.731L249.856 314.77L246.492 316.193L243.367 316.41L246.661 314.731ZM247.212 314.454C267.351 304.218 290.155 292.697 312.554 294.154L313.59 294.271C313.905 295.291 314.22 296.311 314.502 297.331C293.42 296.748 271.861 305.662 252.809 313.569L250.468 314.512L247.212 314.454ZM252.949 313.913C272.01 306.013 293.58 297.047 314.616 297.71L315.494 300.939C296.476 301.192 277.661 307.213 259.441 313.047L254.672 314.6L251.49 314.568C251.958 314.355 252.448 314.141 252.942 313.926L252.949 313.913ZM314.991 297.723L315.468 297.731C316.094 297.759 316.71 297.827 317.335 297.887C317.684 298.891 318.027 299.914 318.355 300.924C317.53 300.905 316.701 300.925 315.879 300.932C315.599 299.868 315.295 298.796 314.991 297.723ZM318.39 301.296L318.467 301.331L319.292 303.873C319.358 304.098 319.438 304.335 319.518 304.555L316.879 304.636L316.312 302.587L315.963 301.337C316.787 301.302 317.583 301.282 318.39 301.296ZM319.656 303.726L318.884 301.321C319.69 301.351 320.507 301.395 321.289 301.471L322.469 304.512C322.077 304.499 321.689 304.479 321.291 304.484L319.875 304.492C319.804 304.302 319.745 303.993 319.656 303.726ZM321.293 304.855L322.616 304.876L322.658 304.993L323.848 308.07C322.945 308.097 322.032 308.144 321.111 308.237L320.022 304.91L321.293 304.855ZM327.086 308.385L328.56 311.546L327.109 311.62L325.667 311.686L324.337 308.391L327.086 308.385ZM327.131 311.985L328.734 311.907C329.794 314.118 330.899 316.315 332.137 318.481C338.917 330.436 347.811 332.435 357.108 331.687C356.876 331.765 356.644 331.843 356.4 331.903C346.002 333.576 335.989 332.513 328.855 318.567C327.762 316.443 326.774 314.253 325.865 312.055L327.131 311.985ZM360.966 330.884L361.559 330.703L361.724 330.689L361.045 330.875L360.966 330.884ZM399.491 341.026L400.189 342.603C402.765 348.318 405.423 354.225 410.665 357.617C413.777 359.511 417.156 360.48 420.797 360.532C418.784 360.695 416.797 360.555 414.824 360.116C412.855 359.67 410.995 358.944 409.248 357.937C403.915 354.584 401.331 348.446 398.851 342.516L398.142 340.779C395.91 335.519 393.157 332.213 390.019 330.218C393.651 332.03 396.874 335.336 399.465 341.013L399.491 341.026ZM441.436 365.981L440.863 365.495L441.066 365.585C447.416 370.66 455.554 382.089 457.846 388.548C453.662 380.08 448.185 372.552 441.412 365.973L441.436 365.981ZM440.299 364.603L440.92 364.997C447.949 369.853 457.328 383.094 458.415 389.161C456.494 382.629 448.032 370.728 441.281 365.331C440.916 365.108 440.596 364.837 440.273 364.589L440.299 364.603ZM441.131 364.696C440.644 364.363 440.147 364.066 439.65 363.753C440.039 363.931 440.434 364.113 440.782 364.369C448.427 368.928 459.017 384.075 458.825 389.562C458.056 383.553 448.353 369.682 441.106 364.688L441.131 364.696ZM453.873 377.573C449.788 371.47 444.82 366.376 440.998 364.028C440.293 363.611 439.603 363.238 438.879 362.898C439.476 363.164 440.069 363.436 440.674 363.71C448.179 367.581 458.315 381.648 459.226 388.006C459.323 388.559 459.317 389.113 459.207 389.666C459.333 386.836 456.662 381.758 453.789 377.567L453.873 377.573ZM461.301 390.127C461.767 389.648 462.024 389.075 462.078 388.414C462.76 381.862 449.035 363.146 440.19 360.832C438.656 360.451 437.104 360.218 435.529 360.124C437.024 360.172 438.51 360.35 439.974 360.649C448.885 362.582 463.159 381.758 462.314 388.433C462.233 389.168 461.887 389.735 461.266 390.138L461.301 390.127ZM435.087 360.038L434.809 360.022L435.094 360.025L435.087 360.038ZM361.055 316.465C367.727 319.839 374.657 322.575 381.839 324.67C393.304 328.388 404.127 331.889 413.146 341.672L414.964 343.672C417.706 346.785 420.598 349.752 423.65 352.566C426.3 354.85 429.065 356.995 431.937 358.997L431.488 359.062C428.229 357.291 425.156 355.242 422.275 352.916C418.799 349.793 415.632 346.388 412.779 342.693L411.665 341.318C403.314 331.194 392.991 328.574 382.026 325.872C373.924 323.837 365.516 321.735 357.586 316.37C355.602 315.045 353.688 313.817 351.8 312.674L353.922 312.963C356.378 314.091 358.717 315.229 361.02 316.476L361.055 316.465ZM351.058 312.225L349.741 311.454L351.297 311.855L352.704 312.494C352.13 312.385 351.581 312.29 351.024 312.236L351.058 312.225ZM350.159 312.125L347.954 311.901L346.195 310.663L348.461 311.185L350.159 312.125ZM345.431 310.073L344.055 309.118C344.707 309.334 345.336 309.562 345.958 309.787L347.262 310.497C346.648 310.384 346.052 310.227 345.434 310.099L345.431 310.073ZM344.531 309.903C343.84 309.77 343.144 309.623 342.448 309.509C341.906 309.019 341.331 308.544 340.758 308.058L342.274 308.521L342.765 308.749L344.531 309.903ZM339.19 307.186L337.257 306.647L335.762 305.118L337.579 305.847L339.19 307.186ZM334.332 304.181C333.733 303.91 333.125 303.73 332.444 303.508C331.978 302.928 331.549 302.364 331.031 301.773L332.674 302.606C333.211 303.135 333.806 303.604 334.318 304.191L334.332 304.181ZM329.637 300.759L327.999 300.012C327.591 299.442 327.105 298.869 326.729 298.315C327.27 298.56 327.793 298.871 328.317 299.181L329.637 300.759ZM326.175 297.681L325.7 297.039L325.216 296.454C325.571 296.697 325.934 296.933 326.295 297.196C326.656 297.459 327.065 297.959 327.435 298.355C326.991 298.124 326.573 297.889 326.155 297.688L326.175 297.681ZM325.385 297.323C324.825 297.068 324.289 296.822 323.748 296.577C323.44 296.1 323.161 295.631 322.843 295.174L322.626 294.849L324.129 295.775L325.385 297.323ZM322.195 294.242L321.318 293.049L322.375 293.842L323.335 294.845L322.195 294.242ZM321.419 293.891C320.903 293.655 320.386 293.418 319.871 293.187C319.566 292.65 319.223 292.097 318.849 291.515C319.296 291.807 319.756 292.071 320.212 292.376C320.676 292.759 321.074 293.279 321.471 293.744L321.419 293.891ZM318.349 290.723L317.48 289.522C317.828 289.778 318.168 290.059 318.522 290.335L319.401 291.359C319.154 291.059 318.738 290.83 318.377 290.621L318.349 290.723ZM317.605 290.301L316.185 289.568C315.873 289.011 315.545 288.454 315.185 287.879C315.631 288.17 316.062 288.466 316.492 288.773C316.919 289.196 317.285 289.698 317.638 290.198L317.605 290.301ZM314.781 287.187C314.512 286.78 314.237 286.359 313.93 285.937L314.789 286.638L315.787 287.832L314.781 287.187ZM312.194 284.2C311.851 284.046 311.571 283.762 311.255 283.556L310.5 282.423C310.817 282.684 311.104 282.954 311.406 283.219C311.713 283.483 311.922 283.734 312.165 284.073L312.194 284.2ZM310.518 283.122L309.193 282.397C308.901 281.85 308.591 281.298 308.263 280.74C308.698 281.029 309.109 281.331 309.507 281.643C309.827 282.001 310.163 282.496 310.49 282.999L310.518 283.122ZM307.805 279.978L307.035 278.778C307.288 278.994 307.561 279.203 307.813 279.429L308.787 280.652L307.805 279.978ZM305.321 276.953C302.261 274.721 298.873 273.252 295.159 272.552C282.227 270.244 268.124 274.773 252.057 286.416C241.504 294.061 231.445 303.712 222.188 313.139C221.004 313.036 219.815 312.918 218.628 312.789C239.888 289.491 266.393 264.349 292.229 269.378C296.98 270.407 301.101 272.612 304.596 275.985C304.792 276.158 305.035 276.497 305.292 276.826L305.321 276.953ZM221.874 313.391C220.639 314.652 219.407 315.929 218.185 317.181L214.671 317.101C215.879 315.749 217.103 314.398 218.349 313.03L221.874 313.391ZM214.187 317.072C213.026 317.044 211.851 316.988 210.688 316.9C211.899 315.455 213.123 314 214.363 312.557L217.904 312.951C216.634 314.245 215.384 315.599 214.16 316.95L214.187 317.072ZM213.866 317.441C212.692 318.743 211.533 320.041 210.402 321.308C209.247 321.365 208.085 321.403 206.928 321.422C208.06 320.057 209.194 318.679 210.351 317.322C211.506 317.243 212.68 317.279 213.824 317.307L213.866 317.441ZM206.393 321.421C189.969 321.919 173.974 319.542 158.408 314.289C110.913 297.978 94.7312 248.507 80.4383 204.857C79.3445 201.532 78.2818 198.219 77.185 194.971C75.4426 189.721 73.7753 184.223 72.0053 178.381C68.6457 167.115 65.086 155.42 60.599 144.579C58.2245 138.828 55.5916 132.777 52.5933 126.9C55.9055 132.629 58.9203 138.506 61.6358 144.543C66.4324 155.101 70.4007 166.219 74.2183 176.91C76.3194 182.851 78.3206 188.473 80.3678 193.72C82.0744 198.092 83.7818 202.605 85.4473 206.968C93.4639 228.105 101.745 249.945 113.833 268.35C127.507 289.194 144.252 302.56 165.065 309.238C179.661 313.819 194.602 316.44 209.889 317.102C208.702 318.556 207.548 319.939 206.352 321.292L206.393 321.421ZM-66.5618 93.9224C-47.5338 70.9927 -22.1891 44.2933 5.14919 41.3325C17.9179 39.9576 27.9011 44.1912 34.9956 54.0001C40.8213 62.1166 44.7875 74.306 46.7775 90.2662C47.5619 96.6202 47.991 103.129 48.1987 109.49C47.6847 103.597 46.9875 97.5376 45.9348 91.6502C43.1817 76.4756 38.7375 65.4409 32.3538 57.9637C24.9044 49.2491 14.7234 45.6891 2.1139 47.3798C-24.2445 50.9225 -48.8517 76.3202 -67.3269 98.0553C-83.6325 117.4 -97.3093 140.663 -109.969 170.605C-97.2358 138.794 -83.3155 114.221 -66.5618 93.9224ZM-109.786 169.188C-97.1333 136.114 -83.106 110.596 -66.0823 89.5407C-46.399 65.3952 -20.2989 37.312 8.14945 34.9305C17.3327 34.1854 24.9775 36.3802 30.9751 41.5166C40.549 49.6948 46.2661 65.5978 47.9271 88.8514C48.4189 95.4556 48.5406 102.116 48.4698 108.58C48.2619 102.515 47.8404 96.3252 47.0888 90.2667C45.1484 74.2035 41.1668 61.948 35.2926 53.7812C28.1666 43.8894 18.0139 39.5508 5.11416 40.9778C-22.3658 43.9393 -47.7636 70.6609 -66.8527 93.6916C-83.3995 113.745 -97.1967 137.963 -109.786 169.188ZM-67.0429 98.299C-48.6636 76.5887 -24.1072 51.2724 2.15857 47.7479C14.636 46.0714 24.7023 49.5964 32.0746 58.2043C38.3969 65.608 42.8339 76.5849 45.5534 91.7045C46.6564 98.0129 47.4442 104.36 47.9051 110.745C47.1354 104.785 46.0466 98.8869 44.6488 93.0478C41.3107 79.1216 36.1737 68.7141 29.4201 62.1447C21.6654 54.596 11.4893 51.7988 -0.901273 53.7864C-26.4099 57.9138 -50.0498 81.9595 -67.8065 102.437C-83.7884 120.883 -97.3689 143.149 -110.091 171.866C-97.3377 141.441 -83.5162 117.822 -67.0429 98.299ZM-67.5224 102.681C-49.8223 82.2319 -26.1825 58.2901 -0.841691 54.1499C22.2947 50.4129 37.0736 63.1685 44.3559 93.1235C45.8074 99.2896 46.9168 105.514 47.6809 111.803C46.6177 105.952 45.2203 100.184 43.4887 94.4987C39.4744 81.5656 33.7236 72.0716 26.4881 66.3142C18.4398 59.9332 8.21978 57.865 -3.90992 60.1965C-28.4057 64.9065 -51.1818 87.5834 -68.286 106.819C-84.0025 124.493 -97.455 145.742 -110.233 173.117C-97.3802 143.895 -83.6808 121.329 -67.5224 102.681ZM-68.0019 107.062C-50.9691 87.8605 -28.2386 65.2471 -3.82889 60.5587C19.2337 56.1352 34.5959 67.2718 43.1167 94.6702C44.9196 100.617 46.3568 106.651 47.4235 112.774C46.0663 107.064 44.3414 101.47 42.2472 95.9861C37.5912 83.9644 31.2786 75.4275 23.5283 70.4815C15.2254 65.2888 5.00462 63.9305 -6.91202 66.61C-30.4459 71.8967 -52.3336 93.2135 -68.7652 111.184C-84.2381 128.105 -97.5741 148.334 -110.375 174.297C-97.4728 146.485 -83.908 124.933 -68.0019 107.062ZM-68.4961 111.432C-52.0692 93.4471 -30.2642 72.2491 -6.81765 66.9625C16.2994 61.774 32.2398 71.2931 41.928 96.0646C44.1382 101.883 45.9444 107.823 47.3532 113.888C45.6608 108.224 43.5604 102.72 41.0538 97.3656C35.7611 86.3409 28.8679 78.7017 20.5501 74.6601L19.7525 74.2938C11.4335 70.5091 1.45526 70.0792 -9.92095 73.0366C-32.511 78.8948 -53.492 98.8403 -69.2447 115.565C-84.2775 131.524 -97.8517 151.239 -110.602 175.608C-97.6353 149.112 -84.1541 128.581 -68.4961 111.432ZM-68.9756 115.814C-53.2582 99.1326 -32.3355 79.2273 -9.84021 73.4152C13.4616 67.3552 29.9967 75.2571 40.6995 97.5588C43.2632 103.042 45.4138 108.689 47.1335 114.492C45.1255 109.074 42.694 103.855 39.834 98.8352C33.9375 88.7209 26.4551 82.0038 17.6004 78.8079C8.96249 75.7458 -1.33102 76.0154 -12.9194 79.4271C-34.6456 85.9147 -54.6919 104.491 -69.7258 119.942C-84.5115 135.141 -97.929 153.703 -110.676 176.537C-97.8126 151.832 -84.1443 131.913 -68.9756 115.814ZM-69.4551 120.196C-54.4581 104.783 -34.4553 86.2425 -12.8446 79.7693C10.7494 72.7277 27.8545 79.0037 39.4794 98.9576C42.4942 104.261 45.0324 109.786 47.104 115.528C44.7198 110.146 41.8616 105.028 38.5308 100.178C25.981 82.2674 8.14348 77.5699 -16.0048 85.8012C-37.1703 93.0135 -57.1178 111.209 -70.3015 124.261C-84.8039 138.797 -98.1184 156.263 -110.811 177.552C-97.9603 154.368 -84.4018 135.559 -69.4551 120.196ZM-69.9381 124.584C-56.8196 111.585 -36.8982 93.3756 -15.8007 86.1902C8.17027 78.0201 25.8429 82.7312 38.3025 100.425C41.7373 105.449 44.6664 110.758 47.0866 116.341C44.3655 111.104 41.1345 106.206 37.3968 101.643C24.093 85.7977 5.66888 82.7258 -18.9301 92.2506C-39.4163 100.183 -58.283 116.849 -70.6781 128.692C-85.1363 142.483 -98.3472 158.819 -110.954 178.519C-98.141 156.904 -84.6942 139.216 -69.9381 124.584ZM-70.4306 128.959C-57.9871 117.166 -39.2259 100.511 -18.801 92.5922C5.63874 83.1338 23.9267 86.1721 37.1045 101.877C40.9838 106.63 44.3149 111.742 47.0979 117.211C43.9929 112.072 40.3386 107.357 36.14 103.064C34.3435 101.221 32.3888 99.5694 30.266 98.1126C28.1433 96.6559 25.8996 95.4227 23.5352 94.4132C21.1658 93.4051 18.7212 92.6446 16.2034 92.1199C13.6856 91.5953 11.1402 91.3304 8.56415 91.3154C-0.377819 91.1605 -10.3558 93.5639 -21.95 98.6424C-36.9934 105.236 -53.0995 116.493 -71.1769 133.047C-86.3645 147.105 -99.7652 162.698 -111.392 179.82C-98.5617 159.7 -85.1436 142.999 -70.4306 128.959ZM100.748 364.702C99.6447 364.197 98.5235 363.687 97.4236 363.088C74.7714 351.529 59.8626 330.297 51.8518 298.18C44.3453 268.05 44.3273 233.918 45.2733 207.563C45.6793 197.352 46.2316 187.347 46.8239 177.694C47.5106 166.396 48.1758 155.672 48.3244 146.432C48.3469 143.897 48.4247 140.93 48.4985 137.811C48.5948 133.965 48.6954 129.681 48.7339 125.181C48.8782 129.307 48.9772 133.288 49.0202 136.987C49.094 140.332 49.1625 143.504 49.2727 146.27C49.6418 156.342 49.3655 167.817 48.9789 179.949C48.7289 188.484 48.4771 197.309 48.4576 206.23C48.2936 267.585 54.7796 333.598 104.038 358.007C104.867 358.386 105.689 358.761 106.498 359.129C133.192 371.285 156.916 365.109 177.817 353.006L175.778 354.908C154.653 368.959 129.282 377.695 100.748 364.702ZM173.998 356.489C173.35 357.069 172.698 357.634 172.046 358.199C149.661 374.737 122.28 385.174 90.6533 368.507C67.9747 356.568 53.3742 334.754 46.0246 301.84C38.9344 270.116 40.1908 233.646 41.7468 208.972C42.5141 196.731 43.5942 185.069 44.633 173.797C45.5389 164.013 46.3857 154.788 46.8979 146.618C47.0344 144.446 47.2111 141.95 47.3953 139.305C47.7062 134.959 48.0405 130.116 48.287 124.923C48.2385 129.529 48.1388 133.852 48.0905 137.781C48.0671 140.939 47.9373 143.862 47.908 146.41C47.8074 155.733 47.1582 166.386 46.4749 177.678C45.8944 187.316 45.2781 197.309 44.9356 207.566C44.0384 233.954 43.9818 268.109 51.5189 298.285C55.2711 313.32 60.6844 326.223 67.6198 336.655C71.3184 342.328 75.6808 347.438 80.7087 351.972C85.7332 356.514 91.2562 360.331 97.2809 363.433C98.4221 364.024 99.5853 364.582 100.757 365.114C104.615 366.949 108.614 368.4 112.751 369.458C116.894 370.515 121.095 371.166 125.359 371.41C129.624 371.658 133.874 371.492 138.107 370.909C142.341 370.327 146.478 369.349 150.519 367.965C158.844 365.164 166.67 361.335 173.998 356.489ZM179.124 352.285L180.706 351.324C180.296 351.671 179.875 352.032 179.445 352.386C179.012 352.746 178.298 353.199 177.706 353.593C178.18 353.171 178.655 352.721 179.124 352.285ZM184.579 348.447C185.144 347.953 185.697 347.452 186.265 346.951L187.846 346.056L186.082 347.445L184.579 348.447ZM191.836 343.257C192.357 342.831 192.859 342.412 193.367 341.979L195.005 341.11L193.503 342.237L191.836 343.257ZM199.127 338.433L200.531 337.343L200.738 337.168C201.311 336.906 201.871 336.638 202.432 336.358C201.874 336.751 201.305 337.132 200.749 337.514L199.127 338.433ZM209.468 331.696C210.219 331.099 210.989 330.492 211.705 329.885L214.406 328.96C213.596 329.525 212.814 330.06 212.04 330.587L209.468 331.696ZM216.833 327.7C217.634 327.121 218.436 326.547 219.237 325.968L221.966 325.22L219.483 326.786L216.833 327.7ZM226.73 323.423L224.269 324.141L226.866 322.414L229.602 321.843C228.684 322.361 227.785 322.873 226.882 323.369L226.73 323.423ZM230.769 321.613C230.918 321.566 231.065 321.547 231.222 321.509L232.957 321.122L230.713 322.166L228.595 322.842L230.769 321.613ZM231.829 320.991L234.569 319.409L235.595 319.283L237.345 319.034C236.383 319.5 235.434 319.973 234.474 320.427C233.554 320.591 232.707 320.797 231.829 320.991ZM239.608 318.295L242.551 316.803L245.359 316.669L242.427 317.852C241.488 317.989 240.548 318.159 239.608 318.295ZM246.58 316.558L248.901 316.369L246.451 317.123L244.181 317.508L246.58 316.558ZM247.693 316.105L250.764 314.829L253.7 314.878L250.563 315.858L247.693 316.105ZM254.886 314.882L257.287 314.914L254.662 315.471L252.352 315.695L254.886 314.882ZM255.81 314.592L259.566 313.39C277.797 307.542 296.606 301.534 315.596 301.3L315.968 302.657L316.499 304.608C299.879 305.332 283.348 309.051 267.29 312.677C264.393 313.325 261.535 313.978 258.706 314.599L255.81 314.592ZM267.391 313.049C283.449 309.424 299.999 305.698 316.606 304.984C316.913 306.116 317.238 307.237 317.569 308.378C304.599 309.166 291.616 310.865 279.007 312.523C273.473 313.241 268.08 313.958 262.759 314.587L260.447 314.598L267.391 313.049ZM316.984 304.969C317.874 304.935 318.765 304.906 319.647 304.897L320.736 308.223L317.941 308.364L316.984 304.969ZM320.857 308.573C321.242 309.697 321.636 310.812 322.029 311.939L319.11 312.135C318.738 311.024 318.393 309.888 318.068 308.734L320.857 308.573ZM321.249 308.554L324.011 308.395C324.432 309.492 324.88 310.59 325.341 311.69L323.184 311.827L322.456 311.876C322.016 310.786 321.628 309.674 321.249 308.554ZM323.16 312.255L325.457 312.112C326.393 314.346 327.386 316.583 328.516 318.756C335.199 331.702 344.325 333.748 353.864 332.657C342.933 334.912 332.419 334.115 325.248 318.849C324.242 316.708 323.361 314.512 322.573 312.298L323.16 312.255ZM397.8 340.979L398.51 342.716C401.015 348.709 403.599 354.935 409.069 358.304C412.062 360.099 415.3 360.987 418.793 360.965C416.854 361.154 414.932 361.048 413.026 360.648C411.121 360.247 409.324 359.567 407.626 358.61C402.081 355.248 399.58 348.849 397.164 342.653C396.927 342.023 396.671 341.399 396.425 340.789C394.252 335.314 391.517 331.876 388.377 329.855C392.05 331.539 395.24 335.003 397.763 340.931L397.8 340.979ZM457.18 388.081C452.805 380.376 447.634 373.25 441.659 366.708C447.976 373 453.152 380.125 457.18 388.081ZM461.868 390.211C462.389 389.698 462.67 389.08 462.719 388.35C463.579 381.583 449.111 362.118 440.083 360.161C438.474 359.82 436.855 359.636 435.21 359.612L435.14 359.58C436.723 359.546 438.289 359.666 439.851 359.928C448.914 361.492 463.948 381.385 463.021 388.304C462.947 389.146 462.544 389.775 461.81 390.185L461.868 390.211ZM434.763 359.633L434.412 359.628L434.355 359.602C434.458 359.652 434.589 359.583 434.708 359.595L434.763 359.633ZM433.967 359.271L433.846 359.216L434.26 359.179L434.331 359.212L433.967 359.271ZM354.284 312.691L354.124 312.616L353.97 312.544L354.284 312.691ZM348.836 310.886L348.671 310.813L348.416 310.696L348.836 310.886ZM343.572 308.588L342.999 308.397L342.53 308.086L343.572 308.588ZM338.127 305.696L337.797 305.549L337.442 305.273L338.127 305.696ZM332.917 302.322L332.691 302.103L333.19 302.46L332.917 302.322ZM328.735 299.071L328.538 298.981L328.37 298.793L328.735 299.071ZM324.53 295.572L324.472 295.547L324.402 295.514L324.53 295.572ZM320.595 291.999L320.525 291.966L320.443 291.932L320.595 291.999ZM316.94 288.496L316.799 288.431L316.656 288.252L316.94 288.496ZM289.216 265.711C291.905 266.33 294.436 267.347 296.798 268.767C299.167 270.19 301.248 271.949 303.05 274.036C299.874 271.414 296.271 269.68 292.237 268.829C266.147 263.738 239.467 289.143 218.125 312.56L214.564 312.139C236.159 286.901 262.892 260.137 289.235 265.667L289.216 265.711ZM76.4912 174.935C79.0504 181.152 81.4741 187.007 83.9078 192.39C86.3398 197.767 88.8142 203.366 91.1126 208.753C106.892 245.161 123.159 282.671 159.824 299.371C163.726 301.137 167.727 302.631 171.838 303.846C185.615 307.87 199.63 310.722 213.881 312.397C212.633 313.865 211.392 315.319 210.181 316.764C194.832 316.111 179.828 313.482 165.175 308.876C118.86 294.029 102.051 249.701 85.797 206.848C84.1432 202.47 82.4178 197.951 80.7109 193.596C78.6771 188.339 76.674 182.728 74.5549 176.783C70.7481 166.039 66.8236 154.869 61.9773 144.413C59.5105 139.047 56.6189 133.093 53.2134 127.24C62.6949 141.502 69.8722 158.89 76.4912 174.935ZM-65.5897 85.1659C-45.3967 59.741 -18.4072 30.3356 11.1366 28.5217C20.9369 27.9157 28.9429 30.8433 34.9589 37.2022C48.5777 51.5998 50.2505 81.1116 48.8955 107.207C48.9493 101.158 48.813 94.955 48.3434 88.7861C46.6403 65.4857 40.8855 49.4799 31.2385 41.2428C25.1202 36.0351 17.356 33.7904 8.12123 34.5627C-20.4608 36.9534 -46.7065 65.0769 -66.3355 89.3255C-83.1568 110.104 -97.0696 135.292 -109.617 167.781C-97.0389 133.426 -82.8793 106.921 -65.5897 85.1659ZM-70.9117 133.335C-52.8367 116.825 -36.7853 105.585 -21.7882 99.001C3.13832 88.0685 22.0098 89.4713 35.8981 103.337C40.1453 107.68 43.8282 112.452 46.9535 117.655C43.4882 112.777 39.4855 108.395 34.9439 104.504C32.9208 102.809 30.7489 101.335 28.4316 100.076C26.1093 98.8181 23.6939 97.8027 21.1689 97.0292C18.6438 96.2557 16.0747 95.7417 13.4436 95.4819C10.819 95.2256 8.19483 95.2312 5.57105 95.4987C-3.39912 96.2097 -13.3865 99.3476 -24.9393 105.079C-39.6073 112.346 -55.3234 123.246 -71.613 137.393C-86.2285 150.284 -99.3948 164.52 -111.112 180.103C-99.4901 162.983 -86.0944 147.392 -70.9117 133.335ZM2.55806 99.6882C-6.51027 101.216 -16.4869 105.066 -27.9545 111.486C-43.8211 120.429 -58.7492 130.726 -72.7356 142.387C-86.727 154.049 -99.5509 166.873 -111.204 180.869C-99.4166 165.111 -86.1489 150.728 -71.3912 137.717C-55.0541 123.582 -39.4151 112.663 -24.7769 105.405C0.978783 92.6286 19.8714 92.4306 34.7001 104.788C39.3537 108.775 43.4349 113.285 46.9355 118.31C43.069 113.58 38.642 109.446 33.6544 105.909C24.8795 99.8214 14.3916 97.7172 2.55806 99.6882ZM83.883 373.926C56.3831 359.031 41.0614 329.118 36.9969 282.489C33.5573 243.149 39.0993 198.825 43.1462 166.44C44.0222 159.428 44.8437 152.799 45.5112 146.792L46.1211 141.539C46.6923 136.719 47.3673 130.944 47.9761 124.611C47.6838 129.884 47.3325 134.848 46.9748 139.235C46.7856 141.882 46.6071 144.389 46.4725 146.55C45.9773 154.687 45.1203 163.931 44.2159 173.72C43.1688 185.001 42.0887 196.663 41.3229 208.908C39.7459 233.654 38.5162 270.105 45.6677 301.903C49.115 317.323 54.3198 330.57 61.1102 341.288C64.7043 347.098 68.992 352.334 73.9763 357.008C78.9591 361.678 84.4652 365.614 90.4947 368.819C91.9705 369.589 93.4257 370.311 94.8901 370.976C98.8013 372.842 102.858 374.303 107.058 375.353C111.265 376.406 115.528 377.026 119.858 377.222C124.187 377.412 128.491 377.174 132.772 376.5C137.053 375.826 141.22 374.736 145.282 373.225C153.71 370.145 161.582 366.007 168.898 360.815C146.598 378.942 117.487 392.161 83.883 373.926ZM175.809 355.373L175.85 355.279L175.95 355.214C175.897 355.269 175.84 355.315 175.771 355.358L175.809 355.373ZM212.268 330.947L212.307 330.864L212.425 330.821L212.268 330.947ZM219.673 327.114L220.202 326.92C219.89 327.073 219.592 327.205 219.283 327.351C219.404 327.247 219.524 327.161 219.662 327.079L219.673 327.114ZM226.525 324.038L227.047 323.754L227.673 323.558L226.525 324.038ZM234.083 321.041L234.63 320.782L235.232 320.631L234.083 321.041ZM241.85 318.497L242.54 318.226L243.133 318.133L241.85 318.497ZM249.928 316.511L250.63 316.296L251.384 316.228L249.928 316.511ZM258.118 315.177L259.044 314.979L259.937 314.971L258.118 315.177ZM266.15 314.591C270.393 314.072 274.682 313.51 279.064 312.931C291.693 311.267 304.657 309.541 317.724 308.804C318.055 309.944 318.401 311.08 318.766 312.205C300.911 313.256 283.435 314.298 266.141 314.545L266.15 314.591ZM321.665 319.14C320.734 316.992 319.947 314.766 319.228 312.53L322.147 312.333C322.976 314.589 323.861 316.833 324.889 319.011C331.246 332.518 340.115 334.858 349.623 333.738C338.752 336.078 328.486 334.925 321.656 319.093L321.665 319.14ZM405.976 359.216C400.258 355.837 397.823 349.166 395.458 342.698L394.718 340.692C392.574 334.962 389.837 331.394 386.666 329.328C390.388 331.15 393.598 334.694 396.066 340.896L396.804 342.761C399.246 349.02 401.778 355.48 407.419 358.91C410.405 360.647 413.627 361.464 417.083 361.36C415.161 361.587 413.255 361.515 411.352 361.141C409.455 360.765 407.66 360.112 405.967 359.17L405.976 359.216ZM441.824 367.492C447.478 373.741 452.409 380.523 456.618 387.82C451.788 380.494 446.852 373.697 441.82 367.444L441.824 367.492ZM463.189 389.708C462.972 389.973 462.713 390.175 462.403 390.316C462.991 389.809 463.324 389.164 463.392 388.389C464.338 381.377 449.118 361.204 439.924 359.605C438.236 359.322 436.53 359.209 434.816 359.261L434.739 359.225C436.396 359.114 438.054 359.161 439.708 359.367C446.947 360.341 458.729 373.531 462.636 383.064C463.929 386.157 464.144 388.42 463.18 389.662L463.189 389.708Z" fill="#222222"/>
</svg>
