<svg width="418" height="403" viewBox="0 0 418 403" fill="none" xmlns="http://www.w3.org/2000/svg">
<g clip-path="url(#clip0_19_90)">
<mask id="mask0_19_90" style="mask-type:luminance" maskUnits="userSpaceOnUse" x="0" y="-95" width="501" height="486">
<path d="M0.785156 -94.5908L500.075 -93.8004L499.309 390.199L0.0189569 389.409L0.785156 -94.5908Z" fill="white"/>
</mask>
<g mask="url(#mask0_19_90)">
<mask id="mask1_19_90" style="mask-type:luminance" maskUnits="userSpaceOnUse" x="-67" y="-134" width="666" height="632">
<path d="M132.108 -133.883L598.08 279.767L399.069 497.457L-66.9035 83.8022L132.108 -133.883Z" fill="white"/>
</mask>
<g mask="url(#mask1_19_90)">
<mask id="mask2_19_90" style="mask-type:luminance" maskUnits="userSpaceOnUse" x="-67" y="-134" width="666" height="632">
<path d="M132.108 -133.883L598.08 279.767L399.069 497.457L-66.9035 83.8022L132.108 -133.883Z" fill="white"/>
</mask>
<g mask="url(#mask2_19_90)">
<path d="M499.207 381.667C498.434 372.317 491.347 355.228 484.063 351.847C482.405 351.11 480.693 350.529 478.928 350.115C464.411 318.664 444.198 296.507 417.913 283.211C416.334 282.125 414.724 281.054 413.034 280.021C411.646 278.789 410.12 277.662 408.562 276.503C407.011 274.954 405.433 273.482 403.823 272.068C402.921 270.994 402.014 269.946 401.074 268.903L399.877 267.635C399.555 267.192 399.281 266.744 398.954 266.295C398.173 265.221 397.356 264.199 396.511 263.192C395.541 261.581 394.534 260.101 393.458 258.745C392.599 257.16 391.655 255.627 390.622 254.152C389.874 252.624 389.03 251.144 388.092 249.721C387.339 248.1 386.485 246.536 385.53 245.019C384.888 243.554 384.156 242.131 383.328 240.755C382.659 239.139 381.879 237.57 380.994 236.053C380.388 234.573 379.688 233.14 378.897 231.748C376.754 226.26 373.169 220.702 367.07 217.312C343.036 203.967 308.727 221.605 279.972 239.299C266.683 233.362 253.993 226.373 241.891 218.338C202.276 191.973 197.574 147.054 193.007 103.61C192.388 97.7387 191.763 91.6752 191.048 85.82C190.328 79.9698 189.83 73.6826 189.207 66.9628C187.498 47.6632 185.65 26.5978 179.446 8.93689L179.204 8.44692L179.105 7.73322L179.053 7.13418L179.038 6.32165L179.118 6.11865L179.204 5.29587L179.268 4.87931L179.39 4.24408C179.454 4.04107 179.507 3.8276 179.561 3.61415C179.614 3.4059 179.688 3.22893 179.741 3.0311C179.794 2.83847 179.959 2.44811 180.054 2.15138C190.624 -23.8215 200.825 -57.1231 191.068 -76.9979C187.116 -85.0459 180.137 -90.2861 170.379 -92.6922C141.082 -99.9104 105.891 -79.9453 78.5044 -61.7438C52.086 -44.1919 27.7285 -19.6627 1.73173 15.3483L1.84785 15.4526C1.80551 15.489 1.76844 15.5306 1.73137 15.5774L1.84222 15.6714C1.80514 15.7182 1.76808 15.7598 1.72574 15.7962L1.84185 15.9005L1.73066 16.0254L1.84678 16.1297C1.815 16.1713 1.77794 16.2077 1.74089 16.2441L1.857 16.3485L1.75111 16.4629L1.87779 16.5725C1.87779 16.5725 1.80895 16.6505 1.7719 16.6869L1.89857 16.8017L1.80326 16.9057L1.92994 17.0153C1.92994 17.0153 1.86641 17.0829 1.83463 17.1245L1.97186 17.2445C1.93482 17.2757 1.90305 17.3069 1.87128 17.3485L1.99796 17.4581C1.99796 17.4581 1.93971 17.5257 1.91323 17.5569L2.05046 17.6769C2.02398 17.7133 1.99222 17.7445 1.96046 17.7705L2.10825 17.901C2.10825 17.901 2.0553 17.9582 2.01825 17.9946L2.16604 18.125L2.09191 18.203L2.30285 18.5106C18.2763 8.12446 35.0876 -0.697902 52.7475 -7.95642C70.4073 -15.2097 88.6036 -20.7747 107.331 -24.6461C125.9 -28.4708 152.612 -31.2931 168.168 -11.4872C172.298 -6.07965 175.555 -0.204698 177.934 6.14283C174.798 13.6327 171.722 20.383 169.234 25.8374C168.428 27.5809 167.691 29.1996 167.039 30.6621C164.556 36.1894 161.724 42.2526 158.733 48.675C144.923 78.3407 126.01 118.967 117.26 157.526C112.517 178.529 111.219 197.225 113.324 213.197C115.773 231.68 123.016 247.171 134.784 259.179C136.193 260.619 137.623 261.975 139.091 263.28C142.352 266.285 145.889 268.931 149.712 271.213C153.53 273.495 157.55 275.361 161.765 276.821C165.975 278.275 170.297 279.293 174.731 279.862C179.159 280.432 183.599 280.548 188.05 280.211C199.41 279.563 211.751 276.431 225.449 270.724C228.263 269.754 231.135 268.717 234.107 267.539C236.635 266.736 239.237 265.85 241.902 264.88C244.948 264.01 247.962 263.072 250.95 262.061C253.652 261.378 256.433 260.622 259.326 259.772C262.213 258.922 265.237 258.438 268.209 257.75L273.966 256.707C274.944 256.515 275.944 256.309 276.969 256.097L278.92 255.886C280.855 255.65 282.88 255.361 284.995 255.005C287.595 254.832 290.291 254.576 293.077 254.247C295.762 254.199 298.511 254.074 301.344 253.922C304.109 254.051 306.926 254.129 309.806 254.17C312.559 254.502 315.371 254.798 318.214 255.068C321.041 255.656 323.899 256.202 326.779 256.743C344.842 262.225 363.165 266.775 381.271 271.205C381.299 273.601 381.369 276.007 381.593 278.419C383.618 298.172 395.823 300.983 409.147 301.389C410.743 301.574 412.26 301.644 413.84 301.725C415.415 301.811 417.074 302.032 418.718 302.16C420.361 302.282 421.793 302.55 423.305 302.761L423.859 302.824L425.741 303.14L429.492 303.786C431.77 304.295 434.004 304.83 436.16 305.458C437.676 305.955 439.198 306.421 440.566 307.064C443.431 309.954 445.279 314.332 445.623 320.963C445.669 321.661 445.695 322.38 445.725 323.098C446.037 330.031 446.364 337.198 450.959 342.253C455.112 346.806 461.024 347.977 467.403 348.81L468.919 349.078L470.536 349.424L471.825 349.666L472.09 349.744L472.512 349.875L473.548 350.226L475.671 351.099L477.435 352.169L478.469 352.963L479.393 353.782L480.248 354.768L480.933 355.774L481.286 356.4C485.573 366.615 489.161 377.063 492.051 387.74L492.098 387.786L492.151 387.828L492.352 387.87L492.532 387.943L492.653 388.048L492.711 388.1L492.806 388.183L492.922 388.288C494.676 389.119 496.087 389.194 497.087 388.524C498.917 387.579 499.502 385.204 499.207 381.667ZM478.516 350.041L478.03 349.941L476.491 347.376C475.173 345.218 473.823 342.981 472.516 340.698C471.214 338.41 469.754 335.694 468.453 333.254C467.494 331.471 466.498 329.616 465.528 327.833C457.812 313.92 446.314 305.063 434.141 295.679C431.047 293.294 427.853 290.82 424.691 288.258C423.25 287.084 421.756 285.946 420.214 284.824C445.094 298.103 464.441 319.748 478.516 350.041ZM298.988 253.423C299.828 253.305 300.685 253.181 301.547 253.047L303.856 253.363L301.255 253.515C300.526 253.473 299.77 253.43 298.988 253.423ZM283.748 254.696L282.558 254.751L284.869 254.146L287.158 254.201L284.847 254.63L283.748 254.696ZM276.774 255.768L274.517 255.963C275.199 255.755 275.934 255.491 276.601 255.299L278.911 255.22C278.181 255.422 277.504 255.582 276.827 255.727L276.774 255.768ZM268.061 257.411L265.989 257.751L268.104 257.015C268.86 256.959 269.6 256.882 270.346 256.8L268.854 257.214L268.061 257.411ZM396.442 263.927L396.932 264.813L395.855 263.853L395.175 262.367L396.13 263.457C396.299 263.557 396.437 263.682 396.505 263.875L396.442 263.927ZM399.511 267.916C399.87 268.406 400.213 268.901 400.545 269.402L399.416 268.405L398.525 266.779C398.894 267.128 399.221 267.483 399.575 267.869L399.511 267.916ZM403.484 272.38L404.624 273.736L403.23 272.776L402.339 271.379L403.505 272.417L403.484 272.38ZM417.664 283.575C419.997 285.183 422.236 286.827 424.358 288.549C427.509 291.122 430.719 293.59 433.818 295.975C445.949 305.344 457.42 314.174 465.084 328.03C466.074 329.813 467.049 331.648 468.014 333.441C469.31 335.875 470.675 338.419 472.093 340.89C473.39 343.184 474.755 345.42 476.057 347.579L477.422 349.836L476.921 349.731L476.873 349.689C474.642 346.837 472.564 343.88 470.645 340.82C468.547 337.223 466.65 333.527 464.954 329.733L463.795 327.288C457.984 315.196 448.544 308.551 438.613 301.467C432.325 297.312 426.476 292.625 421.067 287.413C419.499 285.817 417.884 284.294 416.211 282.796L417.664 283.575ZM293.132 252.977L290.083 252.659C291.22 252.333 292.357 251.996 293.515 251.654L296.559 252.169C295.48 252.428 294.295 252.723 293.196 252.925L293.132 252.977ZM263.626 258.149C262.706 258.288 261.78 258.432 260.85 258.566C261.813 258.187 262.807 257.788 263.822 257.352C264.79 257.296 265.72 257.199 266.709 257.143C265.741 257.464 264.805 257.775 263.879 258.097L263.626 258.149ZM392.511 259.431L393.316 261.651C392.799 261.197 392.218 260.831 391.658 260.44C391.48 259.674 391.291 258.918 391.049 258.168C391.55 258.559 392.036 258.972 392.511 259.431ZM407.441 277.173L408.881 279.076L406.604 278.182L405.355 276.05C405.994 276.374 406.622 276.703 407.261 277.064L407.441 277.173ZM418.708 301.405L419.982 301.412L420.484 301.558L419.21 301.504L418.708 301.405ZM384.618 256.913C385.316 257.221 386.018 257.551 386.705 257.895C386.793 258.932 386.865 259.948 386.938 260.969C386.203 260.66 385.448 260.367 384.682 260.106L384.618 256.913ZM310.551 251.197L307.307 250.051C330.979 244.495 357.437 238.693 379.02 247.488C379.934 247.869 380.821 248.287 381.693 248.757C381.723 249.763 381.732 250.773 381.719 251.789C381.44 251.668 381.175 251.533 380.89 251.423C359.444 243.196 333.591 247.369 310.842 251.088L310.551 251.197ZM251.741 259.64C252.963 258.996 254.196 258.358 255.423 257.714C256.512 257.695 257.585 257.675 258.663 257.625C257.383 258.222 256.108 258.824 254.934 259.343C253.909 259.404 252.836 259.522 251.757 259.625L251.741 259.64ZM192.542 237.093L190.89 235.627C149.146 198.566 159.929 134.38 167.847 87.377C168.893 81.2536 170.124 74.9222 171.307 68.7991C173.721 56.5425 176.156 43.8171 177.11 32.3603L177.643 26.1268C177.994 21.8929 178.429 17.378 178.738 12.6754C178.692 18.1284 178.477 23.5187 178.221 28.6277L178.114 32.5911C177.683 44.1841 175.766 56.8999 173.902 69.1938C173.01 75.0934 172.086 81.2066 171.342 87.0596C165.213 135.816 157.622 196.199 197.778 231.846C198.67 232.634 199.583 233.448 200.549 234.2C217.916 248.368 236.788 253.492 255.073 254.958C253.735 255.784 252.428 256.579 251.142 257.332C231.533 257.181 211.202 252.774 192.558 237.073L192.542 237.093ZM250.629 257.685C249.238 258.511 247.883 259.301 246.587 260.043C225.686 261.302 204.227 257.877 185.353 241.124L184.382 240.263C143.869 203.068 152.634 142.014 164.036 87.6991C165.394 81.196 166.969 74.5474 168.475 68.1279C171.476 55.3983 174.307 43.3715 175.747 32.2227C176.057 29.7649 176.415 27.1561 176.811 24.4015C177.324 20.6627 177.875 16.6792 178.394 12.5134C178.08 17.2785 177.676 21.8924 177.294 26.1627L176.803 32.4692C175.86 43.8688 173.398 56.568 170.979 68.8923C169.786 75.005 168.555 81.3312 167.52 87.465C162.984 114.359 158.716 142.769 160.694 168.788C162.931 198.104 172.732 220.13 190.662 236.049C191.216 236.539 191.781 237.04 192.335 237.531C198.305 242.623 204.879 246.79 212.062 250.03C219.24 253.271 226.737 255.455 234.552 256.587C239.89 257.314 245.254 257.672 250.645 257.664L250.629 257.685ZM179.096 13.1655C179.419 19.6452 179.456 26.088 179.494 32.2235L179.488 32.8432C179.554 44.5621 178.207 57.1954 176.898 69.3965C176.292 75.182 175.643 81.1601 175.185 86.8157L174.99 89.2789C171.001 138.392 166.511 193.828 204.693 227.722C205.996 228.88 207.305 230.044 208.741 231.109C225.048 243.936 242.592 249.563 259.676 252.059C258.28 252.953 256.925 253.794 255.592 254.605C237.206 253.185 218.228 248.124 200.771 233.898C199.827 233.126 198.908 232.343 198.011 231.55C158.013 196.039 165.588 135.733 171.717 87.0706C172.456 81.2228 173.38 75.1149 174.272 69.2152C176.125 56.9109 178.053 44.1847 178.495 32.5656L178.591 28.6126C178.847 23.7276 179.051 18.4675 179.096 13.1655ZM255.676 255.027C256.801 255.122 257.922 255.186 259.016 255.219C257.715 255.952 256.455 256.658 255.223 257.328C254.097 257.352 252.971 257.356 251.83 257.349C253.089 256.627 254.369 255.842 255.676 255.027ZM256.215 254.689C257.512 253.884 258.845 253.042 260.247 252.206C261.372 252.374 262.53 252.496 263.629 252.659C262.301 253.438 260.973 254.202 259.688 254.929C258.514 254.844 257.368 254.774 256.173 254.658L256.215 254.689ZM264.216 252.712L267.608 253.072C266.312 253.762 265.037 254.411 263.784 255.05C262.642 255.027 261.495 254.994 260.364 254.94C261.613 254.213 262.904 253.47 264.216 252.712ZM264.75 252.39C266.125 251.6 267.501 250.79 268.908 249.964C270.028 250.18 271.149 250.395 272.29 250.589L268.211 252.76C267.054 252.654 265.902 252.532 264.75 252.39ZM264.126 252.321L260.691 251.873C262.088 250.995 263.49 250.096 264.935 249.156C266.055 249.387 267.186 249.633 268.327 249.849L264.126 252.321ZM260.094 251.83C242.999 249.371 225.297 243.723 208.932 230.843C166.537 197.474 171.21 140.028 175.318 89.3471L175.523 86.8735C175.97 81.2232 176.619 75.245 177.236 69.4699C178.54 57.2532 179.887 44.5991 179.821 32.8594L179.827 32.2396C179.789 26.2604 179.714 20.0102 179.455 13.6609C180.153 20.1047 180.486 26.7094 180.825 33.111C181.382 44.8515 180.628 57.319 179.895 69.3543C179.526 75.3694 179.184 81.0616 179.006 86.603L178.816 93.0246C177.174 139.22 175.326 191.321 211.623 223.545C213.323 225.053 215.096 226.525 216.965 227.939C231.694 239.108 247.203 245.268 264.433 249.009C262.967 249.991 261.518 250.906 260.094 251.83ZM177.863 244.893L176.115 243.343C137.145 206.688 145.406 146.982 160.124 87.922C161.88 80.9196 163.815 73.8654 165.707 67.035C169.173 54.5144 172.405 42.7435 174.304 31.9496C174.784 29.2524 175.349 26.3054 175.941 23.197C176.618 19.6668 177.332 15.9023 178.025 11.9919C177.5 16.2932 176.928 20.4433 176.388 24.3019C175.993 27.0564 175.634 29.6705 175.313 32.1335C173.916 43.2823 171.054 55.283 168.063 68.0023C166.552 74.4218 164.94 81.0338 163.613 87.5838C152.2 141.993 143.456 203.135 184.08 240.481L185.109 241.394C203.846 258.028 225.11 261.582 245.852 260.449C245.275 260.765 244.667 261.129 244.154 261.383C243.635 261.638 242.937 262.038 242.35 262.328C219.676 265.011 197.323 262.163 177.863 244.893ZM241.472 262.796C240.424 263.341 239.361 263.886 238.25 264.395C214.84 268.41 190.482 266.47 169.042 247.442L167.876 246.408C149.293 229.301 140.408 205.49 140.707 173.626C140.985 144.986 148.719 114.342 156.25 88.1346C158.434 80.4923 160.835 72.8867 163.151 65.5257C166.96 53.4328 170.567 42.027 172.941 31.7287C173.564 28.9693 174.319 25.8767 175.107 22.6071C175.894 19.3427 176.825 15.5734 177.698 11.7883C176.999 15.7455 176.269 19.5673 175.587 23.1235C174.995 26.2319 174.43 29.179 173.95 31.897C172.051 42.67 168.809 54.4514 165.359 66.9355C163.477 73.7711 161.468 80.8096 159.786 87.8277C153.35 113.604 146.87 143.724 147.497 171.61C148.188 202.747 157.479 226.293 175.882 243.598L177.64 245.158C196.91 262.303 219.015 265.307 241.472 262.796ZM244.333 261.701C245.111 261.276 245.909 260.844 246.735 260.367C247.776 260.301 248.828 260.229 249.88 260.137L249.129 260.516C248.272 260.932 247.405 261.342 246.574 261.715C245.527 261.86 244.528 262.03 243.45 262.127C243.704 262.023 244.047 261.842 244.333 261.701ZM247.454 259.962C248.66 259.297 249.994 258.492 251.322 257.66C252.432 257.673 253.542 257.653 254.646 257.634C253.292 258.367 251.985 259.047 250.732 259.685C249.643 259.876 248.554 259.896 247.454 259.962ZM256.069 257.335C257.269 256.67 258.476 256.005 259.724 255.257C260.834 255.311 261.949 255.344 263.101 255.413C261.853 256.042 260.62 256.68 259.478 257.22L256.069 257.335ZM263.868 255.435C264.972 255.463 266.072 255.47 267.171 255.477C265.992 256.001 264.839 256.51 263.707 256.977C262.602 257.053 261.508 257.119 260.382 257.175C261.551 256.588 262.688 256.033 263.868 255.435ZM264.571 255.072C265.804 254.433 267.036 253.795 268.274 253.161L271.63 253.453C270.355 254.055 269.16 254.59 267.97 255.124C266.849 255.102 265.718 255.084 264.582 255.082L264.571 255.072ZM268.883 252.818C270.2 252.128 271.538 251.411 272.898 250.695L276.295 251.231C274.947 251.875 273.64 252.498 272.333 253.105C271.197 253.02 270.056 252.94 268.883 252.818ZM277.595 248.176L280.966 248.989L276.882 250.956L273.437 250.393L276.929 248.503C277.161 248.399 277.389 248.285 277.595 248.176ZM276.94 251.336C278.05 251.51 279.212 251.621 280.301 251.81C278.984 252.371 277.752 252.874 276.493 253.382C275.367 253.323 274.225 253.243 273.142 253.2C274.348 252.572 275.649 251.959 276.94 251.336ZM277.522 251.061L281.558 249.114C282.673 249.371 283.798 249.628 284.902 249.859C283.58 250.42 282.268 250.991 280.946 251.551C279.815 251.383 278.663 251.219 277.522 251.061ZM290.767 247.775C292.222 247.142 293.676 246.509 295.184 245.907L298.512 247.131C297.105 247.613 295.619 248.178 294.201 248.707L290.767 247.775ZM290.218 247.602L286.816 246.571C288.323 245.849 289.868 245.159 291.375 244.396L294.682 245.703L290.218 247.602ZM289.678 247.83L287.949 248.567C287.124 248.925 286.309 249.257 285.495 249.61L282.108 248.839L282.531 248.626C283.795 248.014 285.065 247.412 286.329 246.799L289.678 247.83ZM285.547 250.001C286.651 250.237 287.756 250.473 288.86 250.689C287.575 251.145 286.284 251.575 285.068 252.042L281.702 251.63L285.547 250.001ZM286.134 249.741L288.096 248.906C288.805 248.61 289.524 248.299 290.233 247.993L293.567 248.962C292.197 249.475 290.848 250.009 289.521 250.445L286.134 249.741ZM293.709 249.311L294.18 249.14L297.455 250.056L293.558 251.222L290.24 250.581L293.709 249.311ZM294.767 248.917L299.019 247.366L302.32 248.564L299.258 249.486L298.137 249.828L294.767 248.917ZM381.904 245.351C381.847 244.627 381.774 243.784 381.66 242.851C382.124 243.263 382.631 243.712 383.048 244.082C383.21 244.848 383.362 245.661 383.462 246.437C382.939 246.067 382.432 245.701 381.904 245.351ZM383.519 247.031L383.665 248.078C383.733 248.589 383.759 249.078 383.811 249.578C383.23 249.213 382.675 248.894 382.047 248.544C382.027 247.643 381.949 246.727 381.919 245.836C382.468 246.201 383.033 246.582 383.529 247.021L383.519 247.031ZM381.503 245.08C380.209 244.239 378.852 243.508 377.436 242.891C355.237 233.309 327.629 240.948 302.764 248.44L299.436 247.216C324.123 238.255 353.341 228.869 375.572 238.966C377.616 239.918 379.506 241.108 381.248 242.533C381.357 243.465 381.441 244.335 381.503 245.08ZM299.353 249.867L302.875 248.799L306.129 249.955L304.987 250.224L302.057 250.949L298.761 250.069C298.999 249.965 299.189 249.929 299.353 249.867ZM303.356 248.639C328.041 241.209 355.357 233.763 377.293 243.219C378.777 243.888 380.193 244.672 381.544 245.57C381.601 246.492 381.642 247.387 381.672 248.32C380.843 247.897 380.019 247.51 379.195 247.181C357.332 238.271 330.509 244.218 306.652 249.831L303.356 248.639ZM382.078 248.992C382.68 249.316 383.25 249.635 383.852 250.032C383.951 250.98 384.029 251.917 384.08 252.881C383.431 252.552 382.765 252.238 382.094 251.951C382.107 250.956 382.092 249.977 382.067 248.998L382.078 248.992ZM384.259 250.303C384.829 250.674 385.341 251.039 385.927 251.493C386.069 252.379 386.199 253.254 386.309 254.134C385.707 253.774 385.089 253.429 384.471 253.09C384.409 252.173 384.353 251.215 384.248 250.308L384.259 250.303ZM384.053 253.292C384.11 254.313 384.161 255.313 384.186 256.324C383.647 256.104 383.119 255.874 382.559 255.675L381.994 255.487C382.022 254.435 382.039 253.378 382.052 252.331C382.765 252.665 383.435 252.989 384.053 253.292ZM384.444 253.501C385.073 253.851 385.701 254.201 386.324 254.598C386.428 255.541 386.517 256.505 386.621 257.427C385.939 257.097 385.258 256.768 384.577 256.475C384.578 255.528 384.527 254.527 384.481 253.533L384.444 253.501ZM386.725 254.849C387.311 255.23 387.887 255.621 388.468 256.049L388.944 258.758C388.311 258.388 387.672 258.032 387.027 257.698C386.976 256.734 386.872 255.812 386.768 254.885L386.725 254.849ZM387.064 258.063C387.719 258.402 388.358 258.778 389.007 259.165C389.175 260.139 389.279 261.139 389.452 262.067C388.749 261.722 388.026 261.392 387.286 261.084C387.267 260.11 387.184 259.105 387.101 258.094L387.064 258.063ZM438.745 304.895C441.069 306.091 443.377 307.272 445.505 308.661C443.942 307.736 442.294 306.9 440.641 306.075L440.441 305.892C440.071 305.563 439.633 305.349 439.21 305.098L438.745 304.895ZM494.403 387.629C494.842 387.26 495.144 386.807 495.314 386.271C497.422 380.446 490.73 360.503 483.762 355.081C482.601 354.198 481.381 353.415 480.092 352.726C481.302 353.295 482.458 353.959 483.557 354.71C490.79 359.764 497.919 380.556 495.526 386.302C495.356 386.901 494.99 387.354 494.445 387.665L494.403 387.629ZM400.265 276.328C401.096 278.647 401.954 281.019 402.875 283.416C406.886 293.766 414.009 298.168 421.917 301.066L419.93 301.031C411.255 298.528 403.445 294.162 399.679 282.468C398.953 280.087 398.296 277.768 397.655 275.47L400.265 276.328ZM423.037 301.437L423.708 301.668C423.142 301.63 422.577 301.598 422.022 301.587L421.298 301.398L423.037 301.437ZM424.385 301.502C425.119 301.545 425.843 301.583 426.53 301.677L427.259 301.955L425.161 301.826L424.385 301.502ZM428.738 302.509L429.277 302.708C428.717 302.629 428.131 302.56 427.555 302.497L426.936 302.313L428.738 302.509ZM430.588 302.778C431.465 302.935 432.332 303.098 433.161 303.334L433.52 303.475C432.759 303.307 432.025 303.191 431.201 303.013L430.588 302.778ZM456.949 325.022L457.285 326.325C458.619 331.546 459.995 336.944 463.265 341.407C465.412 344.192 467.998 346.493 471.035 348.305C467.396 346.674 464.318 344.336 461.796 341.285C458.389 336.801 457.171 331.163 455.986 325.729L455.681 324.349C454.869 319.998 452.983 316.162 450.028 312.829C451.764 314.483 453.231 316.345 454.417 318.414C455.608 320.489 456.477 322.683 457.023 325.002L456.949 325.022ZM455.327 324.431L455.631 325.807C456.807 331.293 458.034 336.972 461.505 341.524C464.159 344.732 467.4 347.174 471.24 348.847L470.986 348.816C466.84 347.08 462.963 345.162 460.036 341.402C456.428 336.829 455.364 330.947 454.332 325.247L454.081 323.773C453.422 319.335 451.604 315.41 448.634 312.009C450.386 313.679 451.842 315.572 452.996 317.688C454.15 319.804 454.95 322.045 455.401 324.405L455.327 324.431ZM472.926 349.063C469.255 347.073 466.141 344.448 463.567 341.194C460.35 336.788 458.973 331.427 457.65 326.232L457.314 324.929C456.279 320.454 454.166 316.544 450.974 313.2C454.705 316.633 457.262 320.762 458.655 325.598L459.028 326.885C460.511 331.82 462.041 336.942 465.1 341.285C467.362 344.325 470.059 346.918 473.201 349.069L472.926 349.063ZM453.774 323.814L454.046 325.289C455.073 331.035 456.147 336.959 459.808 341.616C462.277 344.557 465.302 346.765 468.873 348.239C464.853 346.769 461.214 344.904 458.339 341.488C454.551 336.842 453.641 330.699 452.763 324.771L452.491 323.146C452.251 320.937 451.694 318.811 450.815 316.768C449.94 314.72 448.781 312.843 447.34 311.137C450.423 313.996 452.7 317.974 453.774 323.814ZM474.004 349.211C470.688 346.976 467.827 344.274 465.433 341.098C462.411 336.802 460.892 331.711 459.419 326.797L459.041 325.526C457.674 320.659 455.133 316.483 451.418 313.008C455.577 316.624 458.541 321.03 460.308 326.215L460.798 327.607C462.249 332.395 464.287 336.93 466.913 341.21C469.033 344.219 471.513 346.905 474.352 349.274L474.004 349.211ZM433.326 302.938L432.829 302.729C433.426 302.881 434.013 303.069 434.594 303.284C434.16 303.143 433.727 303.022 433.294 302.912L433.326 302.938ZM431.497 302.55C430.647 302.387 429.801 302.255 428.913 302.145L428.121 301.841C429.072 301.957 429.997 302.1 430.901 302.278L431.497 302.55ZM426.769 301.318C418.898 298.212 411.447 293.914 406.912 284.12L405.153 280.274L403.92 277.584L406.403 278.52C407.678 280.731 408.933 282.941 410.166 285.157C415.026 293.925 422.149 298.254 429.538 301.677C428.582 301.488 427.673 301.372 426.742 301.292L426.769 301.318ZM404.788 280.398L406.542 284.26C410.935 293.726 417.979 298.101 425.516 301.207C424.755 301.154 423.994 301.121 423.233 301.089C415.045 298.274 407.435 293.996 403.324 283.276C402.435 280.978 401.609 278.706 400.766 276.449C401.633 276.732 402.494 277.009 403.334 277.318L404.788 280.398ZM400.672 276.053L400.588 275.819L399.656 273.26C400.433 273.605 401.193 273.965 401.959 274.336C402.365 275.181 402.781 276.036 403.15 276.885C402.32 276.576 401.48 276.304 400.619 276.053L400.672 276.053ZM400.223 275.896L397.56 275.074L396.872 272.557L396.725 272.026L399.128 273.051L400.223 275.896ZM397.191 274.938L394.512 274.137C394.286 273.053 394.045 271.99 393.867 270.896L396.344 271.843L396.56 272.645L397.191 274.938ZM396.662 271.573L395.884 268.733C396.587 269.099 397.289 269.48 398.007 269.887L399.076 272.571L396.662 271.573ZM396.218 271.405L393.783 270.469L393.578 269.807L393.106 267.38C393.851 267.725 394.59 268.085 395.33 268.466C395.677 269.436 395.924 270.4 396.187 271.379L396.218 271.405ZM393.123 266.921L392.546 264.108C393.227 264.5 393.887 264.912 394.537 265.335L395.251 267.982C394.517 267.606 393.788 267.25 393.065 266.926L393.123 266.921ZM392.706 266.744C391.934 266.388 391.168 266.074 390.413 265.766L390.011 262.744C390.729 263.1 391.426 263.476 392.097 263.868L392.706 266.744ZM389.895 262.291C389.765 261.343 389.666 260.353 389.477 259.442C390.1 259.818 390.702 260.235 391.32 260.658C391.54 261.57 391.75 262.482 391.955 263.388C391.279 263.012 390.598 262.641 389.895 262.291ZM389.551 262.535C389.698 263.572 389.871 264.557 389.954 265.619C389.161 265.306 388.369 265.018 387.576 264.756L387.37 261.537C388.115 261.856 388.87 262.165 389.551 262.535ZM389.995 266.036L390.167 267.422L390.371 269.334C389.504 269.067 388.643 268.805 387.766 268.564L387.549 265.183C388.4 265.435 389.208 265.717 389.995 266.036ZM390.537 267.365L390.391 266.177C391.163 266.486 391.934 266.82 392.71 267.16L393.24 269.854L393.318 270.286C392.478 269.972 391.628 269.69 390.804 269.423L390.537 267.365ZM393.397 270.703L394.052 273.985C393.138 273.734 392.23 273.498 391.295 273.273C391.127 272.121 390.976 270.98 390.882 269.871L393.397 270.703ZM394.126 274.381C394.624 276.799 395.154 279.242 395.811 281.681C399.1 294.066 406.741 298.578 415.548 300.936L414.28 300.939C404.436 299.028 395.679 294.826 392.652 280.733C392.127 278.362 391.724 275.976 391.394 273.622C392.324 273.894 393.238 274.145 394.147 274.402L394.126 274.381ZM396.176 281.588C395.503 279.264 395.015 276.851 394.543 274.507C395.462 274.769 396.355 275.046 397.285 275.35C397.974 277.695 398.631 280.133 399.398 282.561C403.08 293.927 410.441 298.397 418.704 301.004L417.049 301.006C407.845 298.762 399.602 294.463 396.192 281.608L396.176 281.588ZM423.961 302.1L425.224 302.181L425.631 302.317L424.368 302.195L423.961 302.1ZM429.99 303.204C430.392 303.262 430.793 303.325 431.195 303.403L431.269 303.477L430.064 303.272L429.99 303.204ZM452.11 323.254L452.382 324.88C453.271 330.871 454.192 337.06 458.037 341.779C460.47 344.611 463.447 346.679 466.971 347.976C462.855 346.902 459.375 344.797 456.542 341.662C452.575 336.943 451.829 330.546 451.077 324.383L450.874 322.679C450.19 317.116 448.442 313.207 445.957 310.38C448.986 313.083 451.232 317.175 452.152 323.223L452.11 323.254ZM480.508 353.752C481.548 354.442 482.52 355.214 483.428 356.064C489.534 361.85 496.143 380.09 494.332 386.092C494.209 386.566 493.966 386.977 493.611 387.325C493.961 386.774 494.178 386.175 494.264 385.529C495.289 379.161 489.76 362.465 483.633 356.435C482.667 355.506 481.643 354.645 480.561 353.852L480.508 353.752ZM494.733 386.171C496.577 380.08 489.894 361.611 483.735 355.768C483.202 355.241 482.647 354.751 482.061 354.281C482.579 354.62 483.091 354.97 483.582 355.356C490.513 360.742 497.105 380.388 495.008 386.119C494.843 386.645 494.541 387.077 494.097 387.409C494.394 387.035 494.606 386.624 494.733 386.171ZM494.815 387.874C495.339 387.531 495.71 387.068 495.927 386.485C497.11 383.654 496.169 377.22 493.559 370.086C491.443 364.322 487.77 357.181 483.795 354.487C482.543 353.625 481.223 352.884 479.839 352.257C481.171 352.785 482.449 353.427 483.668 354.185C491.314 358.978 498.875 380.646 496.228 386.616C495.984 387.256 495.534 387.693 494.884 387.932L494.815 387.874ZM479.359 351.99L479.206 351.849L479.396 351.912L479.359 351.99ZM474.955 349.322C471.978 346.869 469.382 344.079 467.156 340.945C464.552 336.691 462.529 332.182 461.089 327.414L460.594 326.039C456.132 313.412 446.758 308.558 436.813 303.47C428.574 299.243 420.056 294.87 413.955 285.71C412.573 283.64 411.245 281.726 409.926 279.901L412.181 280.858C413.849 282.704 415.516 284.655 417.22 286.772C423.313 294.328 430.811 298.84 438.071 303.269C447.761 309.154 456.928 314.694 461.861 326.749L462.52 328.391C464.151 332.779 466.169 336.985 468.567 341.02C470.555 343.997 472.803 346.772 475.309 349.343L474.955 349.322ZM413.696 285.933C419.491 294.541 427.312 298.97 435.054 302.972C433.712 302.48 432.339 302.103 430.933 301.841C423.116 298.37 415.527 294.071 410.431 284.886C409.277 282.785 408.091 280.716 406.899 278.651L409.292 279.614C410.753 281.59 412.182 283.701 413.696 285.933ZM406.055 277.937L403.657 277.021L402.498 274.556C403.242 274.917 403.982 275.282 404.727 275.679L406.055 277.937ZM402.229 274.019L401.16 271.767C401.772 272.159 402.395 272.556 403.008 272.979C403.461 273.677 403.904 274.365 404.331 275.069L402.229 274.019ZM401.69 273.768L399.462 272.744L398.504 270.154L400.537 271.376L401.69 273.768ZM398.288 269.601L397.409 267.329L399.14 268.629L400.205 270.735C399.566 270.348 398.921 269.972 398.277 269.612L398.288 269.601ZM397.781 269.309C397.094 268.922 396.397 268.551 395.716 268.201L394.98 265.643C395.614 266.066 396.237 266.478 396.839 266.912L397.781 269.309ZM394.801 265.085C394.565 264.267 394.307 263.47 394.044 262.683C394.551 263.127 395.063 263.586 395.59 264.05L396.549 266.328C395.984 265.889 395.403 265.482 394.791 265.096L394.801 265.085ZM394.321 264.783C393.682 264.386 393.059 263.989 392.388 263.602C392.204 262.727 391.994 261.847 391.79 260.956C392.376 261.373 392.951 261.817 393.521 262.271C393.827 263.094 394.058 263.954 394.315 264.793L394.321 264.783ZM391.199 260.121C390.602 259.714 390.006 259.323 389.404 258.962C389.268 258.113 389.169 257.295 388.974 256.415C389.471 256.853 390.009 257.208 390.558 257.662C390.768 258.49 390.989 259.309 391.188 260.127L391.199 260.121ZM388.854 255.852C388.702 255.076 388.529 254.284 388.371 253.534C388.846 253.956 389.342 254.4 389.754 254.906L390.09 255.963L390.374 257.016C389.836 256.588 389.355 256.249 388.843 255.862L388.854 255.852ZM387.959 253.33C388.127 254.049 388.258 254.773 388.426 255.476C387.93 255.033 387.339 254.735 386.768 254.364C386.653 253.489 386.565 252.661 386.387 251.76C386.883 252.198 387.358 252.62 387.912 253.111C387.912 253.194 387.922 253.272 387.943 253.351L387.959 253.33ZM386.308 251.291L386.209 250.645L385.894 249.066C386.332 249.457 386.765 249.844 387.155 250.323C387.381 251.079 387.565 251.798 387.749 252.48C387.264 252.068 386.788 251.646 386.271 251.291L386.308 251.291ZM385.844 250.722L385.886 250.983C385.337 250.581 384.835 250.205 384.238 249.819C384.192 249.22 384.151 248.631 384.093 248.058L383.999 247.37C384.474 247.793 384.97 248.231 385.435 248.643C385.555 249.357 385.697 250.071 385.78 250.753L385.844 250.722ZM383.905 246.782C383.8 246.032 383.675 245.297 383.539 244.568C383.982 244.964 384.356 245.418 384.752 245.856C384.947 246.58 385.173 247.32 385.288 247.961C384.797 247.554 384.37 247.178 383.868 246.782L383.905 246.782ZM383.418 243.906C383.282 243.265 383.145 242.624 382.982 241.999C383.309 242.39 383.626 242.792 383.927 243.198C384.148 243.824 384.332 244.423 384.516 245.038L383.418 243.906ZM382.943 243.483C382.494 243.087 382.062 242.701 381.623 242.315C381.54 241.596 381.425 240.835 381.273 240.043C381.706 240.429 382.064 240.888 382.439 241.321C382.591 242.045 382.754 242.749 382.917 243.478L382.943 243.483ZM381.217 241.949C379.533 240.619 377.717 239.501 375.762 238.602C353.294 228.395 323.796 237.963 298.95 246.996L295.591 245.746C321.285 234.953 351.303 223.959 373.845 234.677C376.438 235.942 378.75 237.586 380.793 239.6C380.923 240.423 381.039 241.204 381.159 241.97L381.217 241.949ZM374.03 234.323C351.24 223.47 320.963 234.651 295.163 245.558L291.819 244.235C318.516 231.543 349.308 219.019 372.187 230.414C375.329 232.013 378.021 234.163 380.253 236.87C380.426 237.578 380.583 238.271 380.698 238.995C378.709 237.091 376.47 235.541 373.972 234.344L374.03 234.323ZM372.25 230.076C349.113 218.581 318.051 231.318 291.254 244.047L287.905 242.687C299.644 236.523 312.212 230.413 324.66 226.355C343.698 220.156 358.619 220.106 370.349 226.135C374.056 228.079 377.086 230.766 379.432 234.202C379.632 234.811 379.806 235.431 379.974 236.036C377.795 233.553 375.219 231.565 372.25 230.076ZM290.894 244.213C289.339 244.945 287.805 245.682 286.293 246.419C285.162 246.073 284.031 245.712 282.896 245.341C284.44 244.515 285.996 243.679 287.572 242.858L290.894 244.213ZM285.822 246.642L282.368 248.303L281.516 248.713C280.364 248.451 279.234 248.173 278.098 247.895C279.537 247.127 280.975 246.343 282.451 245.553C283.571 245.946 284.691 246.297 285.811 246.652L285.822 246.642ZM277.553 247.759C276.412 247.487 275.276 247.193 274.13 246.884C275.601 246.027 277.098 245.139 278.616 244.266C279.741 244.658 280.861 245.025 281.971 245.391C280.468 246.206 279.003 247.001 277.543 247.77L277.553 247.759ZM277.056 248.029C276.998 248.097 276.876 248.133 276.781 248.18C275.448 248.881 274.136 249.587 272.84 250.299C271.683 250.104 270.541 249.889 269.4 249.673C270.067 249.273 270.728 248.894 271.395 248.494C272.056 248.094 272.908 247.606 273.723 247.097C274.753 247.51 275.926 247.751 277.051 248.04L277.056 248.029ZM271.2 248.187C270.411 248.644 269.623 249.106 268.851 249.563C267.699 249.343 266.557 249.106 265.416 248.855L265.839 248.59L269.86 246.112L273.242 247.049C272.501 247.418 271.845 247.807 271.194 248.197L271.2 248.187ZM265.618 248.287C265.375 248.459 265.136 248.604 264.883 248.765C247.541 245.05 231.879 238.911 217.193 227.69C175.53 196.082 177.471 141.361 179.192 93.0772L179.403 86.6088C179.591 81.057 179.938 75.3857 180.302 69.3706C181.035 57.3145 181.789 44.8469 181.242 33.0804C180.946 26.8195 180.623 20.4023 179.914 14.1928C181.029 20.6738 181.706 27.1644 182.251 33.3372C183.279 44.9899 183.117 57.1719 182.946 68.9581C182.862 75.0518 182.784 80.8121 182.876 86.3487C182.897 89.8331 182.965 93.2551 183.013 96.7447C183.25 120.355 183.507 144.777 188.842 167.186C194.114 189.32 203.807 206.471 218.364 219.389C220.517 221.304 222.787 223.131 225.168 224.874C238.625 234.515 253.361 241.554 269.374 245.991L265.618 248.287ZM174.721 22.4711C173.923 25.7511 173.167 28.8436 172.55 31.6031C170.176 41.891 166.612 53.3333 162.771 65.3845C160.45 72.7507 158.102 80.299 155.864 88.0038C148.322 114.237 140.594 144.912 140.316 173.589C140.08 205.614 149.033 229.488 167.669 246.71L168.878 247.78C171.971 250.613 175.297 253.149 178.855 255.4C182.409 257.65 186.138 259.568 190.041 261.168C193.939 262.762 197.954 264.008 202.081 264.9C206.207 265.792 210.382 266.32 214.6 266.482C222.131 266.807 229.611 266.324 237.034 265.028C235.981 265.548 234.918 266.077 233.844 266.596C208.861 272.338 182.683 271.286 159.726 249.552C119.637 211.624 133.551 146.807 152.444 88.4151C155.195 79.9194 158.131 71.5907 160.972 63.5223C165.033 52.0391 168.856 41.1806 171.562 31.4713C172.269 28.7693 173.23 25.7969 174.16 22.5483C175.197 19.05 176.302 15.2965 177.36 11.3503C176.492 15.2812 175.551 19.0661 174.721 22.4711ZM238.276 264.827C239.117 264.693 239.936 264.569 240.819 264.368C239.883 264.783 238.931 265.203 237.953 265.582L235.388 266.291C236.382 265.783 237.319 265.315 238.276 264.827ZM239.519 264.199C240.498 263.701 241.482 263.186 242.46 262.672C243.428 262.559 244.422 262.452 245.358 262.297C244.39 262.754 243.406 263.2 242.39 263.615C241.375 264.03 240.518 264.086 239.498 264.22L239.519 264.199ZM246.621 262.101C247.467 261.988 248.313 261.869 249.175 261.714C248.307 262.072 247.424 262.415 246.504 262.809L243.976 263.362C244.854 262.942 245.732 262.542 246.605 262.122L246.621 262.101ZM247.79 261.561L249.287 260.845C249.811 260.601 250.34 260.325 250.884 260.061L253.866 259.763C252.835 260.199 251.793 260.64 250.724 261.081C249.725 261.267 248.752 261.427 247.769 261.577L247.79 261.561ZM254.23 260.014C254.511 259.9 254.807 259.749 255.098 259.625L257.725 259.306C256.821 259.648 255.911 259.965 255.007 260.359C254.102 260.753 253.267 260.705 252.384 260.86L254.23 260.014ZM256.245 259.121C257.356 258.618 258.504 258.073 259.684 257.512C260.698 257.456 261.734 257.422 262.739 257.361C261.57 257.854 260.422 258.305 259.322 258.715C258.275 258.88 257.255 259.014 256.23 259.137L256.245 259.121ZM264.88 256.869C265.917 256.423 266.985 255.951 268.08 255.468L271.225 255.452C270.146 255.862 269.083 256.251 268.047 256.614L264.88 256.869ZM268.895 255.094C270.048 254.565 271.222 254.03 272.423 253.465C273.522 253.555 274.59 253.656 275.731 253.694C274.562 254.166 273.404 254.628 272.267 255.058C271.125 255.098 270.005 255.112 268.874 255.115L268.895 255.094ZM276.571 253.737L279.737 253.893C278.648 254.256 277.564 254.613 276.517 254.95L273.35 255.107C274.371 254.64 275.461 254.204 276.556 253.752L276.571 253.737ZM277.381 253.41C278.587 252.922 279.808 252.409 281.035 251.89L284.296 252.306C283.09 252.742 281.9 253.162 280.721 253.566L277.381 253.41ZM285.136 252.412C286.161 252.523 287.176 252.66 288.217 252.771C287.096 253.092 285.98 253.403 284.88 253.708L281.699 253.672C282.83 253.241 283.973 252.837 285.12 252.433L285.136 252.412ZM285.924 252.127C287.125 251.696 288.341 251.25 289.579 250.804L292.812 251.424C291.591 251.797 290.38 252.16 289.185 252.502L285.924 252.127ZM294.372 251.354L298.147 250.219C299.22 250.512 300.282 250.795 301.338 251.057L297.6 251.937L294.372 251.354ZM302.094 251.277L303.526 251.628L305.121 252.022C303.916 252.223 302.742 252.408 301.569 252.578C300.596 252.426 299.629 252.278 298.657 252.11L298.488 252.079C299.688 251.846 300.851 251.614 302.083 251.288L302.094 251.277ZM303.648 251.306L302.871 251.101L305.097 250.584L306.779 250.186L309.964 251.279C308.674 251.501 307.379 251.707 306.094 251.919L303.648 251.306ZM310.698 251.536L313.778 252.535L310.088 252.878L306.997 252.144L310.698 251.536ZM311.317 251.438C333.934 247.744 359.523 243.629 380.752 251.766L381.719 252.19C381.712 253.257 381.705 254.325 381.666 255.382C361.444 248.475 337.857 250.48 317.003 252.28L314.45 252.474L311.317 251.438ZM317.034 252.65C337.893 250.86 361.507 248.809 381.66 255.778L381.523 259.122C363.043 253.634 342.995 253.707 323.581 253.78L318.491 253.824L315.422 252.835C315.94 252.773 316.479 252.717 317.023 252.66L317.034 252.65ZM382.02 255.904L382.479 256.055C383.076 256.27 383.652 256.521 384.238 256.767C384.268 257.829 384.288 258.907 384.296 259.97C383.504 259.703 382.696 259.472 381.898 259.232C381.953 258.133 381.986 257.018 382.02 255.904ZM384.217 260.334L384.28 260.392L384.302 263.064C384.296 263.298 384.301 263.548 384.312 263.782L381.733 263.065L381.811 260.94L381.855 259.643C382.663 259.858 383.44 260.078 384.217 260.334ZM384.699 263.033L384.687 260.507C385.458 260.779 386.234 261.067 386.969 261.375L387.18 264.631C386.805 264.5 386.435 264.364 386.05 264.249L384.676 263.83C384.666 263.627 384.703 263.314 384.699 263.033ZM385.938 264.603L387.211 265.021L387.216 265.146L387.428 268.438C386.546 268.192 385.647 267.962 384.728 267.773L384.691 264.273L385.938 264.603ZM390.465 269.714L390.925 273.173L389.498 272.806L388.082 272.434L387.802 268.892L390.465 269.714ZM389.408 273.16L390.982 273.569C391.333 275.997 391.73 278.424 392.266 280.863C395.173 294.305 403.168 298.89 412.393 300.978C412.144 300.983 411.896 300.988 411.642 300.971C401.068 299.434 391.703 295.403 389.064 279.957C388.655 277.602 388.369 275.216 388.161 272.846L389.408 273.16ZM416.372 301.375L417.001 301.381L417.165 301.418L416.451 301.391L416.372 301.375ZM450.552 322.653L450.744 324.367C451.49 330.592 452.257 337.025 456.293 341.839C458.725 344.583 461.698 346.525 465.206 347.671C463.209 347.22 461.328 346.488 459.554 345.474C457.785 344.456 456.206 343.204 454.824 341.717C450.688 336.914 450.064 330.282 449.477 323.88L449.321 322.01C448.77 316.322 447.117 312.34 444.69 309.493C447.65 312.315 449.758 316.438 450.531 322.632L450.552 322.653ZM483.513 359.085L483.107 358.449L483.276 358.595C487.869 365.347 492.25 378.698 492.493 385.548C491.033 376.212 488.034 367.384 483.491 359.07L483.513 359.085ZM482.833 357.428L483.314 357.991C488.631 364.739 493.659 380.19 492.857 386.303C492.994 379.496 488.444 365.598 483.561 358.419C483.276 358.095 483.05 357.741 482.812 357.407L482.833 357.428ZM483.61 357.768C483.241 357.304 482.85 356.871 482.465 356.422C482.787 356.709 483.114 357.001 483.373 357.351C489.377 364.001 494.994 381.635 493.131 386.809C494.224 380.847 489.075 364.698 483.589 357.752L483.61 357.768ZM492.004 373.885C489.917 366.835 486.666 360.481 483.685 357.091C483.131 356.481 482.577 355.917 481.98 355.375C482.477 355.808 482.967 356.246 483.469 356.689C489.548 362.642 495.056 379.109 493.994 385.446C493.919 386.003 493.744 386.529 493.469 387.023C494.456 384.363 493.424 378.716 491.925 373.854L492.004 373.885ZM495.354 388.094C495.952 387.777 496.375 387.309 496.63 386.695C499.293 380.652 491.732 358.671 483.88 353.799C482.513 352.974 481.081 352.285 479.587 351.72C481.018 352.217 482.402 352.834 483.728 353.56C491.76 358.088 499.71 380.674 496.852 386.784C496.549 387.46 496.041 387.897 495.317 388.094L495.354 388.094ZM479.185 351.506L478.921 351.406L479.196 351.495L479.185 351.506ZM420.865 287.653C426.291 292.88 432.161 297.577 438.47 301.738C448.428 308.738 457.831 315.336 463.568 327.382L464.716 329.837C466.417 333.631 468.309 337.332 470.402 340.934C472.268 343.911 474.288 346.789 476.456 349.564L476.001 349.49C473.389 346.819 471.042 343.941 468.964 340.854C466.555 336.829 464.532 332.628 462.9 328.245L462.242 326.599C457.256 314.429 448.068 308.821 438.283 302.941C431.065 298.56 423.572 294.022 417.537 286.517C416.023 284.656 414.546 282.908 413.069 281.25L415.034 282.164C417.066 283.98 418.981 285.77 420.828 287.653L420.865 287.653ZM412.488 280.598L411.449 279.466L412.832 280.317L413.999 281.35C413.476 281.073 412.974 280.817 412.451 280.598L412.488 280.598ZM411.649 280.232L409.583 279.354L408.259 277.643L410.292 278.823L411.649 280.232ZM407.7 276.851L406.661 275.526C407.226 275.928 407.765 276.335 408.298 276.737L409.343 277.806C408.783 277.514 408.255 277.185 407.695 276.877L407.7 276.851ZM406.882 276.417C406.253 276.083 405.625 275.733 404.986 275.414C404.612 274.783 404.2 274.158 403.794 273.522L405.12 274.419L405.526 274.785L406.882 276.417ZM402.544 272.217L400.838 271.121L399.858 269.213L401.394 270.455L402.544 272.217ZM398.761 267.889C398.265 267.45 397.731 267.095 397.14 266.678C396.866 265.985 396.624 265.317 396.303 264.598L397.638 265.887C397.997 266.554 398.429 267.18 398.745 267.894L398.761 267.889ZM395.264 263.211L393.908 262.006C393.687 261.339 393.392 260.646 393.197 260.005C393.646 260.401 394.057 260.855 394.469 261.309L395.264 263.211ZM392.855 259.233L392.592 258.478L392.302 257.774C392.571 258.113 392.851 258.447 393.12 258.807C393.389 259.167 393.631 259.766 393.868 260.256C393.509 259.901 393.177 259.552 392.834 259.233L392.855 259.233ZM392.2 258.654C391.736 258.242 391.293 257.845 390.844 257.449C390.691 256.902 390.565 256.37 390.397 255.839L390.287 255.464L391.458 256.799L392.2 258.654ZM390.055 254.755L389.571 253.353L390.352 254.427L390.974 255.673L390.055 254.755ZM389.411 254.186C388.984 253.805 388.556 253.424 388.129 253.049C387.998 252.444 387.835 251.814 387.651 251.147C387.994 251.559 388.358 251.95 388.706 252.378C389.038 252.884 389.264 253.499 389.507 254.061L389.411 254.186ZM387.409 250.24L386.936 248.833C387.194 249.183 387.437 249.553 387.695 249.923L388.232 251.164C388.085 250.804 387.752 250.46 387.467 250.152L387.409 250.24ZM386.818 249.614L385.668 248.488C385.537 247.862 385.39 247.232 385.216 246.575C385.559 246.987 385.886 247.399 386.208 247.822C386.492 248.353 386.692 248.942 386.882 249.526L386.818 249.614ZM385.038 245.794C384.901 245.325 384.764 244.84 384.596 244.345L385.213 245.273L385.813 246.712L385.038 245.794ZM383.447 242.166C383.162 241.916 382.978 241.561 382.735 241.269L382.351 239.962C382.578 240.306 382.773 240.65 382.984 240.994C383.2 241.338 383.326 241.64 383.458 242.036L383.447 242.166ZM382.155 240.633L381.094 239.543C380.979 238.933 380.848 238.313 380.701 237.683C381.033 238.09 381.339 238.502 381.629 238.919C381.829 239.357 382.003 239.93 382.165 240.508L382.155 240.633ZM380.49 236.818L380.112 235.442C380.291 235.724 380.492 236.005 380.666 236.297L381.234 237.757L380.49 236.818ZM379.011 233.185C376.732 230.135 373.903 227.714 370.523 225.927C358.715 219.83 343.682 219.9 324.576 226.162C312.027 230.272 299.342 236.445 287.504 242.645C286.389 242.19 285.275 241.719 284.165 241.238C311.86 225.428 345.195 209.439 368.658 222.018C372.941 224.431 376.255 227.775 378.606 232.044C378.743 232.268 378.874 232.664 379.022 233.055L379.011 233.185ZM287.123 242.79C285.541 243.621 283.959 244.467 282.394 245.293L279.018 244.157C280.6 243.233 282.198 242.313 283.822 241.384L287.123 242.79ZM278.558 243.985C277.444 243.608 276.324 243.2 275.225 242.766C276.839 241.753 278.468 240.735 280.109 239.732L283.415 241.175C281.791 242.026 280.167 242.94 278.569 243.86L278.558 243.985ZM278.135 244.239C276.601 245.127 275.083 246.016 273.601 246.883C272.465 246.59 271.329 246.275 270.204 245.945C271.717 244.984 273.236 244.013 274.77 243.067C275.911 243.34 277.037 243.727 278.135 244.099L278.135 244.239ZM269.686 245.783C253.641 241.31 238.89 234.224 225.433 224.526C184.459 194.664 183.923 142.616 183.435 96.6881C183.393 93.188 183.378 89.7088 183.309 86.2817C183.228 80.7503 183.295 75.0056 183.368 68.9015C183.562 57.1466 183.692 44.9228 182.664 33.2337C182.124 27.0349 181.426 20.4713 180.321 13.9643C181.775 20.425 182.896 26.9372 183.678 33.5113C185.092 45.024 185.534 56.8216 185.96 68.166C186.177 74.4633 186.395 80.4272 186.772 86.0476C187.087 90.7303 187.359 95.5485 187.637 100.21C188.933 122.78 190.271 146.1 196.342 167.292C203.202 191.287 215.32 209.077 233.418 221.715C246.143 230.48 259.8 237.481 274.39 242.718C272.798 243.746 271.258 244.718 269.687 245.648L269.686 245.783ZM75.0979 -53.3794C100.52 -69.5111 133.208 -87.3343 160.568 -81.9212C173.344 -79.3854 181.71 -72.3409 185.577 -60.8504C188.733 -51.3558 188.845 -38.5379 185.892 -22.7196C184.709 -16.4246 183.134 -10.0885 181.391 -3.96109C182.695 -9.73508 183.872 -15.7228 184.654 -21.6539C186.628 -36.9528 185.701 -48.8137 181.809 -57.8667C177.264 -68.4208 168.501 -74.8826 155.782 -77.0694C129.192 -81.6324 97.6165 -64.8282 73.0941 -49.669C51.402 -36.1357 31.0559 -18.0741 9.65262 6.66288C31.6982 -19.8335 52.6805 -39.0711 75.0979 -53.3794ZM10.2625 5.36697C32.6166 -22.3581 53.9914 -42.4649 76.9013 -57.413C103.33 -74.5066 137.171 -93.4218 165.428 -87.1219C174.542 -85.0658 181.269 -80.6697 185.503 -73.9651C192.267 -63.2825 192.938 -46.396 187.437 -23.7224C185.894 -17.2769 183.976 -10.8893 181.931 -4.7467C183.584 -10.593 185.068 -16.6219 186.193 -22.6254C189.226 -38.5269 189.119 -51.4125 185.931 -60.9696C182.06 -72.5487 173.561 -79.7444 160.642 -82.2701C133.145 -87.7251 100.399 -69.8967 74.8869 -53.687C52.7446 -39.5502 31.9901 -20.6143 10.2625 5.36697ZM73.2944 -49.351C97.7164 -64.5155 129.218 -81.2573 155.713 -76.705C168.299 -74.5444 176.963 -68.1505 181.465 -57.7215C185.32 -48.757 186.258 -36.9534 184.268 -21.717C183.407 -15.3694 182.229 -9.07957 180.723 -2.85277C181.8 -8.76774 182.549 -14.7197 182.982 -20.7086C184.009 -34.9934 182.219 -46.465 177.692 -54.7639C172.496 -64.2982 163.503 -70.0312 150.906 -71.8688C124.96 -75.6182 94.7332 -59.8119 71.2906 -45.6354C50.1864 -32.8615 30.2382 -15.7212 9.14865 7.82876C30.7904 -17.3401 51.3855 -35.6982 73.2944 -49.351ZM71.491 -45.3174C94.8701 -59.4835 125.065 -75.191 150.852 -71.5043C174.383 -68.0973 184.785 -51.4818 182.675 -20.7247C182.195 -14.4077 181.366 -8.13822 180.182 -1.91092C180.942 -7.81076 181.353 -13.732 181.416 -19.6746C181.485 -33.2162 178.822 -44.0017 173.58 -51.6714C167.743 -60.1807 158.485 -65.2318 146.035 -66.663C120.891 -69.5517 91.9186 -54.7903 69.4871 -41.6018C48.8756 -29.4834 29.3622 -13.2747 8.62885 8.97897C29.9992 -15.0133 50.154 -32.4033 71.491 -45.3174ZM69.6875 -41.2838C92.0397 -54.462 120.948 -69.1766 146.002 -66.2932C169.672 -63.563 181.133 -48.3157 181.003 -19.6232C180.93 -13.4097 180.476 -7.22296 179.637 -1.06282C180.069 -6.91631 180.11 -12.7704 179.76 -18.6304C178.929 -31.4963 175.43 -41.5383 169.442 -48.5894C162.995 -56.0424 153.52 -60.4167 141.169 -61.4519C116.78 -63.5009 89.0829 -49.7687 67.689 -37.5838C47.5436 -26.1105 28.4545 -10.8386 8.1303 10.0615C29.1179 -12.572 48.8326 -29.0356 69.6875 -41.2838ZM67.8735 -37.2658C89.2674 -49.4664 116.848 -63.1102 141.153 -61.0874C165.109 -59.0703 177.624 -45.1911 179.427 -18.6517C179.787 -12.4376 179.719 -6.22936 179.228 -0.0218045C179.322 -5.93312 178.972 -11.8139 178.183 -17.6745C176.432 -29.7815 172.096 -39.1425 165.283 -45.5023L164.623 -46.0919C157.73 -52.2069 148.205 -55.6231 136.293 -56.2305C112.642 -57.4502 86.2419 -44.7524 65.8855 -33.5502C46.4602 -22.8622 27.298 -8.15295 7.51002 11.2428C28.1574 -10.1151 47.4794 -25.6314 67.8735 -37.2658ZM66.07 -33.2322C86.3788 -44.4032 112.71 -57.0803 136.255 -55.8451C160.657 -54.6034 174.242 -42.087 177.781 -17.597C178.586 -11.5957 178.941 -5.56393 178.831 0.487989C178.544 -5.28331 177.787 -10.9928 176.553 -16.6406C173.939 -28.0615 168.752 -36.7207 161.161 -42.4359C153.738 -47.958 143.695 -50.8021 131.438 -51.0402C108.431 -51.3996 83.3534 -39.7257 64.0821 -29.5218C45.1282 -19.4841 26.4698 -5.82614 7.15452 12.1069C27.1544 -7.57506 46.4701 -22.4507 66.07 -33.2322ZM64.2666 -29.1986C83.4903 -39.3765 108.515 -51.0296 131.406 -50.6913C156.39 -50.2976 171.023 -39.1598 176.173 -16.6308C177.469 -10.6652 178.236 -4.63276 178.486 1.46661C177.824 -4.38341 176.622 -10.1249 174.882 -15.7527C168.213 -36.6122 152.388 -46.4654 126.504 -45.8918C103.817 -45.3912 78.9521 -34.0504 62.2048 -25.5769C43.7274 -16.0853 25.504 -3.44224 6.71436 13.0332C26.2362 -5.20151 45.1063 -19.0519 64.2666 -29.1986ZM62.4578 -25.1598C79.1258 -33.6022 103.97 -44.9639 126.582 -45.4594C152.276 -46.0281 167.937 -36.2116 174.586 -15.5865C176.373 -9.7607 177.585 -3.81607 178.22 2.23702C177.188 -3.57712 175.559 -9.22033 173.337 -14.6978C165.307 -33.8147 148.417 -42.2946 121.701 -40.6233C99.4523 -39.2315 76.1006 -29.0236 60.4857 -21.465C42.279 -12.6709 24.5013 -1.07404 6.27955 13.9128C25.2864 -2.83842 43.7056 -15.653 62.4578 -25.1598ZM60.6438 -21.1366C76.2902 -28.6327 99.5363 -38.8615 121.722 -40.2587C148.263 -41.9146 165.031 -33.5079 172.982 -14.563C175.283 -8.86139 176.944 -2.98375 177.965 3.06995C176.531 -2.76565 174.437 -8.36273 171.686 -13.7213C170.511 -16.02 169.124 -18.1837 167.516 -20.2122C165.907 -22.2408 164.113 -24.0926 162.133 -25.7676C160.148 -27.4427 158.015 -28.9044 155.739 -30.1632C153.463 -31.422 151.081 -32.4414 148.593 -33.2318C139.987 -36.0735 129.597 -36.7879 116.825 -35.4383C100.252 -33.6833 81.2256 -27.802 58.6717 -17.4627C39.6775 -8.63335 21.9432 2.19796 5.45854 15.0208C24.0244 -0.298751 42.1144 -12.1816 60.6438 -21.1366ZM154.225 255.225C153.312 254.411 152.383 253.587 151.502 252.685C133.115 234.838 125.179 210.101 127.245 177.063C129.191 146.071 139.608 113.52 148.58 88.6746C152.094 79.0604 155.687 69.6858 159.211 60.6601C163.329 50.0937 167.251 40.0687 170.219 31.3025C171.016 28.8923 171.998 26.0866 173.023 23.1351C174.292 19.4965 175.699 15.4414 177.112 11.1624C175.99 15.1398 174.869 18.9661 173.78 22.5061C172.829 25.7181 171.925 28.7636 171.187 31.4343C168.465 41.1487 164.69 52.0073 160.607 63.4592C157.756 71.5224 154.815 79.8615 152.069 88.3624C133.154 146.817 119.251 211.717 159.456 249.833C160.142 250.443 160.823 251.048 161.493 251.643C183.608 271.277 208.454 272.535 232.379 267.292L229.824 268.491C205.087 275.525 177.866 276.211 154.225 255.225ZM227.619 269.461C226.815 269.819 226.011 270.162 225.207 270.504C198.49 279.53 168.804 281.233 143.294 255.812C124.998 237.596 117.537 212.396 120.487 178.797C123.324 146.411 135.688 112.014 144.737 88.955C149.221 77.5141 153.831 66.7193 158.282 56.2837C162.15 47.2273 165.789 38.6861 168.782 31.0502C169.578 29.0203 170.512 26.6936 171.499 24.2264C173.128 20.1769 174.933 15.6589 176.758 10.7816C175.303 15.1595 173.886 19.251 172.638 22.9834C171.65 25.9871 170.631 28.7355 169.823 31.1561C166.876 40.016 162.991 49.9786 158.878 60.5398C155.37 69.5551 151.719 78.8983 148.252 88.5751C139.317 113.467 128.821 146.018 126.891 177.062C125.925 192.529 127.219 206.464 130.742 218.501C132.586 225.024 135.246 231.211 138.725 237.05C142.199 242.894 146.377 248.197 151.258 252.971C152.182 253.878 153.137 254.76 154.108 255.621C157.28 258.532 160.706 261.121 164.387 263.377C168.073 265.633 171.939 267.519 175.99 269.036C180.042 270.558 184.205 271.679 188.48 272.399C192.755 273.12 197.057 273.434 201.391 273.331C210.303 273.168 219.047 271.875 227.619 269.461ZM233.865 266.997L235.689 266.558C235.186 266.765 234.668 266.983 234.144 267.19C233.616 267.403 232.785 267.621 232.093 267.817C232.68 267.558 233.277 267.272 233.865 266.997ZM240.316 264.981C241.014 264.68 241.702 264.369 242.405 264.063L244.208 263.686L242.077 264.479L240.316 264.981ZM248.925 262.219C249.56 261.97 250.174 261.721 250.798 261.462L252.648 261.126L250.85 261.748L248.925 262.219ZM257.455 259.816L259.147 259.199L259.401 259.095C260.035 259.018 260.659 258.93 261.288 258.832C260.627 259.04 259.961 259.231 259.305 259.428L257.455 259.816ZM269.521 256.507C270.431 256.165 271.362 255.817 272.24 255.454L275.137 255.386C274.179 255.681 273.259 255.955 272.35 256.225L269.521 256.507ZM277.87 254.916C278.822 254.605 279.774 254.299 280.726 253.988L283.595 254.097L280.714 254.842L277.87 254.916ZM288.754 253.819L286.154 253.762L289.195 252.897L292.017 253.178C290.97 253.395 289.944 253.612 288.918 253.814L288.754 253.819ZM293.216 253.31C293.375 253.31 293.523 253.337 293.687 253.347L295.483 253.501L292.993 253.82L290.737 253.827L293.216 253.31ZM294.432 253.036L297.568 252.353L298.598 252.542L300.368 252.832C299.295 252.986 298.232 253.151 297.165 253.295C296.224 253.174 295.341 253.115 294.432 253.036ZM302.784 252.81L306.088 252.273L308.846 252.991L305.648 253.236C304.697 253.083 303.735 252.962 302.784 252.81ZM310.061 253.253L312.365 253.773L309.765 253.753L307.45 253.437L310.061 253.253ZM311.277 253.156L314.639 252.865L317.465 253.796L314.13 253.786L311.277 253.156ZM318.612 254.158L320.926 254.911L318.215 254.652L315.911 254.169L318.612 254.158ZM319.595 254.159L323.596 254.145C343.026 254.061 363.063 253.999 381.512 259.497L381.457 260.903L381.374 262.924C365.07 258.606 347.936 257.173 331.289 255.792C328.287 255.537 325.323 255.298 322.395 255.039L319.595 254.159ZM331.273 256.178C347.92 257.558 365.075 258.991 381.363 263.314C381.314 264.486 381.285 265.653 381.257 266.84C368.466 263.684 355.382 261.393 342.674 259.175C337.1 258.192 331.662 257.251 326.32 256.248L324.08 255.562L331.273 256.178ZM381.733 263.414C382.605 263.649 383.476 263.89 384.332 264.147L384.369 267.647L381.621 266.94L381.733 263.414ZM384.379 268.017C384.409 269.204 384.449 270.387 384.484 271.579L381.599 270.887C381.58 269.716 381.593 268.528 381.631 267.33L384.379 268.017ZM384.764 268.116L387.485 268.798C387.558 269.97 387.656 271.152 387.765 272.34L385.636 271.821L384.917 271.648C384.824 270.476 384.789 269.299 384.764 268.116ZM385.482 272.222L387.749 272.777C387.972 275.189 388.248 277.622 388.678 280.034C391.187 294.392 399.393 299.093 408.957 300.926C397.69 299.783 387.76 295.856 385.487 279.138C385.168 276.794 384.987 274.434 384.901 272.085L385.482 272.222ZM448.93 322.098L449.085 323.968C449.678 330.438 450.275 337.152 454.538 342.013C456.886 344.627 459.748 346.449 463.134 347.48C461.2 347.076 459.373 346.396 457.651 345.44C455.929 344.484 454.399 343.294 453.048 341.87C448.711 336.994 448.246 330.139 447.802 323.503C447.766 322.831 447.709 322.159 447.657 321.503C447.228 315.627 445.633 311.525 443.211 308.652C446.251 311.365 448.279 315.628 448.909 322.041L448.93 322.098ZM491.992 384.901C490.113 376.236 487.288 367.883 483.506 359.846C487.696 367.748 490.526 376.102 491.992 384.901ZM495.877 388.345C496.538 388.012 496.999 387.508 497.269 386.826C500.17 380.633 492.12 357.714 483.982 353.128C482.53 352.318 481.019 351.654 479.434 351.136L479.376 351.084C480.919 351.529 482.398 352.115 483.829 352.836C492.121 357.057 500.588 380.555 497.576 386.873C497.247 387.654 496.665 388.132 495.829 388.303L495.877 388.345ZM478.996 351.021L478.658 350.911L478.61 350.869C478.695 350.947 478.843 350.922 478.953 350.969L478.996 351.021ZM478.336 350.437L478.236 350.348L478.648 350.437L478.706 350.489L478.336 350.437ZM415.467 282.014L415.335 281.894L415.209 281.779L415.467 282.014ZM410.747 278.652L410.61 278.532L410.399 278.345L410.747 278.652ZM406.356 274.875L405.859 274.52L405.501 274.082L406.356 274.875ZM401.97 270.477L401.696 270.237L401.438 269.867L401.97 270.477ZM397.961 265.689L397.808 265.413L398.183 265.903L397.961 265.689ZM394.908 261.33L394.744 261.184L394.639 260.955L394.908 261.33ZM391.907 256.727L391.86 256.685L391.802 256.633L391.907 256.727ZM389.193 252.134L389.135 252.082L389.066 252.024L389.193 252.134ZM386.726 247.692L386.61 247.588L386.526 247.374L386.726 247.692ZM366.863 217.614C369.276 219.014 371.414 220.746 373.266 222.812C375.123 224.882 376.6 227.187 377.706 229.72C375.433 226.263 372.478 223.524 368.834 221.497C345.143 208.783 311.56 224.969 283.748 240.868L280.431 239.394C309.043 221.835 343.094 204.368 366.895 217.578L366.863 217.614ZM188.763 66.9673C189.339 73.6662 189.894 79.9796 190.604 85.8453C191.314 91.7058 191.996 97.7902 192.574 103.619C196.713 143.089 200.988 183.758 231.364 210.728C234.599 213.587 238.015 216.217 241.621 218.614C253.723 226.602 266.413 233.544 279.691 239.434C278.035 240.458 276.39 241.471 274.776 242.484C260.123 237.237 246.407 230.21 233.636 221.403C193.357 193.292 190.641 145.96 188.012 100.201C187.75 95.5283 187.462 90.6997 187.142 86.0325C186.781 80.4069 186.557 74.4534 186.324 68.1458C185.925 56.7545 185.542 44.9205 184.048 33.4911C183.302 27.6305 182.324 21.0821 180.817 14.4755C185.633 30.9311 187.263 49.6733 188.763 66.9673ZM78.7153 -61.4362C106.028 -79.5961 141.134 -99.5041 170.278 -92.333C179.947 -89.9583 186.799 -84.7547 190.677 -76.8788C199.454 -59.0471 192.051 -30.4026 182.763 -5.92767C184.664 -11.6799 186.428 -17.6354 187.86 -23.6592C193.335 -46.3901 192.658 -63.386 185.841 -74.1468C181.513 -80.9558 174.686 -85.4353 165.513 -87.4811C137.124 -93.8125 103.129 -74.9028 76.7221 -57.6946C54.0925 -42.9491 32.9296 -23.1232 10.8565 4.07624C33.5297 -24.8931 55.334 -45.9003 78.7153 -61.4362ZM58.8403 -17.1082C81.3782 -27.4059 100.347 -33.2873 116.872 -35.0476C144.335 -37.9625 162.168 -30.9395 171.369 -13.5343C174.151 -8.11318 176.256 -2.45359 177.69 3.44973C175.828 -2.24594 173.294 -7.63016 170.088 -12.7082C168.649 -14.9344 166.998 -16.9943 165.14 -18.8931C163.277 -20.7919 161.251 -22.4878 159.044 -23.9861C156.837 -25.4844 154.508 -26.7485 152.041 -27.7888C149.58 -28.824 147.038 -29.6093 144.418 -30.1447C135.52 -32.1692 124.896 -32.186 111.965 -30.2012C95.5492 -27.6908 77.0092 -22.0326 56.9212 -13.4498C38.8375 -5.56176 21.7448 4.04661 5.64298 15.3753C22.1224 2.55241 39.8513 -8.27891 58.8403 -17.1082ZM140.221 -27.0575C130.979 -28.3326 120.148 -27.6674 107.088 -25.0006C89.0008 -21.2532 71.4074 -15.9321 54.3084 -9.02686C37.2041 -2.12164 20.8745 6.24315 5.31945 16.0779C21.543 4.60358 38.7786 -5.11393 57.0369 -13.0746C77.1671 -21.6313 95.6385 -27.3312 112.022 -29.8418C140.851 -34.2649 159.194 -28.7619 169.766 -12.5108C173.05 -7.30762 175.621 -1.77752 177.472 4.06917C175.177 -1.60635 172.156 -6.88196 168.411 -11.7577C161.781 -20.2057 152.275 -25.3718 140.221 -27.0575ZM135.086 258.94C113.028 236.452 107.345 203.313 117.666 157.626C126.364 119.077 145.276 78.4818 159.092 48.8214C162.083 42.399 164.905 36.3254 167.387 30.798L169.583 25.9734C171.609 21.5495 174.028 16.246 176.553 10.3906C174.658 15.3304 172.801 19.9576 171.114 24.0331C170.121 26.5003 169.182 28.8373 168.391 30.8569C165.425 38.4668 161.769 47.0235 157.902 56.0851C153.44 66.526 148.83 77.3208 144.346 88.7669C135.255 111.888 122.922 146.275 120.122 178.749C118.744 194.492 119.731 208.692 123.026 220.957C124.728 227.58 127.276 233.865 130.671 239.824C134.065 245.777 138.19 251.19 143.045 256.062C144.238 257.241 145.425 258.368 146.639 259.443C149.853 262.401 153.332 265.016 157.076 267.282C160.825 269.554 164.76 271.43 168.891 272.921C173.022 274.406 177.259 275.475 181.608 276.123C185.957 276.77 190.323 276.986 194.715 276.769C203.812 276.372 212.694 274.797 221.362 272.05C194.241 282.617 162.03 286.451 135.086 258.94ZM229.712 268.944L229.781 268.866L229.898 268.835C229.829 268.871 229.76 268.897 229.681 268.918L229.712 268.944ZM272.46 256.637L272.524 256.569L272.65 256.564L272.46 256.637ZM280.798 255.212L281.368 255.187C281.02 255.239 280.692 255.275 280.348 255.321C280.496 255.259 280.639 255.212 280.798 255.176L280.798 255.212ZM288.368 254.344L288.96 254.23L289.626 254.231L288.368 254.344ZM296.598 253.763L297.206 253.681L297.835 253.718L296.598 253.763ZM304.891 253.677L305.642 253.627L306.244 253.716L304.891 253.677ZM313.316 254.217L314.061 254.223L314.811 254.386L313.316 254.217ZM321.649 255.412L322.606 255.502L323.472 255.764L321.649 255.412ZM329.601 257.274C333.865 258.057 338.187 258.814 342.605 259.581C355.334 261.799 368.407 264.059 381.277 267.293C381.249 268.481 381.237 269.668 381.245 270.85C363.646 266.474 346.417 262.202 329.606 257.227L329.601 257.274ZM381.931 278.336C381.686 276.007 381.606 273.648 381.593 271.299L384.478 271.991C384.591 274.392 384.761 276.799 385.091 279.185C387.113 293.98 394.98 298.883 404.523 300.679C393.288 299.635 383.706 295.443 381.936 278.289L381.931 278.336ZM451.266 341.951C446.766 337.006 446.449 329.912 446.138 323.031L446.035 320.896C445.712 314.786 444.154 310.559 441.717 307.634C444.762 310.493 446.785 314.84 447.276 321.497L447.421 323.497C447.87 330.201 448.346 337.123 452.757 342.094C455.115 344.65 457.982 346.399 461.358 347.342C459.43 346.979 457.607 346.336 455.88 345.406C454.159 344.476 452.623 343.312 451.272 341.904L451.266 341.951ZM483.426 360.642C486.986 368.304 489.685 376.257 491.528 384.483C489.094 376.042 486.395 368.074 483.436 360.596L483.426 360.642ZM497.309 388.263C497.018 388.451 496.706 388.565 496.363 388.606C497.087 388.3 497.606 387.785 497.908 387.067C500.968 380.665 492.406 356.844 483.999 352.55C482.451 351.771 480.835 351.149 479.16 350.683L479.097 350.625C480.735 351.018 482.325 351.563 483.862 352.258C490.569 355.367 497.938 371.494 498.805 381.761C499.111 385.1 498.627 387.323 497.315 388.217L497.309 388.263Z" fill="#222222"/>
</g>
</g>
</g>
</g>
<defs>
<clipPath id="clip0_19_90">
<rect width="507.409" height="401.409" fill="white" transform="translate(0.635498) rotate(0.0907025)"/>
</clipPath>
</defs>
</svg>
