<?xml version="1.0" encoding="utf-8"?>
<!-- Generator: Adobe Illustrator 28.7.1, SVG Export Plug-In . SVG Version: 9.03 Build 54978)  -->
<svg version="1.1" baseProfile="tiny" id="Layer_1" xmlns="http://www.w3.org/2000/svg" xmlns:xlink="http://www.w3.org/1999/xlink"
	 x="0px" y="0px" viewBox="0 0 500 500" overflow="visible" xml:space="preserve">
<g>
	<path fill="#009EE5" d="M373.94,111.21c-19.75,12.59-67.81,65.98-110.1,103.41c-0.13-1.9-0.5-3.76-1.14-5.55
		c-7.54-21.26-48.85-26.01-92.25-10.6c-21.54,7.65-39.55,18.82-51.31,30.73c3.09-19.61,29.41-42.6,65.82-55.52
		C228.37,158.27,392.97,99.09,373.94,111.21z"/>
	<path fill="#009EE5" d="M161.29,283.84c-28.06,2.86-50.43-3.9-55.78-19c-3.8-10.71,1.69-23.56,13.63-35.65
		c-0.16,0.98-0.26,1.95-0.29,2.91c-6.71,4.82-9.08,10.56-4.62,17.33c3.18,4.81,12.29,9.42,24.95,13.9
		c-4.83,4.26-6.35,8.64-2.3,12.83C140.01,279.39,149.13,281.82,161.29,283.84z"/>
	<path fill="#009EE5" d="M263.84,214.61c-1.41,1.25-2.82,2.49-4.22,3.7c-8.29-4.73-16.58-7.58-24.57-7.65
		c-26.69-0.23-94.37,5.73-116.19,21.44c0.03-0.96,0.13-1.93,0.29-2.91c11.75-11.91,29.77-23.08,51.31-30.73
		c43.41-15.41,84.71-10.66,92.25,10.6C263.34,210.85,263.71,212.71,263.84,214.61z"/>
	<path fill="#009EE5" d="M146.67,258.16c-2.95,1.69-5.5,3.42-7.48,5.17c-12.66-4.47-21.77-9.09-24.95-13.9
		c-4.47-6.77-2.09-12.51,4.62-17.33c-0.11,2.74,0.27,5.41,1.17,7.95C123.33,249.35,133.1,255.49,146.67,258.16z"/>
	<path fill="#009EE5" d="M259.62,218.31c-10.61,9.2-20.77,17.24-29.93,23.21c-7.53-3.38-14.85-5.06-21.32-3.92
		c-13.81,2.46-44.56,10.77-61.69,20.56c-13.58-2.67-23.34-8.81-26.65-18.11c-0.9-2.54-1.28-5.2-1.17-7.95
		c21.82-15.71,89.5-21.67,116.19-21.44C243.04,210.73,251.33,213.58,259.62,218.31z"/>
	<path fill="#009EE5" d="M313.68,316.57c-3.77-5.09-12.93-14.6-26.46-28.71c-6.38-6.64-24.24-25.57-43.31-38.3
		c10.82-9.4,17.81-19.52,19.55-28.92c34.56,22.06,68.15,74.27,78.3,89.75C388.29,381.33,388.7,370.79,313.68,316.57z"/>
	<path fill="#009EE5" d="M263.46,220.63c-1.74,9.4-8.73,19.52-19.55,28.92c-4.72-3.15-9.51-5.93-14.22-8.04
		c9.17-5.97,19.33-14.01,29.93-23.21C260.9,219.04,262.18,219.81,263.46,220.63z"/>
	<path fill="#FFFFFF" d="M147.88,221.08c-7.79,2.52-2.68,0.96-11.57,3.19c-0.19,0.05-0.37,0.08-0.55,0.11
		c1.07-3.68,4.2-7.91,8.32-12.58c3.07-3.47,6.65-6.02,10.19-7.48C158.06,208.99,153.64,219.21,147.88,221.08z"/>
</g>
<g>
</g>
<g>
</g>
<g>
</g>
<g>
</g>
<g>
</g>
<g>
</g>
</svg>
