<?xml version="1.0" encoding="utf-8"?>
<!-- Generator: Adobe Illustrator 28.7.1, SVG Export Plug-In . SVG Version: 9.03 Build 54978)  -->
<svg version="1.1" id="Layer_1" xmlns="http://www.w3.org/2000/svg" xmlns:xlink="http://www.w3.org/1999/xlink" x="0px" y="0px"
	 viewBox="0 0 500 500" style="enable-background:new 0 0 500 500;" xml:space="preserve">
<style type="text/css">
	.st0{fill:#009EE5;}
	.st1{fill:#FFFFFF;}
</style>
<g>
	<path class="st0" d="M184.96,173.67c-36.41,12.92-62.72,35.91-65.82,55.52c-11.94,12.09-17.43,24.94-13.63,35.65
		c5.35,15.1,27.72,21.86,55.78,19c-12.16-2.02-21.28-4.45-24.41-7.68c-4.04-4.19-2.52-8.57,2.3-12.83c1.99-1.75,4.53-3.48,7.48-5.17
		c17.13-9.79,47.88-18.1,61.69-20.56c6.47-1.14,13.79,0.54,21.32,3.92c4.71,2.11,9.51,4.88,14.22,8.04
		c19.07,12.73,36.93,31.66,43.31,38.3c13.53,14.11,22.69,23.62,26.46,28.71c75.02,54.22,74.61,64.76,28.09-6.19
		c-10.15-15.48-43.74-67.69-78.3-89.75c-1.28-0.82-2.56-1.59-3.84-2.32c1.4-1.21,2.81-2.45,4.22-3.7
		c42.29-37.42,90.35-90.82,110.1-103.41C392.97,99.09,228.37,158.27,184.96,173.67z"/>
	<path class="st1" d="M150.8,217.57c-7.79,2.52-2.68,0.96-11.57,3.19c-0.19,0.05-0.37,0.08-0.55,0.11c1.07-3.68,4.2-7.91,8.32-12.58
		c3.07-3.47,6.65-6.02,10.19-7.48C160.98,205.48,156.56,215.7,150.8,217.57z"/>
</g>
</svg>
