<svg width="417" height="484" viewBox="0 0 417 484" fill="none" xmlns="http://www.w3.org/2000/svg">
<path d="M498.207 476.667C497.434 467.317 490.347 450.228 483.063 446.847C481.405 446.11 479.693 445.529 477.928 445.115C463.411 413.664 443.198 391.507 416.913 378.211C415.334 377.125 413.724 376.054 412.034 375.021C410.646 373.789 409.12 372.662 407.562 371.503C406.011 369.954 404.433 368.482 402.823 367.068C401.921 365.994 401.014 364.946 400.074 363.903L398.877 362.635C398.555 362.192 398.281 361.744 397.954 361.295C397.173 360.221 396.356 359.199 395.511 358.192C394.541 356.581 393.534 355.101 392.458 353.745C391.599 352.16 390.655 350.627 389.622 349.152C388.874 347.624 388.03 346.144 387.092 344.721C386.339 343.1 385.485 341.536 384.53 340.019C383.888 338.554 383.156 337.131 382.328 335.755C381.659 334.139 380.879 332.57 379.994 331.053C379.388 329.573 378.688 328.14 377.897 326.748C375.754 321.26 372.169 315.702 366.07 312.312C342.036 298.967 307.727 316.605 278.972 334.299C265.683 328.362 252.993 321.373 240.891 313.338C201.276 286.973 196.574 242.054 192.007 198.61C191.388 192.739 190.763 186.675 190.048 180.82C189.328 174.97 188.83 168.683 188.207 161.963C186.498 142.663 184.65 121.598 178.446 103.937L178.204 103.447L178.105 102.733L178.053 102.134L178.038 101.322L178.118 101.119L178.204 100.296L178.268 99.8793L178.39 99.2441C178.454 99.0411 178.507 98.8276 178.561 98.6141C178.614 98.4059 178.688 98.2289 178.741 98.0311C178.794 97.8385 178.959 97.4481 179.054 97.1514C189.624 71.1785 199.825 37.8769 190.068 18.0021C186.116 9.95412 179.137 4.7139 169.379 2.30782C140.082 -4.91044 104.891 15.0547 77.5044 33.2562C51.086 50.8081 26.7285 75.3373 0.731733 110.348L0.847849 110.453C0.805507 110.489 0.768444 110.531 0.73137 110.577L0.842217 110.671C0.805144 110.718 0.768081 110.76 0.725739 110.796L0.841855 110.901L0.730661 111.025L0.846777 111.13C0.814999 111.171 0.777942 111.208 0.740887 111.244L0.857002 111.348L0.751111 111.463L0.87779 111.572C0.87779 111.572 0.808955 111.65 0.771898 111.687L0.898569 111.802L0.803264 111.906L0.929944 112.015C0.929944 112.015 0.866412 112.083 0.834632 112.124L0.971865 112.244C0.934818 112.276 0.903055 112.307 0.871276 112.348L0.997955 112.458C0.997955 112.458 0.939707 112.526 0.91323 112.557L1.05046 112.677C1.02398 112.713 0.992217 112.745 0.960462 112.771L1.10825 112.901C1.10825 112.901 1.0553 112.958 1.01825 112.995L1.16604 113.125L1.09191 113.203L1.30285 113.511C17.2763 103.124 34.0876 94.3021 51.7475 87.0436C69.4073 79.7903 87.6036 74.2253 106.331 70.3539C124.9 66.5292 151.612 63.7069 167.168 83.5128C171.298 88.9203 174.555 94.7953 176.934 101.143C173.798 108.633 170.722 115.383 168.234 120.837C167.428 122.581 166.691 124.2 166.039 125.662C163.556 131.189 160.724 137.253 157.733 143.675C143.923 173.341 125.01 213.967 116.26 252.526C111.517 273.529 110.219 292.225 112.324 308.197C114.773 326.68 122.016 342.171 133.784 354.179C135.193 355.619 136.623 356.975 138.091 358.28C141.352 361.285 144.889 363.931 148.712 366.213C152.53 368.495 156.55 370.361 160.765 371.821C164.975 373.275 169.297 374.293 173.731 374.862C178.159 375.432 182.599 375.548 187.05 375.211C198.41 374.563 210.751 371.431 224.449 365.724C227.263 364.754 230.135 363.717 233.107 362.539C235.635 361.736 238.237 360.85 240.902 359.88C243.948 359.01 246.962 358.072 249.95 357.061C252.652 356.378 255.433 355.622 258.326 354.772C261.213 353.922 264.237 353.438 267.209 352.75L272.966 351.707C273.944 351.515 274.944 351.309 275.969 351.097L277.92 350.886C279.855 350.65 281.88 350.361 283.995 350.005C286.595 349.832 289.291 349.576 292.077 349.247C294.762 349.199 297.511 349.074 300.344 348.922C303.109 349.051 305.926 349.129 308.806 349.17C311.559 349.502 314.371 349.798 317.214 350.068C320.041 350.656 322.899 351.202 325.779 351.743C343.842 357.225 362.165 361.775 380.271 366.205C380.299 368.601 380.369 371.007 380.593 373.419C382.618 393.172 394.823 395.983 408.147 396.389C409.743 396.574 411.26 396.644 412.84 396.725C414.415 396.811 416.074 397.032 417.718 397.16C419.361 397.282 420.793 397.55 422.305 397.761L422.859 397.824L424.741 398.14L428.492 398.786C430.77 399.295 433.004 399.83 435.16 400.458C436.676 400.955 438.198 401.421 439.566 402.064C442.431 404.954 444.279 409.332 444.623 415.963C444.669 416.661 444.695 417.38 444.725 418.098C445.037 425.031 445.364 432.198 449.959 437.253C454.112 441.806 460.024 442.977 466.403 443.81L467.919 444.078L469.536 444.424L470.825 444.666L471.09 444.744L471.512 444.875L472.548 445.226L474.671 446.099L476.435 447.169L477.469 447.963L478.393 448.782L479.248 449.768L479.933 450.774L480.286 451.4C484.573 461.615 488.161 472.063 491.051 482.74L491.098 482.786L491.151 482.828L491.352 482.87L491.532 482.943L491.653 483.048L491.711 483.1L491.806 483.183L491.922 483.288C493.676 484.119 495.087 484.194 496.087 483.524C497.917 482.579 498.502 480.204 498.207 476.667ZM477.516 445.041L477.03 444.941L475.491 442.376C474.173 440.218 472.823 437.981 471.516 435.698C470.214 433.41 468.754 430.694 467.453 428.254C466.494 426.471 465.498 424.616 464.528 422.833C456.812 408.92 445.314 400.063 433.141 390.679C430.047 388.294 426.853 385.82 423.691 383.258C422.25 382.084 420.756 380.946 419.214 379.824C444.094 393.103 463.441 414.748 477.516 445.041ZM297.988 348.423C298.828 348.305 299.685 348.181 300.547 348.047L302.856 348.363L300.255 348.515C299.526 348.473 298.77 348.43 297.988 348.423ZM282.748 349.696L281.558 349.751L283.869 349.146L286.158 349.201L283.847 349.63L282.748 349.696ZM275.774 350.768L273.517 350.963C274.199 350.755 274.934 350.491 275.601 350.299L277.911 350.22C277.181 350.422 276.504 350.582 275.827 350.727L275.774 350.768ZM267.061 352.411L264.989 352.751L267.104 352.015C267.86 351.959 268.6 351.882 269.346 351.8L267.854 352.214L267.061 352.411ZM395.442 358.927L395.932 359.813L394.855 358.853L394.175 357.367L395.13 358.457C395.299 358.557 395.437 358.682 395.505 358.875L395.442 358.927ZM398.511 362.916C398.87 363.406 399.213 363.901 399.545 364.402L398.416 363.405L397.525 361.779C397.894 362.128 398.221 362.483 398.575 362.869L398.511 362.916ZM402.484 367.38L403.624 368.736L402.23 367.776L401.339 366.379L402.505 367.417L402.484 367.38ZM416.664 378.575C418.997 380.183 421.236 381.827 423.358 383.549C426.509 386.122 429.719 388.59 432.818 390.975C444.949 400.344 456.42 409.174 464.084 423.03C465.074 424.813 466.049 426.648 467.014 428.441C468.31 430.875 469.675 433.419 471.093 435.89C472.39 438.184 473.755 440.42 475.057 442.579L476.422 444.836L475.921 444.731L475.873 444.689C473.642 441.837 471.564 438.88 469.645 435.82C467.547 432.223 465.65 428.527 463.954 424.733L462.795 422.288C456.984 410.196 447.544 403.551 437.613 396.467C431.325 392.312 425.476 387.625 420.067 382.413C418.499 380.817 416.884 379.294 415.211 377.796L416.664 378.575ZM292.132 347.977L289.083 347.659C290.22 347.333 291.357 346.996 292.515 346.654L295.559 347.169C294.48 347.428 293.295 347.723 292.196 347.925L292.132 347.977ZM262.626 353.149C261.706 353.288 260.78 353.432 259.85 353.566C260.813 353.187 261.807 352.788 262.822 352.352C263.79 352.296 264.72 352.199 265.709 352.143C264.741 352.464 263.805 352.775 262.879 353.097L262.626 353.149ZM391.511 354.431L392.316 356.651C391.799 356.197 391.218 355.831 390.658 355.44C390.48 354.674 390.291 353.918 390.049 353.168C390.55 353.559 391.036 353.972 391.511 354.431ZM406.441 372.173L407.881 374.076L405.604 373.182L404.355 371.05C404.994 371.374 405.622 371.703 406.261 372.064L406.441 372.173ZM417.708 396.405L418.982 396.412L419.484 396.558L418.21 396.504L417.708 396.405ZM383.618 351.913C384.316 352.221 385.018 352.551 385.705 352.895C385.793 353.932 385.865 354.948 385.938 355.969C385.203 355.66 384.448 355.367 383.682 355.106L383.618 351.913ZM309.551 346.197L306.307 345.051C329.979 339.495 356.437 333.693 378.02 342.488C378.934 342.869 379.821 343.287 380.693 343.757C380.723 344.763 380.732 345.773 380.719 346.789C380.44 346.668 380.175 346.533 379.89 346.423C358.444 338.196 332.591 342.369 309.842 346.088L309.551 346.197ZM250.741 354.64C251.963 353.996 253.196 353.358 254.423 352.714C255.512 352.695 256.585 352.675 257.663 352.625C256.383 353.222 255.108 353.824 253.934 354.343C252.909 354.404 251.836 354.522 250.757 354.625L250.741 354.64ZM191.542 332.093L189.89 330.627C148.146 293.566 158.929 229.38 166.847 182.377C167.893 176.254 169.124 169.922 170.307 163.799C172.721 151.542 175.156 138.817 176.11 127.36L176.643 121.127C176.994 116.893 177.429 112.378 177.738 107.675C177.692 113.128 177.477 118.519 177.221 123.628L177.114 127.591C176.683 139.184 174.766 151.9 172.902 164.194C172.01 170.093 171.086 176.207 170.342 182.06C164.213 230.816 156.622 291.199 196.778 326.846C197.67 327.634 198.583 328.448 199.549 329.2C216.916 343.368 235.788 348.492 254.073 349.958C252.735 350.784 251.428 351.579 250.142 352.332C230.533 352.181 210.202 347.774 191.558 332.073L191.542 332.093ZM249.629 352.685C248.238 353.511 246.883 354.301 245.587 355.043C224.686 356.302 203.227 352.877 184.353 336.124L183.382 335.263C142.869 298.068 151.634 237.014 163.036 182.699C164.394 176.196 165.969 169.547 167.475 163.128C170.476 150.398 173.307 138.372 174.747 127.223C175.057 124.765 175.415 122.156 175.811 119.401C176.324 115.663 176.875 111.679 177.394 107.513C177.08 112.278 176.676 116.892 176.294 121.163L175.803 127.469C174.86 138.869 172.398 151.568 169.979 163.892C168.786 170.005 167.555 176.331 166.52 182.465C161.984 209.359 157.716 237.769 159.694 263.788C161.931 293.104 171.732 315.13 189.662 331.049C190.216 331.539 190.781 332.04 191.335 332.531C197.305 337.623 203.879 341.79 211.062 345.03C218.24 348.271 225.737 350.455 233.552 351.587C238.89 352.314 244.254 352.672 249.645 352.664L249.629 352.685ZM178.096 108.166C178.419 114.645 178.456 121.088 178.494 127.223L178.488 127.843C178.554 139.562 177.207 152.195 175.898 164.396C175.292 170.182 174.643 176.16 174.185 181.816L173.99 184.279C170.001 233.392 165.511 288.828 203.693 322.722C204.996 323.88 206.305 325.044 207.741 326.109C224.048 338.936 241.592 344.563 258.676 347.059C257.28 347.953 255.925 348.794 254.592 349.605C236.206 348.185 217.228 343.124 199.771 328.898C198.827 328.126 197.908 327.343 197.011 326.55C157.013 291.039 164.588 230.733 170.717 182.071C171.456 176.223 172.38 170.115 173.272 164.215C175.125 151.911 177.053 139.185 177.495 127.566L177.591 123.613C177.847 118.728 178.051 113.468 178.096 108.166ZM254.676 350.027C255.801 350.122 256.922 350.186 258.016 350.219C256.715 350.952 255.455 351.658 254.223 352.328C253.097 352.352 251.971 352.356 250.83 352.349C252.089 351.627 253.369 350.842 254.676 350.027ZM255.215 349.689C256.512 348.884 257.845 348.042 259.247 347.206C260.372 347.374 261.53 347.496 262.629 347.659C261.301 348.438 259.973 349.202 258.688 349.929C257.514 349.844 256.368 349.774 255.173 349.658L255.215 349.689ZM263.216 347.712L266.608 348.072C265.312 348.762 264.037 349.411 262.784 350.05C261.642 350.027 260.495 349.994 259.364 349.94C260.613 349.213 261.904 348.47 263.216 347.712ZM263.75 347.39C265.125 346.6 266.501 345.79 267.908 344.964C269.028 345.18 270.149 345.395 271.29 345.589L267.211 347.76C266.054 347.654 264.902 347.532 263.75 347.39ZM263.126 347.321L259.691 346.873C261.088 345.995 262.49 345.096 263.935 344.156C265.055 344.387 266.186 344.633 267.327 344.849L263.126 347.321ZM259.094 346.83C241.999 344.371 224.297 338.723 207.932 325.843C165.537 292.474 170.21 235.028 174.318 184.347L174.523 181.874C174.97 176.223 175.619 170.245 176.236 164.47C177.54 152.253 178.887 139.599 178.821 127.859L178.827 127.24C178.789 121.26 178.714 115.01 178.455 108.661C179.153 115.105 179.486 121.709 179.825 128.111C180.382 139.851 179.628 152.319 178.895 164.354C178.526 170.369 178.184 176.062 178.006 181.603L177.816 188.025C176.174 234.22 174.326 286.321 210.623 318.545C212.323 320.053 214.096 321.525 215.965 322.939C230.694 334.108 246.203 340.268 263.433 344.009C261.967 344.991 260.518 345.906 259.094 346.83ZM176.863 339.893L175.115 338.343C136.145 301.688 144.406 241.982 159.124 182.922C160.88 175.92 162.815 168.865 164.707 162.035C168.173 149.514 171.405 137.743 173.304 126.95C173.784 124.252 174.349 121.305 174.941 118.197C175.618 114.667 176.332 110.902 177.025 106.992C176.5 111.293 175.928 115.443 175.388 119.302C174.993 122.056 174.634 124.67 174.313 127.133C172.916 138.282 170.054 150.283 167.063 163.002C165.552 169.422 163.94 176.034 162.613 182.584C151.2 236.993 142.456 298.135 183.08 335.481L184.109 336.394C202.846 353.028 224.11 356.582 244.852 355.449C244.275 355.765 243.667 356.129 243.154 356.383C242.635 356.638 241.937 357.038 241.35 357.328C218.676 360.011 196.323 357.163 176.863 339.893ZM240.472 357.796C239.424 358.341 238.361 358.886 237.25 359.395C213.84 363.41 189.482 361.47 168.042 342.442L166.876 341.408C148.293 324.301 139.408 300.49 139.707 268.626C139.985 239.986 147.719 209.342 155.25 183.135C157.434 175.492 159.835 167.887 162.151 160.526C165.96 148.433 169.567 137.027 171.941 126.729C172.564 123.969 173.319 120.877 174.107 117.607C174.894 114.343 175.825 110.573 176.698 106.788C175.999 110.746 175.269 114.567 174.587 118.124C173.995 121.232 173.43 124.179 172.95 126.897C171.051 137.67 167.809 149.451 164.359 161.935C162.477 168.771 160.468 175.81 158.786 182.828C152.35 208.604 145.87 238.724 146.497 266.61C147.188 297.747 156.479 321.293 174.882 338.598L176.64 340.158C195.91 357.303 218.015 360.307 240.472 357.796ZM243.333 356.701C244.111 356.276 244.909 355.844 245.735 355.367C246.776 355.301 247.828 355.229 248.88 355.137L248.129 355.516C247.272 355.932 246.405 356.342 245.574 356.715C244.527 356.86 243.528 357.03 242.45 357.127C242.704 357.023 243.047 356.842 243.333 356.701ZM246.454 354.962C247.66 354.297 248.994 353.492 250.322 352.66C251.432 352.673 252.542 352.653 253.646 352.634C252.292 353.367 250.985 354.047 249.732 354.685C248.643 354.876 247.554 354.896 246.454 354.962ZM255.069 352.335C256.269 351.67 257.476 351.005 258.724 350.257C259.834 350.311 260.949 350.344 262.101 350.413C260.853 351.042 259.62 351.68 258.478 352.22L255.069 352.335ZM262.868 350.435C263.972 350.463 265.072 350.47 266.171 350.477C264.992 351.001 263.839 351.51 262.707 351.977C261.602 352.053 260.508 352.119 259.382 352.175C260.551 351.588 261.688 351.033 262.868 350.435ZM263.571 350.072C264.804 349.433 266.036 348.795 267.274 348.161L270.63 348.453C269.355 349.055 268.16 349.59 266.97 350.124C265.849 350.102 264.718 350.084 263.582 350.082L263.571 350.072ZM267.883 347.818C269.2 347.128 270.538 346.411 271.898 345.695L275.295 346.231C273.947 346.875 272.64 347.498 271.333 348.105C270.197 348.02 269.056 347.94 267.883 347.818ZM276.595 343.176L279.966 343.989L275.882 345.956L272.437 345.393L275.929 343.503C276.161 343.399 276.389 343.285 276.595 343.176ZM275.94 346.336C277.05 346.51 278.212 346.621 279.301 346.81C277.984 347.371 276.752 347.874 275.493 348.382C274.367 348.323 273.225 348.243 272.142 348.2C273.348 347.572 274.649 346.959 275.94 346.336ZM276.522 346.061L280.558 344.114C281.673 344.371 282.798 344.628 283.902 344.859C282.58 345.42 281.268 345.991 279.946 346.551C278.815 346.383 277.663 346.219 276.522 346.061ZM289.767 342.775C291.222 342.142 292.676 341.509 294.184 340.907L297.512 342.131C296.105 342.613 294.619 343.178 293.201 343.707L289.767 342.775ZM289.218 342.602L285.816 341.571C287.323 340.849 288.868 340.159 290.375 339.396L293.682 340.703L289.218 342.602ZM288.678 342.83L286.949 343.567C286.124 343.925 285.309 344.257 284.495 344.61L281.108 343.839L281.531 343.626C282.795 343.014 284.065 342.412 285.329 341.799L288.678 342.83ZM284.547 345.001C285.651 345.237 286.756 345.473 287.86 345.689C286.575 346.145 285.284 346.575 284.068 347.042L280.702 346.63L284.547 345.001ZM285.134 344.741L287.096 343.906C287.805 343.61 288.524 343.299 289.233 342.993L292.567 343.962C291.197 344.475 289.848 345.009 288.521 345.445L285.134 344.741ZM292.709 344.311L293.18 344.14L296.455 345.056L292.558 346.222L289.24 345.581L292.709 344.311ZM293.767 343.917L298.019 342.366L301.32 343.564L298.258 344.486L297.137 344.828L293.767 343.917ZM380.904 340.351C380.847 339.627 380.774 338.784 380.66 337.851C381.124 338.263 381.631 338.712 382.048 339.082C382.21 339.848 382.362 340.661 382.462 341.437C381.939 341.067 381.432 340.701 380.904 340.351ZM382.519 342.031L382.665 343.078C382.733 343.589 382.759 344.078 382.811 344.578C382.23 344.213 381.675 343.894 381.047 343.544C381.027 342.643 380.949 341.727 380.919 340.836C381.468 341.201 382.033 341.582 382.529 342.021L382.519 342.031ZM380.503 340.08C379.209 339.239 377.852 338.508 376.436 337.891C354.237 328.309 326.629 335.948 301.764 343.44L298.436 342.216C323.123 333.255 352.341 323.869 374.572 333.966C376.616 334.918 378.506 336.108 380.248 337.533C380.357 338.465 380.441 339.335 380.503 340.08ZM298.353 344.867L301.875 343.799L305.129 344.955L303.987 345.224L301.057 345.949L297.761 345.069C297.999 344.965 298.189 344.929 298.353 344.867ZM302.356 343.639C327.041 336.209 354.357 328.763 376.293 338.219C377.777 338.888 379.193 339.672 380.544 340.57C380.601 341.492 380.642 342.387 380.672 343.32C379.843 342.897 379.019 342.51 378.195 342.181C356.332 333.271 329.509 339.218 305.652 344.831L302.356 343.639ZM381.078 343.992C381.68 344.316 382.25 344.635 382.852 345.032C382.951 345.98 383.029 346.917 383.08 347.881C382.431 347.552 381.765 347.238 381.094 346.951C381.107 345.956 381.092 344.977 381.067 343.998L381.078 343.992ZM383.259 345.303C383.829 345.674 384.341 346.039 384.927 346.493C385.069 347.379 385.199 348.254 385.309 349.134C384.707 348.774 384.089 348.429 383.471 348.09C383.409 347.173 383.353 346.215 383.248 345.308L383.259 345.303ZM383.053 348.292C383.11 349.313 383.161 350.313 383.186 351.324C382.647 351.104 382.119 350.874 381.559 350.675L380.994 350.487C381.022 349.435 381.039 348.378 381.052 347.331C381.765 347.665 382.435 347.989 383.053 348.292ZM383.444 348.501C384.073 348.851 384.701 349.201 385.324 349.598C385.428 350.541 385.517 351.505 385.621 352.427C384.939 352.097 384.258 351.768 383.577 351.475C383.578 350.528 383.527 349.527 383.481 348.533L383.444 348.501ZM385.725 349.849C386.311 350.23 386.887 350.621 387.468 351.049L387.944 353.758C387.311 353.388 386.672 353.032 386.027 352.698C385.976 351.734 385.872 350.812 385.768 349.885L385.725 349.849ZM386.064 353.063C386.719 353.402 387.358 353.778 388.007 354.165C388.175 355.139 388.279 356.139 388.452 357.067C387.749 356.722 387.026 356.392 386.286 356.084C386.267 355.11 386.184 354.105 386.101 353.094L386.064 353.063ZM437.745 399.895C440.069 401.091 442.377 402.272 444.505 403.661C442.942 402.736 441.294 401.9 439.641 401.075L439.441 400.892C439.071 400.563 438.633 400.349 438.21 400.098L437.745 399.895ZM493.403 482.629C493.842 482.26 494.144 481.807 494.314 481.271C496.422 475.446 489.73 455.503 482.762 450.081C481.601 449.198 480.381 448.415 479.092 447.726C480.302 448.295 481.458 448.959 482.557 449.71C489.79 454.764 496.919 475.556 494.526 481.302C494.356 481.901 493.99 482.354 493.445 482.665L493.403 482.629ZM399.265 371.328C400.096 373.647 400.954 376.019 401.875 378.416C405.886 388.766 413.009 393.168 420.917 396.066L418.93 396.031C410.255 393.528 402.445 389.162 398.679 377.468C397.953 375.087 397.296 372.768 396.655 370.47L399.265 371.328ZM422.037 396.437L422.708 396.668C422.142 396.63 421.577 396.598 421.022 396.587L420.298 396.398L422.037 396.437ZM423.385 396.502C424.119 396.545 424.843 396.583 425.53 396.677L426.259 396.955L424.161 396.826L423.385 396.502ZM427.738 397.509L428.277 397.708C427.717 397.629 427.131 397.56 426.555 397.497L425.936 397.313L427.738 397.509ZM429.588 397.778C430.465 397.935 431.332 398.098 432.161 398.334L432.52 398.475C431.759 398.307 431.025 398.191 430.201 398.013L429.588 397.778ZM455.949 420.022L456.285 421.325C457.619 426.546 458.995 431.944 462.265 436.407C464.412 439.192 466.998 441.493 470.035 443.305C466.396 441.674 463.318 439.336 460.796 436.285C457.389 431.801 456.171 426.163 454.986 420.729L454.681 419.349C453.869 414.998 451.983 411.162 449.028 407.829C450.764 409.483 452.231 411.345 453.417 413.414C454.608 415.489 455.477 417.683 456.023 420.002L455.949 420.022ZM454.327 419.431L454.631 420.807C455.807 426.293 457.034 431.972 460.505 436.524C463.159 439.732 466.4 442.174 470.24 443.847L469.986 443.816C465.84 442.08 461.963 440.162 459.036 436.402C455.428 431.829 454.364 425.947 453.332 420.247L453.081 418.773C452.422 414.335 450.604 410.41 447.634 407.009C449.386 408.679 450.842 410.572 451.996 412.688C453.15 414.804 453.95 417.045 454.401 419.405L454.327 419.431ZM471.926 444.063C468.255 442.073 465.141 439.448 462.567 436.194C459.35 431.788 457.973 426.427 456.65 421.232L456.314 419.929C455.279 415.454 453.166 411.544 449.974 408.2C453.705 411.633 456.262 415.762 457.655 420.598L458.028 421.885C459.511 426.82 461.041 431.942 464.1 436.285C466.362 439.325 469.059 441.918 472.201 444.069L471.926 444.063ZM452.774 418.814L453.046 420.289C454.073 426.035 455.147 431.959 458.808 436.616C461.277 439.557 464.302 441.765 467.873 443.239C463.853 441.769 460.214 439.904 457.339 436.488C453.551 431.842 452.641 425.699 451.763 419.771L451.491 418.146C451.251 415.937 450.694 413.811 449.815 411.768C448.94 409.72 447.781 407.843 446.34 406.137C449.423 408.996 451.7 412.974 452.774 418.814ZM473.004 444.211C469.688 441.976 466.827 439.274 464.433 436.098C461.411 431.802 459.892 426.711 458.419 421.797L458.041 420.526C456.674 415.659 454.133 411.483 450.418 408.008C454.577 411.624 457.541 416.03 459.308 421.215L459.798 422.607C461.249 427.395 463.287 431.93 465.913 436.21C468.033 439.219 470.513 441.905 473.352 444.274L473.004 444.211ZM432.326 397.938L431.829 397.729C432.426 397.881 433.013 398.069 433.594 398.284C433.16 398.143 432.727 398.022 432.294 397.912L432.326 397.938ZM430.497 397.55C429.647 397.387 428.801 397.255 427.913 397.145L427.121 396.841C428.072 396.957 428.997 397.1 429.901 397.278L430.497 397.55ZM425.769 396.318C417.898 393.212 410.447 388.914 405.912 379.12L404.153 375.274L402.92 372.584L405.403 373.52C406.678 375.731 407.933 377.941 409.166 380.157C414.026 388.925 421.149 393.254 428.538 396.677C427.582 396.488 426.673 396.372 425.742 396.292L425.769 396.318ZM403.788 375.398L405.542 379.26C409.935 388.726 416.979 393.101 424.516 396.207C423.755 396.154 422.994 396.121 422.233 396.089C414.045 393.274 406.435 388.996 402.324 378.276C401.435 375.978 400.609 373.706 399.766 371.449C400.633 371.732 401.494 372.009 402.334 372.318L403.788 375.398ZM399.672 371.053L399.588 370.819L398.656 368.26C399.433 368.605 400.193 368.965 400.959 369.336C401.365 370.181 401.781 371.036 402.15 371.885C401.32 371.576 400.48 371.304 399.619 371.053L399.672 371.053ZM399.223 370.896L396.56 370.074L395.872 367.557L395.725 367.026L398.128 368.051L399.223 370.896ZM396.191 369.938L393.512 369.137C393.286 368.053 393.045 366.99 392.867 365.896L395.344 366.843L395.56 367.645L396.191 369.938ZM395.662 366.573L394.884 363.733C395.587 364.099 396.289 364.48 397.007 364.887L398.076 367.571L395.662 366.573ZM395.218 366.405L392.783 365.469L392.578 364.807L392.106 362.38C392.851 362.725 393.59 363.085 394.33 363.466C394.677 364.436 394.924 365.4 395.187 366.379L395.218 366.405ZM392.123 361.921L391.546 359.108C392.227 359.5 392.887 359.912 393.537 360.335L394.251 362.982C393.517 362.606 392.788 362.25 392.065 361.926L392.123 361.921ZM391.706 361.744C390.934 361.388 390.168 361.074 389.413 360.766L389.011 357.744C389.729 358.1 390.426 358.476 391.097 358.868L391.706 361.744ZM388.895 357.291C388.765 356.343 388.666 355.353 388.477 354.442C389.1 354.818 389.702 355.235 390.32 355.658C390.54 356.57 390.75 357.482 390.955 358.388C390.279 358.012 389.598 357.641 388.895 357.291ZM388.551 357.535C388.698 358.572 388.871 359.557 388.954 360.619C388.161 360.306 387.369 360.018 386.576 359.756L386.37 356.537C387.115 356.856 387.87 357.165 388.551 357.535ZM388.995 361.036L389.167 362.422L389.371 364.334C388.504 364.067 387.643 363.805 386.766 363.564L386.549 360.183C387.4 360.435 388.208 360.717 388.995 361.036ZM389.537 362.365L389.391 361.177C390.163 361.486 390.934 361.82 391.71 362.16L392.24 364.854L392.318 365.286C391.478 364.972 390.628 364.69 389.804 364.423L389.537 362.365ZM392.397 365.703L393.052 368.985C392.138 368.734 391.23 368.498 390.295 368.273C390.127 367.121 389.976 365.98 389.882 364.871L392.397 365.703ZM393.126 369.381C393.624 371.799 394.154 374.242 394.811 376.681C398.1 389.066 405.741 393.578 414.548 395.936L413.28 395.939C403.436 394.028 394.679 389.826 391.652 375.733C391.127 373.362 390.724 370.976 390.394 368.622C391.324 368.894 392.238 369.145 393.147 369.402L393.126 369.381ZM395.176 376.588C394.503 374.264 394.015 371.851 393.543 369.507C394.462 369.769 395.355 370.046 396.285 370.35C396.974 372.695 397.631 375.133 398.398 377.561C402.08 388.927 409.441 393.397 417.704 396.004L416.049 396.006C406.845 393.762 398.602 389.463 395.192 376.608L395.176 376.588ZM422.961 397.1L424.224 397.181L424.631 397.317L423.368 397.195L422.961 397.1ZM428.99 398.204C429.392 398.262 429.793 398.325 430.195 398.403L430.269 398.477L429.064 398.272L428.99 398.204ZM451.11 418.254L451.382 419.88C452.271 425.871 453.192 432.06 457.037 436.779C459.47 439.611 462.447 441.679 465.971 442.976C461.855 441.902 458.375 439.797 455.542 436.662C451.575 431.943 450.829 425.546 450.077 419.383L449.874 417.679C449.19 412.116 447.442 408.207 444.957 405.38C447.986 408.083 450.232 412.175 451.152 418.223L451.11 418.254ZM479.508 448.752C480.548 449.442 481.52 450.214 482.428 451.064C488.534 456.85 495.143 475.09 493.332 481.092C493.209 481.566 492.966 481.977 492.611 482.325C492.961 481.774 493.178 481.175 493.264 480.529C494.289 474.161 488.76 457.465 482.633 451.435C481.667 450.506 480.643 449.645 479.561 448.852L479.508 448.752ZM493.733 481.171C495.577 475.08 488.894 456.611 482.735 450.768C482.202 450.241 481.647 449.751 481.061 449.281C481.579 449.62 482.091 449.97 482.582 450.356C489.513 455.742 496.105 475.388 494.008 481.119C493.843 481.645 493.541 482.077 493.097 482.409C493.394 482.035 493.606 481.624 493.733 481.171ZM493.815 482.874C494.339 482.531 494.71 482.068 494.927 481.485C496.11 478.654 495.169 472.22 492.559 465.086C490.443 459.322 486.77 452.181 482.795 449.487C481.543 448.625 480.223 447.884 478.839 447.257C480.171 447.785 481.449 448.427 482.668 449.185C490.314 453.978 497.875 475.646 495.228 481.616C494.984 482.256 494.534 482.693 493.884 482.932L493.815 482.874ZM478.359 446.99L478.206 446.849L478.396 446.912L478.359 446.99ZM473.955 444.322C470.978 441.869 468.382 439.079 466.156 435.945C463.552 431.691 461.529 427.182 460.089 422.414L459.594 421.039C455.132 408.412 445.758 403.558 435.813 398.47C427.574 394.243 419.056 389.87 412.955 380.71C411.573 378.64 410.245 376.726 408.926 374.901L411.181 375.858C412.849 377.704 414.516 379.655 416.22 381.772C422.313 389.328 429.811 393.84 437.071 398.269C446.761 404.154 455.928 409.694 460.861 421.749L461.52 423.391C463.151 427.779 465.169 431.985 467.567 436.02C469.555 438.997 471.803 441.772 474.309 444.343L473.955 444.322ZM412.696 380.933C418.491 389.541 426.312 393.97 434.054 397.972C432.712 397.48 431.339 397.103 429.933 396.841C422.116 393.37 414.527 389.071 409.431 379.886C408.277 377.785 407.091 375.716 405.899 373.651L408.292 374.614C409.753 376.59 411.182 378.701 412.696 380.933ZM405.055 372.937L402.657 372.021L401.498 369.556C402.242 369.917 402.982 370.282 403.727 370.679L405.055 372.937ZM401.229 369.019L400.16 366.767C400.772 367.159 401.395 367.556 402.008 367.979C402.461 368.677 402.904 369.365 403.331 370.069L401.229 369.019ZM400.69 368.768L398.462 367.744L397.504 365.154L399.537 366.376L400.69 368.768ZM397.288 364.601L396.409 362.329L398.14 363.629L399.205 365.735C398.566 365.348 397.921 364.972 397.277 364.612L397.288 364.601ZM396.781 364.309C396.094 363.922 395.397 363.551 394.716 363.201L393.98 360.643C394.614 361.066 395.237 361.478 395.839 361.912L396.781 364.309ZM393.801 360.085C393.565 359.267 393.307 358.47 393.044 357.683C393.551 358.127 394.063 358.586 394.59 359.05L395.549 361.328C394.984 360.889 394.403 360.482 393.791 360.096L393.801 360.085ZM393.321 359.783C392.682 359.386 392.059 358.989 391.388 358.602C391.204 357.727 390.994 356.847 390.79 355.956C391.376 356.373 391.951 356.817 392.521 357.271C392.827 358.094 393.058 358.954 393.315 359.793L393.321 359.783ZM390.199 355.121C389.602 354.714 389.006 354.323 388.404 353.962C388.268 353.113 388.169 352.295 387.974 351.415C388.471 351.853 389.009 352.208 389.558 352.662C389.768 353.49 389.989 354.309 390.188 355.127L390.199 355.121ZM387.854 350.852C387.702 350.076 387.529 349.284 387.371 348.534C387.846 348.956 388.342 349.4 388.754 349.906L389.09 350.963L389.374 352.016C388.836 351.588 388.355 351.249 387.843 350.862L387.854 350.852ZM386.959 348.33C387.127 349.049 387.258 349.773 387.426 350.476C386.93 350.033 386.339 349.735 385.768 349.364C385.653 348.489 385.565 347.661 385.387 346.76C385.883 347.198 386.358 347.62 386.912 348.111C386.912 348.194 386.922 348.272 386.943 348.351L386.959 348.33ZM385.308 346.291L385.209 345.645L384.894 344.066C385.332 344.457 385.765 344.844 386.155 345.323C386.381 346.079 386.565 346.798 386.749 347.48C386.264 347.068 385.788 346.646 385.271 346.291L385.308 346.291ZM384.844 345.722L384.886 345.983C384.337 345.581 383.835 345.205 383.238 344.819C383.192 344.22 383.151 343.631 383.093 343.058L382.999 342.37C383.474 342.793 383.97 343.231 384.435 343.643C384.555 344.357 384.697 345.071 384.78 345.753L384.844 345.722ZM382.905 341.782C382.8 341.032 382.675 340.297 382.539 339.568C382.982 339.964 383.356 340.418 383.752 340.856C383.947 341.58 384.173 342.32 384.288 342.961C383.797 342.554 383.37 342.178 382.868 341.782L382.905 341.782ZM382.418 338.906C382.282 338.265 382.145 337.624 381.982 336.999C382.309 337.39 382.626 337.792 382.927 338.198C383.148 338.824 383.332 339.423 383.516 340.038L382.418 338.906ZM381.943 338.483C381.494 338.087 381.062 337.701 380.623 337.315C380.54 336.596 380.425 335.835 380.273 335.043C380.706 335.429 381.064 335.888 381.439 336.321C381.591 337.045 381.754 337.749 381.917 338.478L381.943 338.483ZM380.217 336.949C378.533 335.619 376.717 334.501 374.762 333.602C352.294 323.395 322.796 332.963 297.95 341.996L294.591 340.746C320.285 329.953 350.303 318.959 372.845 329.677C375.438 330.942 377.75 332.586 379.793 334.6C379.923 335.423 380.039 336.204 380.159 336.97L380.217 336.949ZM373.03 329.323C350.24 318.47 319.963 329.651 294.163 340.558L290.819 339.235C317.516 326.543 348.308 314.019 371.187 325.414C374.329 327.013 377.021 329.163 379.253 331.87C379.426 332.578 379.583 333.271 379.698 333.995C377.709 332.091 375.47 330.541 372.972 329.344L373.03 329.323ZM371.25 325.076C348.113 313.581 317.051 326.318 290.254 339.047L286.905 337.687C298.644 331.523 311.212 325.413 323.66 321.355C342.698 315.156 357.619 315.106 369.349 321.135C373.056 323.079 376.086 325.766 378.432 329.202C378.632 329.811 378.806 330.431 378.974 331.036C376.795 328.553 374.219 326.565 371.25 325.076ZM289.894 339.213C288.339 339.945 286.805 340.682 285.293 341.419C284.162 341.073 283.031 340.712 281.896 340.341C283.44 339.515 284.996 338.679 286.572 337.858L289.894 339.213ZM284.822 341.642L281.368 343.303L280.516 343.713C279.364 343.451 278.234 343.173 277.098 342.895C278.537 342.127 279.975 341.343 281.451 340.553C282.571 340.946 283.691 341.297 284.811 341.652L284.822 341.642ZM276.553 342.759C275.412 342.487 274.276 342.193 273.13 341.884C274.601 341.027 276.098 340.139 277.616 339.266C278.741 339.658 279.861 340.025 280.971 340.391C279.468 341.206 278.003 342.001 276.543 342.77L276.553 342.759ZM276.056 343.029C275.998 343.097 275.876 343.133 275.781 343.18C274.448 343.881 273.136 344.587 271.84 345.299C270.683 345.104 269.541 344.889 268.4 344.673C269.067 344.273 269.728 343.894 270.395 343.494C271.056 343.094 271.908 342.606 272.723 342.097C273.753 342.51 274.926 342.751 276.051 343.04L276.056 343.029ZM270.2 343.187C269.411 343.644 268.623 344.106 267.851 344.563C266.699 344.343 265.557 344.106 264.416 343.855L264.839 343.59L268.86 341.112L272.242 342.049C271.501 342.418 270.845 342.807 270.194 343.197L270.2 343.187ZM264.618 343.287C264.375 343.459 264.136 343.604 263.883 343.765C246.541 340.05 230.879 333.911 216.193 322.69C174.53 291.082 176.471 236.361 178.192 188.077L178.403 181.609C178.591 176.057 178.938 170.386 179.302 164.371C180.035 152.314 180.789 139.847 180.242 128.08C179.946 121.819 179.623 115.402 178.914 109.193C180.029 115.674 180.706 122.164 181.251 128.337C182.279 139.99 182.117 152.172 181.946 163.958C181.862 170.052 181.784 175.812 181.876 181.349C181.897 184.833 181.965 188.255 182.013 191.745C182.25 215.355 182.507 239.777 187.842 262.186C193.114 284.32 202.807 301.471 217.364 314.389C219.517 316.304 221.787 318.131 224.168 319.874C237.625 329.515 252.361 336.554 268.374 340.991L264.618 343.287ZM173.721 117.471C172.923 120.751 172.167 123.844 171.55 126.603C169.176 136.891 165.612 148.333 161.771 160.385C159.45 167.751 157.102 175.299 154.864 183.004C147.322 209.237 139.594 239.912 139.316 268.589C139.08 300.614 148.033 324.488 166.669 341.71L167.878 342.78C170.971 345.613 174.297 348.149 177.855 350.4C181.409 352.65 185.138 354.568 189.041 356.168C192.939 357.762 196.954 359.008 201.081 359.9C205.207 360.792 209.382 361.32 213.6 361.482C221.131 361.807 228.611 361.324 236.034 360.028C234.981 360.548 233.918 361.077 232.844 361.596C207.861 367.338 181.683 366.286 158.726 344.552C118.637 306.624 132.551 241.807 151.444 183.415C154.195 174.919 157.131 166.591 159.972 158.522C164.033 147.039 167.856 136.181 170.562 126.471C171.269 123.769 172.23 120.797 173.16 117.548C174.197 114.05 175.302 110.297 176.36 106.35C175.492 110.281 174.551 114.066 173.721 117.471ZM237.276 359.827C238.117 359.693 238.936 359.569 239.819 359.368C238.883 359.783 237.931 360.203 236.953 360.582L234.388 361.291C235.382 360.783 236.319 360.315 237.276 359.827ZM238.519 359.199C239.498 358.701 240.482 358.186 241.46 357.672C242.428 357.559 243.422 357.452 244.358 357.297C243.39 357.754 242.406 358.2 241.39 358.615C240.375 359.03 239.518 359.086 238.498 359.22L238.519 359.199ZM245.621 357.101C246.467 356.988 247.313 356.869 248.175 356.714C247.307 357.072 246.424 357.415 245.504 357.809L242.976 358.362C243.854 357.942 244.732 357.542 245.605 357.122L245.621 357.101ZM246.79 356.561L248.287 355.845C248.811 355.601 249.34 355.325 249.884 355.061L252.866 354.763C251.835 355.199 250.793 355.64 249.724 356.081C248.725 356.267 247.752 356.427 246.769 356.577L246.79 356.561ZM253.23 355.014C253.511 354.9 253.807 354.749 254.098 354.625L256.725 354.306C255.821 354.648 254.911 354.965 254.007 355.359C253.102 355.753 252.267 355.705 251.384 355.86L253.23 355.014ZM255.245 354.121C256.356 353.618 257.504 353.073 258.684 352.512C259.698 352.456 260.734 352.422 261.739 352.361C260.57 352.854 259.422 353.305 258.322 353.715C257.275 353.88 256.255 354.014 255.23 354.137L255.245 354.121ZM263.88 351.869C264.917 351.423 265.985 350.951 267.08 350.468L270.225 350.452C269.146 350.862 268.083 351.251 267.047 351.614L263.88 351.869ZM267.895 350.094C269.048 349.565 270.222 349.03 271.423 348.465C272.522 348.555 273.59 348.656 274.731 348.694C273.562 349.166 272.404 349.628 271.267 350.058C270.125 350.098 269.005 350.112 267.874 350.115L267.895 350.094ZM275.571 348.737L278.737 348.893C277.648 349.256 276.564 349.613 275.517 349.95L272.35 350.107C273.371 349.64 274.461 349.204 275.556 348.752L275.571 348.737ZM276.381 348.41C277.587 347.922 278.808 347.409 280.035 346.89L283.296 347.306C282.09 347.742 280.9 348.162 279.721 348.566L276.381 348.41ZM284.136 347.412C285.161 347.523 286.176 347.66 287.217 347.771C286.096 348.092 284.98 348.403 283.88 348.708L280.699 348.672C281.83 348.241 282.973 347.837 284.12 347.433L284.136 347.412ZM284.924 347.127C286.125 346.696 287.341 346.25 288.579 345.804L291.812 346.424C290.591 346.797 289.38 347.16 288.185 347.502L284.924 347.127ZM293.372 346.354L297.147 345.219C298.22 345.512 299.282 345.795 300.338 346.057L296.6 346.937L293.372 346.354ZM301.094 346.277L302.526 346.628L304.121 347.022C302.916 347.223 301.742 347.408 300.569 347.578C299.596 347.426 298.629 347.278 297.657 347.11L297.488 347.079C298.688 346.846 299.851 346.614 301.083 346.288L301.094 346.277ZM302.648 346.306L301.871 346.101L304.097 345.584L305.779 345.186L308.964 346.279C307.674 346.501 306.379 346.707 305.094 346.919L302.648 346.306ZM309.698 346.536L312.778 347.535L309.088 347.878L305.997 347.144L309.698 346.536ZM310.317 346.438C332.934 342.744 358.523 338.629 379.752 346.766L380.719 347.19C380.712 348.257 380.705 349.325 380.666 350.382C360.444 343.475 336.857 345.48 316.003 347.28L313.45 347.474L310.317 346.438ZM316.034 347.65C336.893 345.86 360.507 343.809 380.66 350.778L380.523 354.122C362.043 348.634 341.995 348.707 322.581 348.78L317.491 348.824L314.422 347.835C314.94 347.773 315.479 347.717 316.023 347.66L316.034 347.65ZM381.02 350.904L381.479 351.055C382.076 351.27 382.652 351.521 383.238 351.767C383.268 352.829 383.288 353.907 383.296 354.97C382.504 354.703 381.696 354.472 380.898 354.232C380.953 353.133 380.986 352.018 381.02 350.904ZM383.217 355.334L383.28 355.392L383.302 358.064C383.296 358.298 383.301 358.548 383.312 358.782L380.733 358.065L380.811 355.94L380.855 354.643C381.663 354.858 382.44 355.078 383.217 355.334ZM383.699 358.033L383.687 355.507C384.458 355.779 385.234 356.067 385.969 356.375L386.18 359.631C385.805 359.5 385.435 359.364 385.05 359.249L383.676 358.83C383.666 358.627 383.703 358.314 383.699 358.033ZM384.938 359.603L386.211 360.021L386.216 360.146L386.428 363.438C385.546 363.192 384.647 362.962 383.728 362.773L383.691 359.273L384.938 359.603ZM389.465 364.714L389.925 368.173L388.498 367.806L387.082 367.434L386.802 363.892L389.465 364.714ZM388.408 368.16L389.982 368.569C390.333 370.997 390.73 373.424 391.266 375.863C394.173 389.305 402.168 393.89 411.393 395.978C411.144 395.983 410.896 395.988 410.642 395.971C400.068 394.434 390.703 390.403 388.064 374.957C387.655 372.602 387.369 370.216 387.161 367.846L388.408 368.16ZM415.372 396.375L416.001 396.381L416.165 396.418L415.451 396.391L415.372 396.375ZM449.552 417.653L449.744 419.367C450.49 425.592 451.257 432.025 455.293 436.839C457.725 439.583 460.698 441.525 464.206 442.671C462.209 442.22 460.328 441.488 458.554 440.474C456.785 439.456 455.206 438.204 453.824 436.717C449.688 431.914 449.064 425.282 448.477 418.88L448.321 417.01C447.77 411.322 446.117 407.34 443.69 404.493C446.65 407.315 448.758 411.438 449.531 417.632L449.552 417.653ZM482.513 454.085L482.107 453.449L482.276 453.595C486.869 460.347 491.25 473.698 491.493 480.548C490.033 471.212 487.034 462.384 482.491 454.07L482.513 454.085ZM481.833 452.428L482.314 452.991C487.631 459.739 492.659 475.19 491.857 481.303C491.994 474.496 487.444 460.598 482.561 453.419C482.276 453.095 482.05 452.741 481.812 452.407L481.833 452.428ZM482.61 452.768C482.241 452.304 481.85 451.871 481.465 451.422C481.787 451.709 482.114 452.001 482.373 452.351C488.377 459.001 493.994 476.635 492.131 481.809C493.224 475.847 488.075 459.698 482.589 452.752L482.61 452.768ZM491.004 468.885C488.917 461.835 485.666 455.481 482.685 452.091C482.131 451.481 481.577 450.917 480.98 450.375C481.477 450.808 481.967 451.246 482.469 451.689C488.548 457.642 494.056 474.109 492.994 480.446C492.919 481.003 492.744 481.529 492.469 482.023C493.456 479.363 492.424 473.716 490.925 468.854L491.004 468.885ZM494.354 483.094C494.952 482.777 495.375 482.309 495.63 481.695C498.293 475.652 490.732 453.671 482.88 448.799C481.513 447.974 480.081 447.285 478.587 446.72C480.018 447.217 481.402 447.834 482.728 448.56C490.76 453.088 498.71 475.674 495.852 481.784C495.549 482.46 495.041 482.897 494.317 483.094L494.354 483.094ZM478.185 446.506L477.921 446.406L478.196 446.495L478.185 446.506ZM419.865 382.653C425.291 387.88 431.161 392.577 437.47 396.738C447.428 403.738 456.831 410.336 462.568 422.382L463.716 424.837C465.417 428.631 467.309 432.332 469.402 435.934C471.268 438.911 473.288 441.789 475.456 444.564L475.001 444.49C472.389 441.819 470.042 438.941 467.964 435.854C465.555 431.829 463.532 427.628 461.9 423.245L461.242 421.599C456.256 409.429 447.068 403.821 437.283 397.941C430.065 393.56 422.572 389.022 416.537 381.517C415.023 379.656 413.546 377.908 412.069 376.25L414.034 377.164C416.066 378.98 417.981 380.77 419.828 382.653L419.865 382.653ZM411.488 375.598L410.449 374.466L411.832 375.317L412.999 376.35C412.476 376.073 411.974 375.817 411.451 375.598L411.488 375.598ZM410.649 375.232L408.583 374.354L407.259 372.643L409.292 373.823L410.649 375.232ZM406.7 371.851L405.661 370.526C406.226 370.928 406.765 371.335 407.298 371.737L408.343 372.806C407.783 372.514 407.255 372.185 406.695 371.877L406.7 371.851ZM405.882 371.417C405.253 371.083 404.625 370.733 403.986 370.414C403.612 369.783 403.2 369.158 402.794 368.522L404.12 369.419L404.526 369.785L405.882 371.417ZM401.544 367.217L399.838 366.121L398.858 364.213L400.394 365.455L401.544 367.217ZM397.761 362.889C397.265 362.45 396.731 362.095 396.14 361.678C395.866 360.985 395.624 360.317 395.303 359.598L396.638 360.887C396.997 361.554 397.429 362.18 397.745 362.894L397.761 362.889ZM394.264 358.211L392.908 357.006C392.687 356.339 392.392 355.646 392.197 355.005C392.646 355.401 393.057 355.855 393.469 356.309L394.264 358.211ZM391.855 354.233L391.592 353.478L391.302 352.774C391.571 353.113 391.851 353.447 392.12 353.807C392.389 354.167 392.631 354.766 392.868 355.256C392.509 354.901 392.177 354.552 391.834 354.233L391.855 354.233ZM391.2 353.654C390.736 353.242 390.293 352.845 389.844 352.449C389.691 351.902 389.565 351.37 389.397 350.839L389.287 350.464L390.458 351.799L391.2 353.654ZM389.055 349.755L388.571 348.353L389.352 349.427L389.974 350.673L389.055 349.755ZM388.411 349.186C387.984 348.805 387.556 348.424 387.129 348.049C386.998 347.444 386.835 346.814 386.651 346.147C386.994 346.559 387.358 346.95 387.706 347.378C388.038 347.884 388.264 348.499 388.507 349.061L388.411 349.186ZM386.409 345.24L385.936 343.833C386.194 344.183 386.437 344.553 386.695 344.923L387.232 346.164C387.085 345.804 386.752 345.46 386.467 345.152L386.409 345.24ZM385.818 344.614L384.668 343.488C384.537 342.862 384.39 342.232 384.216 341.575C384.559 341.987 384.886 342.399 385.208 342.822C385.492 343.353 385.692 343.942 385.882 344.526L385.818 344.614ZM384.038 340.794C383.901 340.325 383.764 339.84 383.596 339.345L384.213 340.273L384.813 341.712L384.038 340.794ZM382.447 337.166C382.162 336.916 381.978 336.561 381.735 336.269L381.351 334.962C381.578 335.306 381.773 335.65 381.984 335.994C382.2 336.338 382.326 336.64 382.458 337.036L382.447 337.166ZM381.155 335.633L380.094 334.543C379.979 333.933 379.848 333.313 379.701 332.683C380.033 333.09 380.339 333.502 380.629 333.919C380.829 334.357 381.003 334.93 381.165 335.508L381.155 335.633ZM379.49 331.818L379.112 330.442C379.291 330.724 379.492 331.005 379.666 331.297L380.234 332.757L379.49 331.818ZM378.011 328.185C375.732 325.135 372.903 322.714 369.523 320.927C357.715 314.83 342.682 314.9 323.576 321.162C311.027 325.272 298.342 331.445 286.504 337.645C285.389 337.19 284.275 336.719 283.165 336.238C310.86 320.428 344.195 304.439 367.658 317.018C371.941 319.431 375.255 322.775 377.606 327.044C377.743 327.268 377.874 327.664 378.022 328.055L378.011 328.185ZM286.123 337.79C284.541 338.621 282.959 339.467 281.394 340.293L278.018 339.157C279.6 338.233 281.198 337.313 282.822 336.384L286.123 337.79ZM277.558 338.985C276.444 338.608 275.324 338.2 274.225 337.766C275.839 336.753 277.468 335.735 279.109 334.732L282.415 336.175C280.791 337.026 279.167 337.94 277.569 338.86L277.558 338.985ZM277.135 339.239C275.601 340.127 274.083 341.016 272.601 341.883C271.465 341.59 270.329 341.275 269.204 340.945C270.717 339.984 272.236 339.013 273.77 338.067C274.911 338.34 276.037 338.727 277.135 339.099L277.135 339.239ZM268.686 340.783C252.641 336.31 237.89 329.224 224.433 319.526C183.459 289.664 182.923 237.616 182.435 191.688C182.393 188.188 182.378 184.709 182.309 181.282C182.228 175.75 182.295 170.006 182.368 163.902C182.562 152.147 182.692 139.923 181.664 128.234C181.124 122.035 180.426 115.471 179.321 108.964C180.775 115.425 181.896 121.937 182.678 128.511C184.092 140.024 184.534 151.822 184.96 163.166C185.177 169.463 185.395 175.427 185.772 181.048C186.087 185.73 186.359 190.548 186.637 195.21C187.933 217.78 189.271 241.1 195.342 262.292C202.202 286.287 214.32 304.077 232.418 316.715C245.143 325.48 258.8 332.481 273.39 337.718C271.798 338.746 270.258 339.718 268.687 340.648L268.686 340.783ZM74.0979 41.6206C99.5203 25.4889 132.208 7.66565 159.568 13.0788C172.344 15.6146 180.71 22.6591 184.577 34.1496C187.733 43.6442 187.845 56.4621 184.892 72.2804C183.709 78.5754 182.134 84.9115 180.391 91.0389C181.695 85.2649 182.872 79.2772 183.654 73.3461C185.628 58.0472 184.701 46.1863 180.809 37.1333C176.264 26.5792 167.501 20.1174 154.782 17.9306C128.192 13.3676 96.6165 30.1718 72.0941 45.331C50.402 58.8643 30.0559 76.9259 8.65262 101.663C30.6982 75.1665 51.6805 55.9289 74.0979 41.6206ZM9.26251 100.367C31.6166 72.6419 52.9914 52.5351 75.9013 37.587C102.33 20.4934 136.171 1.57817 164.428 7.87812C173.542 9.93422 180.269 14.3303 184.503 21.0349C191.267 31.7175 191.938 48.604 186.437 71.2776C184.894 77.7231 182.976 84.1107 180.931 90.2533C182.584 84.407 184.068 78.3781 185.193 72.3746C188.226 56.4731 188.119 43.5875 184.931 34.0304C181.06 22.4513 172.561 15.2556 159.642 12.7299C132.145 7.27493 99.3994 25.1033 73.8869 41.313C51.7446 55.4498 30.9901 74.3857 9.26251 100.367ZM72.2944 45.649C96.7164 30.4845 128.218 13.7427 154.713 18.295C167.299 20.4556 175.963 26.8495 180.465 37.2785C184.32 46.243 185.258 58.0466 183.268 73.283C182.407 79.6306 181.229 85.9204 179.723 92.1472C180.8 86.2323 181.549 80.2803 181.982 74.2914C183.009 60.0066 181.219 48.535 176.692 40.2361C171.496 30.7018 162.503 24.9688 149.906 23.1312C123.96 19.3818 93.7332 35.1881 70.2906 49.3646C49.1864 62.1385 29.2382 79.2788 8.14865 102.829C29.7904 77.6599 50.3855 59.3018 72.2944 45.649ZM70.491 49.6826C93.8701 35.5165 124.065 19.809 149.852 23.4957C173.383 26.9027 183.785 43.5182 181.675 74.2753C181.195 80.5923 180.366 86.8618 179.182 93.0891C179.942 87.1892 180.353 81.268 180.416 75.3254C180.485 61.7838 177.822 50.9983 172.58 43.3286C166.743 34.8193 157.485 29.7682 145.035 28.337C119.891 25.4483 90.9186 40.2097 68.4871 53.3982C47.8756 65.5166 28.3622 81.7253 7.62885 103.979C28.9992 79.9867 49.154 62.5967 70.491 49.6826ZM68.6875 53.7162C91.0397 40.538 119.948 25.8234 145.002 28.7068C168.672 31.437 180.133 46.6843 180.003 75.3768C179.93 81.5903 179.476 87.777 178.637 93.9372C179.069 88.0837 179.11 82.2296 178.76 76.3696C177.929 63.5037 174.43 53.4617 168.442 46.4106C161.995 38.9576 152.52 34.5833 140.169 33.5481C115.78 31.4991 88.0829 45.2313 66.689 57.4162C46.5436 68.8895 27.4545 84.1614 7.1303 105.062C28.1179 82.428 47.8326 65.9644 68.6875 53.7162ZM66.8735 57.7342C88.2674 45.5336 115.848 31.8898 140.153 33.9126C164.109 35.9297 176.624 49.8089 178.427 76.3483C178.787 82.5624 178.719 88.7706 178.228 94.9782C178.322 89.0669 177.972 83.1861 177.183 77.3255C175.432 65.2185 171.096 55.8575 164.283 49.4977L163.623 48.9081C156.73 42.7931 147.205 39.3769 135.293 38.7695C111.642 37.5498 85.2419 50.2476 64.8855 61.4498C45.4602 72.1378 26.298 86.847 6.51002 106.243C27.1574 84.8849 46.4794 69.3686 66.8735 57.7342ZM65.07 61.7678C85.3788 50.5968 111.71 37.9197 135.255 39.1549C159.657 40.3966 173.242 52.913 176.781 77.403C177.586 83.4043 177.941 89.4361 177.831 95.488C177.544 89.7167 176.787 84.0072 175.553 78.3594C172.939 66.9385 167.752 58.2793 160.161 52.5641C152.738 47.042 142.695 44.1979 130.438 43.9598C107.431 43.6004 82.3534 55.2743 63.0821 65.4782C44.1282 75.5159 25.4698 89.1739 6.15452 107.107C26.1544 87.4249 45.4701 72.5493 65.07 61.7678ZM63.2666 65.8014C82.4903 55.6235 107.515 43.9704 130.406 44.3087C155.39 44.7024 170.023 55.8402 175.173 78.3692C176.469 84.3348 177.236 90.3672 177.486 96.4666C176.824 90.6166 175.622 84.8751 173.882 79.2473C167.213 58.3878 151.388 48.5346 125.504 49.1082C102.817 49.6088 77.9521 60.9496 61.2048 69.4231C42.7274 78.9147 24.504 91.5578 5.71436 108.033C25.2362 89.7985 44.1063 75.9481 63.2666 65.8014ZM61.4578 69.8402C78.1258 61.3978 102.97 50.0361 125.582 49.5406C151.276 48.9719 166.937 58.7884 173.586 79.4135C175.373 85.2393 176.585 91.1839 177.22 97.237C176.188 91.4229 174.559 85.7797 172.337 80.3022C164.307 61.1853 147.417 52.7054 120.701 54.3767C98.4523 55.7685 75.1006 65.9764 59.4857 73.535C41.279 82.3291 23.5013 93.926 5.27955 108.913C24.2864 92.1616 42.7056 79.347 61.4578 69.8402ZM59.6438 73.8634C75.2902 66.3673 98.5363 56.1385 120.722 54.7413C147.263 53.0854 164.031 61.4921 171.982 80.437C174.283 86.1386 175.944 92.0162 176.965 98.07C175.531 92.2343 173.437 86.6373 170.686 81.2787C169.511 78.98 168.124 76.8163 166.516 74.7878C164.907 72.7592 163.113 70.9074 161.133 69.2324C159.148 67.5573 157.015 66.0956 154.739 64.8368C152.463 63.578 150.081 62.5586 147.593 61.7682C138.987 58.9265 128.597 58.2121 115.825 59.5617C99.2522 61.3167 80.2256 67.198 57.6717 77.5373C38.6775 86.3667 20.9432 97.198 4.45854 110.021C23.0244 94.7012 41.1144 82.8184 59.6438 73.8634ZM153.225 350.225C152.312 349.411 151.383 348.587 150.502 347.685C132.115 329.838 124.179 305.101 126.245 272.063C128.191 241.071 138.608 208.52 147.58 183.675C151.094 174.06 154.687 164.686 158.211 155.66C162.329 145.094 166.251 135.069 169.219 126.303C170.016 123.892 170.998 121.087 172.023 118.135C173.292 114.496 174.699 110.441 176.112 106.162C174.99 110.14 173.869 113.966 172.78 117.506C171.829 120.718 170.925 123.764 170.187 126.434C167.465 136.149 163.69 147.007 159.607 158.459C156.756 166.522 153.815 174.862 151.069 183.362C132.154 241.817 118.251 306.717 158.456 344.833C159.142 345.443 159.823 346.048 160.493 346.643C182.608 366.277 207.454 367.535 231.379 362.292L228.824 363.491C204.087 370.525 176.866 371.211 153.225 350.225ZM226.619 364.461C225.815 364.819 225.011 365.162 224.207 365.504C197.49 374.53 167.804 376.233 142.294 350.812C123.998 332.596 116.537 307.396 119.487 273.797C122.324 241.411 134.688 207.014 143.737 183.955C148.221 172.514 152.831 161.719 157.282 151.284C161.15 142.227 164.789 133.686 167.782 126.05C168.578 124.02 169.512 121.694 170.499 119.226C172.128 115.177 173.933 110.659 175.758 105.782C174.303 110.16 172.886 114.251 171.638 117.983C170.65 120.987 169.631 123.735 168.823 126.156C165.876 135.016 161.991 144.979 157.878 155.54C154.37 164.555 150.719 173.898 147.252 183.575C138.317 208.467 127.821 241.018 125.891 272.062C124.925 287.529 126.219 301.464 129.742 313.501C131.586 320.024 134.246 326.211 137.725 332.05C141.199 337.894 145.377 343.197 150.258 347.971C151.182 348.878 152.137 349.76 153.108 350.621C156.28 353.532 159.706 356.121 163.387 358.377C167.073 360.633 170.939 362.519 174.99 364.036C179.042 365.558 183.205 366.679 187.48 367.399C191.755 368.12 196.057 368.434 200.391 368.331C209.303 368.168 218.047 366.875 226.619 364.461ZM232.865 361.997L234.689 361.558C234.186 361.765 233.668 361.983 233.144 362.19C232.616 362.403 231.785 362.621 231.093 362.817C231.68 362.558 232.277 362.272 232.865 361.997ZM239.316 359.981C240.014 359.68 240.702 359.369 241.405 359.063L243.208 358.686L241.077 359.479L239.316 359.981ZM247.925 357.219C248.56 356.97 249.174 356.721 249.798 356.462L251.648 356.126L249.85 356.748L247.925 357.219ZM256.455 354.816L258.147 354.199L258.401 354.095C259.035 354.018 259.659 353.93 260.288 353.832C259.627 354.04 258.961 354.231 258.305 354.428L256.455 354.816ZM268.521 351.507C269.431 351.165 270.362 350.817 271.24 350.454L274.137 350.386C273.179 350.681 272.259 350.955 271.35 351.225L268.521 351.507ZM276.87 349.916C277.822 349.605 278.774 349.299 279.726 348.988L282.595 349.097L279.714 349.842L276.87 349.916ZM287.754 348.819L285.154 348.762L288.195 347.897L291.017 348.178C289.97 348.395 288.944 348.612 287.918 348.814L287.754 348.819ZM292.216 348.31C292.375 348.31 292.523 348.337 292.687 348.347L294.483 348.501L291.993 348.82L289.737 348.827L292.216 348.31ZM293.432 348.036L296.568 347.353L297.598 347.542L299.368 347.832C298.295 347.986 297.232 348.151 296.165 348.295C295.224 348.174 294.341 348.115 293.432 348.036ZM301.784 347.81L305.088 347.273L307.846 347.991L304.648 348.236C303.697 348.083 302.735 347.962 301.784 347.81ZM309.061 348.253L311.365 348.773L308.765 348.753L306.45 348.437L309.061 348.253ZM310.277 348.156L313.639 347.865L316.465 348.796L313.13 348.786L310.277 348.156ZM317.612 349.158L319.926 349.911L317.215 349.652L314.911 349.169L317.612 349.158ZM318.595 349.159L322.596 349.145C342.026 349.061 362.063 348.999 380.512 354.497L380.457 355.903L380.374 357.924C364.07 353.606 346.936 352.173 330.289 350.792C327.287 350.537 324.323 350.298 321.395 350.039L318.595 349.159ZM330.273 351.178C346.92 352.558 364.075 353.991 380.363 358.314C380.314 359.486 380.285 360.653 380.257 361.84C367.466 358.684 354.382 356.393 341.674 354.175C336.1 353.192 330.662 352.251 325.32 351.248L323.08 350.562L330.273 351.178ZM380.733 358.414C381.605 358.649 382.476 358.89 383.332 359.147L383.369 362.647L380.621 361.94L380.733 358.414ZM383.379 363.017C383.409 364.204 383.449 365.387 383.484 366.579L380.599 365.887C380.58 364.716 380.593 363.528 380.631 362.33L383.379 363.017ZM383.764 363.116L386.485 363.798C386.558 364.97 386.656 366.152 386.765 367.34L384.636 366.821L383.917 366.648C383.824 365.476 383.789 364.299 383.764 363.116ZM384.482 367.222L386.749 367.777C386.972 370.189 387.248 372.622 387.678 375.034C390.187 389.392 398.393 394.093 407.957 395.926C396.69 394.783 386.76 390.856 384.487 374.138C384.168 371.794 383.987 369.434 383.901 367.085L384.482 367.222ZM447.93 417.098L448.085 418.968C448.678 425.438 449.275 432.152 453.538 437.013C455.886 439.627 458.748 441.449 462.134 442.48C460.2 442.076 458.373 441.396 456.651 440.44C454.929 439.484 453.399 438.294 452.048 436.87C447.711 431.994 447.246 425.139 446.802 418.503C446.766 417.831 446.709 417.159 446.657 416.503C446.228 410.627 444.633 406.525 442.211 403.652C445.251 406.365 447.279 410.628 447.909 417.041L447.93 417.098ZM490.992 479.901C489.113 471.236 486.288 462.883 482.506 454.846C486.696 462.748 489.526 471.102 490.992 479.901ZM494.877 483.345C495.538 483.012 495.999 482.508 496.269 481.826C499.17 475.633 491.12 452.714 482.982 448.128C481.53 447.318 480.019 446.654 478.434 446.136L478.376 446.084C479.919 446.529 481.398 447.115 482.829 447.836C491.121 452.057 499.588 475.555 496.576 481.873C496.247 482.654 495.665 483.132 494.829 483.303L494.877 483.345ZM477.996 446.021L477.658 445.911L477.61 445.869C477.695 445.947 477.843 445.922 477.953 445.969L477.996 446.021ZM477.336 445.437L477.236 445.348L477.648 445.437L477.706 445.489L477.336 445.437ZM414.467 377.014L414.335 376.894L414.209 376.779L414.467 377.014ZM409.747 373.652L409.61 373.532L409.399 373.345L409.747 373.652ZM405.356 369.875L404.859 369.52L404.501 369.082L405.356 369.875ZM400.97 365.477L400.696 365.237L400.438 364.867L400.97 365.477ZM396.961 360.689L396.808 360.413L397.183 360.903L396.961 360.689ZM393.908 356.33L393.744 356.184L393.639 355.955L393.908 356.33ZM390.907 351.727L390.86 351.685L390.802 351.633L390.907 351.727ZM388.193 347.134L388.135 347.082L388.066 347.024L388.193 347.134ZM385.726 342.692L385.61 342.588L385.526 342.374L385.726 342.692ZM365.863 312.614C368.276 314.014 370.414 315.746 372.266 317.812C374.123 319.882 375.6 322.187 376.706 324.72C374.433 321.263 371.478 318.524 367.834 316.497C344.143 303.783 310.56 319.969 282.748 335.868L279.431 334.394C308.043 316.835 342.094 299.368 365.895 312.578L365.863 312.614ZM187.763 161.967C188.339 168.666 188.894 174.98 189.604 180.845C190.314 186.706 190.996 192.79 191.574 198.619C195.713 238.089 199.988 278.758 230.364 305.728C233.599 308.587 237.015 311.217 240.621 313.614C252.723 321.602 265.413 328.544 278.691 334.434C277.035 335.458 275.39 336.471 273.776 337.484C259.123 332.237 245.407 325.21 232.636 316.403C192.357 288.292 189.641 240.96 187.012 195.201C186.75 190.528 186.462 185.7 186.142 181.033C185.781 175.407 185.557 169.453 185.324 163.146C184.925 151.754 184.542 139.921 183.048 128.491C182.302 122.631 181.324 116.082 179.817 109.476C184.633 125.931 186.263 144.673 187.763 161.967ZM77.7153 33.5638C105.028 15.4039 140.134 -4.5041 169.278 2.66704C178.947 5.04172 185.799 10.2453 189.677 18.1212C198.454 35.9529 191.051 64.5974 181.763 89.0723C183.664 83.3201 185.428 77.3646 186.86 71.3408C192.335 48.6099 191.658 31.614 184.841 20.8532C180.513 14.0442 173.686 9.56465 164.513 7.51888C136.124 1.18747 102.129 20.0972 75.7221 37.3054C53.0925 52.0509 31.9296 71.8768 9.85653 99.0762C32.5297 70.1069 54.334 49.0997 77.7153 33.5638ZM57.8403 77.8918C80.3782 67.5941 99.3467 61.7127 115.872 59.9524C143.335 57.0375 161.168 64.0605 170.369 81.4657C173.151 86.8868 175.256 92.5464 176.69 98.4497C174.828 92.7541 172.294 87.3698 169.088 82.2918C167.649 80.0656 165.998 78.0057 164.14 76.1069C162.277 74.2081 160.251 72.5122 158.044 71.0139C155.837 69.5156 153.508 68.2515 151.041 67.2112C148.58 66.176 146.038 65.3907 143.418 64.8553C134.52 62.8308 123.896 62.814 110.965 64.7988C94.5492 67.3092 76.0092 72.9674 55.9212 81.5502C37.8375 89.4382 20.7448 99.0466 4.64298 110.375C21.1224 97.5524 38.8513 86.7211 57.8403 77.8918ZM139.221 67.9425C129.979 66.6674 119.148 67.3326 106.088 69.9994C88.0008 73.7468 70.4074 79.0679 53.3084 85.9731C36.2041 92.8784 19.8745 101.243 4.31945 111.078C20.543 99.6036 37.7786 89.8861 56.0369 81.9254C76.1671 73.3687 94.6385 67.6688 111.022 65.1582C139.851 60.7351 158.194 66.2381 168.766 82.4892C172.05 87.6924 174.621 93.2225 176.472 99.0692C174.177 93.3937 171.156 88.118 167.411 83.2423C160.781 74.7943 151.275 69.6282 139.221 67.9425ZM134.086 353.94C112.028 331.452 106.345 298.313 116.666 252.626C125.364 214.077 144.276 173.482 158.092 143.821C161.083 137.399 163.905 131.325 166.387 125.798L168.583 120.973C170.609 116.549 173.028 111.246 175.553 105.391C173.658 110.33 171.801 114.958 170.114 119.033C169.121 121.5 168.182 123.837 167.391 125.857C164.425 133.467 160.769 142.024 156.902 151.085C152.44 161.526 147.83 172.321 143.346 183.767C134.255 206.888 121.922 241.275 119.122 273.749C117.744 289.492 118.731 303.692 122.026 315.957C123.728 322.58 126.276 328.865 129.671 334.824C133.065 340.777 137.19 346.19 142.045 351.062C143.238 352.241 144.425 353.368 145.639 354.443C148.853 357.401 152.332 360.016 156.076 362.282C159.825 364.554 163.76 366.43 167.891 367.921C172.022 369.406 176.259 370.475 180.608 371.123C184.957 371.77 189.323 371.986 193.715 371.769C202.812 371.372 211.694 369.797 220.362 367.05C193.241 377.617 161.03 381.451 134.086 353.94ZM228.712 363.944L228.781 363.866L228.898 363.835C228.829 363.871 228.76 363.897 228.681 363.918L228.712 363.944ZM271.46 351.637L271.524 351.569L271.65 351.564L271.46 351.637ZM279.798 350.212L280.368 350.187C280.02 350.239 279.692 350.275 279.348 350.321C279.496 350.259 279.639 350.212 279.798 350.176L279.798 350.212ZM287.368 349.344L287.96 349.23L288.626 349.231L287.368 349.344ZM295.598 348.763L296.206 348.681L296.835 348.718L295.598 348.763ZM303.891 348.677L304.642 348.627L305.244 348.716L303.891 348.677ZM312.316 349.217L313.061 349.223L313.811 349.386L312.316 349.217ZM320.649 350.412L321.606 350.502L322.472 350.764L320.649 350.412ZM328.601 352.274C332.865 353.057 337.187 353.814 341.605 354.581C354.334 356.799 367.407 359.059 380.277 362.293C380.249 363.481 380.237 364.668 380.245 365.85C362.646 361.474 345.417 357.202 328.606 352.227L328.601 352.274ZM380.931 373.336C380.686 371.007 380.606 368.648 380.593 366.299L383.478 366.991C383.591 369.392 383.761 371.799 384.091 374.185C386.113 388.98 393.98 393.883 403.523 395.679C392.288 394.635 382.706 390.443 380.936 373.289L380.931 373.336ZM450.266 436.951C445.766 432.006 445.449 424.912 445.138 418.031L445.035 415.896C444.712 409.786 443.154 405.559 440.717 402.634C443.762 405.493 445.785 409.84 446.276 416.497L446.421 418.497C446.87 425.201 447.346 432.123 451.757 437.094C454.115 439.65 456.982 441.399 460.358 442.342C458.43 441.979 456.607 441.336 454.88 440.406C453.159 439.476 451.623 438.312 450.272 436.904L450.266 436.951ZM482.426 455.642C485.986 463.304 488.685 471.257 490.528 479.483C488.094 471.042 485.395 463.074 482.436 455.596L482.426 455.642ZM496.309 483.263C496.018 483.451 495.706 483.565 495.363 483.606C496.087 483.3 496.606 482.785 496.908 482.067C499.968 475.665 491.406 451.844 482.999 447.55C481.451 446.771 479.835 446.149 478.16 445.683L478.097 445.625C479.735 446.018 481.325 446.563 482.862 447.258C489.569 450.367 496.938 466.494 497.805 476.761C498.111 480.1 497.627 482.323 496.315 483.217L496.309 483.263Z" fill="#222222"/>
</svg>
