<svg width="466" height="610" viewBox="0 0 466 610" fill="none" xmlns="http://www.w3.org/2000/svg">
<mask id="mask0_20_121" style="mask-type:luminance" maskUnits="userSpaceOnUse" x="-159" y="71" width="685" height="523">
<path d="M-37.2442 71.2332L525.193 327.335L403.773 593.995L-158.665 337.889L-37.2442 71.2332Z" fill="white"/>
</mask>
<g mask="url(#mask0_20_121)">
<mask id="mask1_20_121" style="mask-type:luminance" maskUnits="userSpaceOnUse" x="-159" y="71" width="685" height="523">
<path d="M-37.2442 71.2332L525.193 327.335L403.773 593.995L-158.665 337.889L-37.2442 71.2332Z" fill="white"/>
</mask>
<g mask="url(#mask1_20_121)">
<path d="M462.985 453.856C459.442 445.169 447.635 430.978 439.773 429.915C437.993 429.705 436.21 429.659 434.427 429.788C411.313 404.109 385.645 388.982 356.942 384.106C355.132 383.539 353.296 382.997 351.397 382.512C349.722 381.75 347.949 381.128 346.136 380.486C344.212 379.469 342.286 378.534 340.347 377.664C339.176 376.907 338.007 376.177 336.811 375.461L335.303 374.608C334.868 374.281 334.475 373.935 334.033 373.604C332.976 372.812 331.9 372.08 330.803 371.371C329.407 370.123 328.014 369.01 326.595 368.036C325.31 366.78 323.962 365.599 322.546 364.499C321.383 363.264 320.145 362.103 318.834 361.024C317.638 359.702 316.365 358.465 315.011 357.301C313.966 356.095 312.849 354.956 311.657 353.889C310.542 352.547 309.337 351.283 308.048 350.099C307.033 348.867 305.943 347.709 304.78 346.616C301.114 342.019 296.071 337.784 289.319 336.362C262.717 330.772 235.792 357.776 214.104 383.185C199.829 381.468 185.8 378.572 172.008 374.503C126.843 361.123 108.895 319.686 91.5169 279.615C89.1662 274.201 86.7528 268.605 84.3173 263.234C81.8785 257.869 79.5171 252.022 76.907 245.799C69.4882 227.903 61.406 208.365 50.257 193.366L49.8817 192.971L49.5734 192.32L49.3442 191.764L49.0857 190.993L49.0994 190.776L48.9322 189.966L48.8669 189.55L48.7908 188.908C48.7895 188.695 48.7752 188.476 48.7609 188.256C48.7481 188.042 48.7646 187.851 48.755 187.647C48.7469 187.447 48.7838 187.026 48.7843 186.715C50.8921 158.811 50.4457 124.027 35.2907 107.972C29.1536 101.471 21.0174 98.5465 11.1233 99.1492C-18.5787 100.964 -45.6305 130.449 -65.8806 155.935C-85.4165 180.515 -100.914 211.136 -114.795 252.238L-114.654 252.303C-114.683 252.351 -114.706 252.401 -114.726 252.457L-114.594 252.514C-114.615 252.569 -114.637 252.62 -114.666 252.667L-114.525 252.732L-114.592 252.884L-114.451 252.949C-114.469 252.998 -114.493 253.044 -114.516 253.09L-114.376 253.155L-114.441 253.295L-114.289 253.362C-114.289 253.362 -114.33 253.457 -114.354 253.503L-114.2 253.575L-114.259 253.702L-114.107 253.769C-114.107 253.769 -114.146 253.852 -114.163 253.901L-113.998 253.975C-114.024 254.016 -114.044 254.055 -114.061 254.104L-113.909 254.171C-113.909 254.171 -113.944 254.253 -113.959 254.29L-113.794 254.364C-113.808 254.407 -113.828 254.446 -113.85 254.48L-113.672 254.561C-113.672 254.561 -113.705 254.631 -113.729 254.677L-113.55 254.757L-113.597 254.853L-113.306 255.084C-101.425 240.438 -88.2868 227.035 -73.8798 214.871C-59.4713 202.712 -44.0501 192.003 -27.6198 182.752C-11.3244 173.592 12.9246 162.971 33.507 177.239C39.0166 181.169 43.8467 185.804 47.9941 191.151C47.304 199.223 46.4469 206.574 45.7526 212.513C45.5203 214.415 45.3152 216.177 45.1427 217.766C44.4752 223.773 43.6406 230.395 42.7646 237.407C38.7242 269.795 33.1916 314.149 36.5847 353.515C38.4551 374.95 42.8671 393.163 49.656 407.769C57.5254 424.666 68.9973 437.287 83.6716 445.244C85.4292 446.198 87.1816 447.067 88.9532 447.875C92.9232 449.773 97.0439 451.246 101.324 452.287C105.598 453.33 109.937 453.916 114.338 454.056C118.732 454.193 123.099 453.88 127.437 453.107C131.769 452.335 135.976 451.128 140.056 449.486C150.535 445.495 161.188 438.845 172.34 429.336C174.691 427.576 177.077 425.735 179.515 423.73C181.648 422.213 183.826 420.595 186.038 418.879C188.638 417.145 191.188 415.356 193.691 413.505C196.024 412.052 198.41 410.505 200.871 408.836C203.328 407.169 206.024 405.809 208.609 404.271L213.704 401.567C214.566 401.094 215.443 400.6 216.343 400.094L218.112 399.314C219.859 398.514 221.674 397.638 223.554 396.67C225.946 395.733 228.402 394.689 230.921 393.548C233.429 392.705 235.974 391.769 238.59 390.783C241.227 390.086 243.897 389.324 246.616 388.508C249.303 388.007 252.034 387.455 254.787 386.869C257.62 386.59 260.47 386.262 263.339 385.923C281.962 385.788 300.549 384.687 318.897 383.535C319.645 385.812 320.436 388.085 321.372 390.319C329.225 408.554 341.54 407.611 354.182 404.043C355.737 403.745 357.183 403.362 358.692 402.969C360.198 402.584 361.824 402.302 363.407 401.936C364.988 401.565 366.414 401.395 367.898 401.147L368.438 401.043L370.301 400.785L374.021 400.288C376.314 400.097 378.575 399.944 380.789 399.903C382.364 399.927 383.934 399.92 385.413 400.126C388.975 402.031 392.031 405.657 394.351 411.878C394.605 412.53 394.845 413.208 395.091 413.884C397.472 420.402 399.938 427.14 405.778 430.595C411.052 433.704 416.96 433.065 423.204 431.966L424.71 431.771L426.333 431.621L427.618 431.469L427.889 431.466L428.326 431.465L429.404 431.492L431.663 431.694L433.642 432.191L434.853 432.64L435.968 433.147L437.068 433.834L438.015 434.59L438.536 435.081C445.64 443.549 452.159 452.447 458.091 461.77L458.149 461.801L458.212 461.825L458.413 461.805L458.604 461.822L458.749 461.885L458.819 461.918L458.934 461.969L459.074 462.034C460.972 462.306 462.321 461.959 463.059 461.022C464.494 459.578 464.328 457.14 462.985 453.856ZM434.017 429.84L433.531 429.89L431.312 427.901C429.423 426.234 427.481 424.502 425.565 422.713C423.653 420.917 421.463 418.761 419.505 416.821C418.067 415.406 416.572 413.932 415.124 412.52C403.682 401.543 390.211 396.511 375.946 391.177C372.321 389.822 368.575 388.411 364.832 386.906C363.124 386.214 361.377 385.573 359.591 384.961C386.968 390.237 411.667 405.133 434.017 429.84ZM236.226 391.008C236.98 390.645 237.748 390.273 238.517 389.889L240.782 389.505L238.384 390.422C237.686 390.598 236.963 390.782 236.226 391.008ZM222.29 396.746L221.189 397.152L223.177 395.888L225.345 395.262L223.303 396.356L222.29 396.746ZM216.06 399.838L213.998 400.694C214.577 400.294 215.188 399.823 215.756 399.443L217.902 398.681C217.277 399.09 216.69 399.444 216.098 399.783L216.06 399.838ZM208.368 403.991L206.523 404.931L208.289 403.601C208.983 403.323 209.655 403.03 210.33 402.731L209.054 403.568L208.368 403.991ZM330.959 372.092L331.686 372.791L330.385 372.195L329.299 370.981L330.525 371.737C330.714 371.781 330.88 371.86 331.003 372.023L330.959 372.092ZM335.045 374.984C335.53 375.345 336.001 375.716 336.464 376.094L335.102 375.479L333.775 374.193C334.228 374.417 334.642 374.658 335.09 374.921L335.045 374.984ZM340.123 378.062L341.602 379.017L340.003 378.515L338.745 377.447L340.154 378.091L340.123 378.062ZM356.818 384.527C359.495 385.367 362.093 386.271 364.606 387.283C368.342 388.8 372.102 390.202 375.732 391.556C389.953 396.888 403.391 401.902 414.766 412.84C416.234 414.246 417.702 415.706 419.149 417.129C421.1 419.066 423.149 421.086 425.225 423.022C427.135 424.824 429.091 426.551 430.965 428.223L432.928 429.97L432.425 430.019L432.367 429.993C429.412 427.935 426.569 425.733 423.844 423.385C420.789 420.578 417.893 417.617 415.157 414.502L413.331 412.515C404.229 402.709 393.357 399.175 381.892 395.369C374.732 393.273 367.824 390.541 361.172 387.177C359.218 386.12 357.242 385.147 355.219 384.216L356.818 384.527ZM230.589 392.32L227.629 392.923C228.599 392.274 229.565 391.615 230.551 390.946L233.566 390.533C232.63 391.1 231.606 391.733 230.633 392.252L230.589 392.32ZM204.422 406.012C203.6 406.417 202.774 406.83 201.94 407.234C202.731 406.587 203.545 405.911 204.367 405.194C205.26 404.853 206.104 404.484 207.016 404.138C206.204 404.731 205.418 405.306 204.645 405.887L204.422 406.012ZM325.911 368.972L327.337 370.849C326.714 370.57 326.058 370.394 325.414 370.187C325.016 369.51 324.61 368.845 324.157 368.202C324.746 368.426 325.327 368.675 325.911 368.972ZM345.284 381.458L347.21 382.845L344.802 382.668L342.986 381.006C343.684 381.125 344.373 381.252 345.082 381.406L345.284 381.458ZM363.17 401.219L364.369 400.847L364.885 400.838L363.672 401.165L363.17 401.219ZM317.737 368.914C318.485 369.001 319.244 369.106 319.993 369.231C320.388 370.194 320.762 371.141 321.138 372.093C320.355 372.017 319.557 371.962 318.758 371.94L317.737 368.914ZM246.42 385.452L243.027 385.322C263.596 372.996 286.709 359.609 309.637 361.588C310.611 361.681 311.571 361.816 312.531 362.006C312.862 362.955 313.175 363.916 313.469 364.888C313.17 364.857 312.881 364.805 312.58 364.785C289.951 363.308 266.916 374.962 246.661 385.262L246.42 385.452ZM193.705 410.962C194.659 409.985 195.625 409.01 196.584 408.032C197.602 407.691 198.604 407.354 199.602 406.986C198.579 407.935 197.563 408.887 196.616 409.731C195.671 410.093 194.698 410.525 193.715 410.942L193.705 410.962ZM131.289 407.037L129.295 406.13C78.9077 383.183 69.7054 318.777 62.9867 271.606C62.1247 265.457 61.3742 259.054 60.6413 252.864C59.2173 240.46 57.6726 227.603 55.1176 216.395L53.7408 210.293C52.7945 206.151 51.8435 201.717 50.717 197.141C52.3168 202.354 53.7388 207.558 55.0367 212.506L56.1303 216.317C59.2179 227.499 61.2464 240.194 63.1981 252.47C64.1371 258.361 65.1103 264.464 66.1744 270.266C75.1021 318.577 86.1593 378.41 134.628 400.48C135.704 400.966 136.807 401.471 137.941 401.901C158.527 410.255 177.802 409.538 195.426 405.508C194.417 406.693 193.428 407.839 192.447 408.939C173.977 414.616 153.545 416.45 131.298 407.013L131.289 407.037ZM192.071 409.428C191.013 410.629 189.978 411.784 188.984 412.877C169.724 420.282 148.529 423.387 125.748 413.015L124.576 412.482C75.3056 389.042 65.1501 328.222 59.5025 273.045C58.8197 266.44 58.2969 259.633 57.7782 253.065C56.7636 240.035 55.8008 227.727 53.795 216.668C53.3463 214.233 52.8971 211.639 52.439 208.895C51.7951 205.177 51.1126 201.215 50.3457 197.089C51.4859 201.726 52.4964 206.245 53.4238 210.43L54.8622 216.59C57.41 227.74 58.922 240.58 60.3614 253.05C61.0811 259.233 61.8301 265.631 62.7052 271.787C66.545 298.778 71.0925 327.136 80.7886 351.359C91.7212 378.649 107.566 396.742 129.208 406.599C129.876 406.902 130.558 407.212 131.226 407.515C138.37 410.599 145.802 412.621 153.528 413.578C161.248 414.537 168.95 414.394 176.635 413.154C181.868 412.263 187.016 411.011 192.08 409.404L192.071 409.428ZM51.2017 197.502C53.4568 203.585 55.4326 209.717 57.3164 215.557L57.4972 216.15C61.0893 227.304 63.6294 239.751 66.0748 251.774C67.2478 257.471 68.4387 263.364 69.7118 268.893L70.2713 271.299C81.3176 319.316 93.7969 373.51 139.883 394.494C141.457 395.211 143.037 395.932 144.707 396.521C163.893 403.912 182.073 404.069 198.877 401.377C197.834 402.644 196.815 403.849 195.806 405.017C178.103 409.122 158.747 409.93 138.059 401.547C136.939 401.091 135.84 400.618 134.758 400.128C86.4786 378.14 75.4299 318.387 66.5303 270.165C65.4628 264.37 64.4912 258.271 63.5522 252.381C61.5874 240.098 59.5657 227.39 56.4803 216.18L55.3799 212.382C54.149 207.648 52.7561 202.571 51.2017 197.502ZM196.012 405.395C197.099 405.152 198.171 404.88 199.209 404.587C198.207 405.672 197.236 406.719 196.28 407.724C195.229 408.081 194.173 408.419 193.098 408.751C194.063 407.689 195.03 406.56 196.012 405.395ZM196.418 404.913C197.393 403.76 198.392 402.562 199.458 401.348C200.566 401.174 201.69 400.947 202.772 400.776C201.759 401.913 200.741 403.035 199.752 404.11C198.624 404.378 197.526 404.652 196.369 404.895L196.418 404.913ZM203.339 400.652L206.635 399.988C205.626 401.031 204.623 402.029 203.638 403.01C202.558 403.327 201.471 403.636 200.392 403.921C201.346 402.856 202.335 401.765 203.339 400.652ZM203.744 400.187C204.799 399.026 205.847 397.844 206.921 396.639C208.038 396.512 209.156 396.385 210.287 396.231L207.108 399.512C205.989 399.754 204.87 399.98 203.744 400.187ZM203.138 400.306L199.775 400.899C200.823 399.647 201.87 398.373 202.944 397.048C204.066 396.936 205.203 396.835 206.34 396.702L203.138 400.306ZM199.201 401.035C182.398 403.765 164.063 403.635 144.806 396.212C94.9195 376.978 82.0065 320.813 70.5997 271.267L70.047 268.847C68.7655 263.327 67.5746 257.433 66.4147 251.743C63.9596 239.707 61.4132 227.241 57.8149 216.066L57.6341 215.473C55.7972 209.783 53.8443 203.845 51.6879 197.868C54.2848 203.805 56.5873 210.004 58.8339 216.008C62.8944 227.038 65.9411 239.15 68.8781 250.844C70.3433 256.689 71.7366 262.218 73.2387 267.555L74.9946 273.735C87.3663 318.272 101.324 368.502 145.137 388.454C147.188 389.387 149.298 390.264 151.48 391.058C168.684 397.335 185.111 398.605 202.428 397.057C201.347 398.429 200.26 399.731 199.201 401.035ZM119.845 418.833L117.737 417.874C70.0784 394.49 59.8551 335.105 55.8943 274.419C55.4343 267.22 55.1276 259.919 54.8482 252.844C54.3334 239.876 53.8247 227.693 52.3573 216.836C51.9959 214.122 51.6389 211.144 51.2585 208.004C50.8311 204.437 50.3682 200.636 49.8417 196.701C50.6443 200.958 51.3568 205.085 52.0118 208.925C52.47 211.669 52.9207 214.268 53.361 216.712C55.4066 227.758 56.3318 240.051 57.3532 253.067C57.8669 259.637 58.344 266.421 59.0707 273.06C64.7364 328.33 74.9384 389.229 124.358 412.78L125.601 413.345C148.217 423.643 169.267 420.72 188.415 413.481C187.969 413.955 187.506 414.482 187.101 414.877C186.691 415.273 186.155 415.862 185.691 416.313C165.194 425.603 143.333 429.524 119.845 418.833ZM185.006 417.02C184.187 417.851 183.352 418.686 182.461 419.501C161.674 430.28 138.202 435.661 112.325 423.881L110.918 423.242C88.3038 412.446 72.7835 392.379 63.4659 361.906C55.0998 334.514 53.1356 302.997 52.3177 275.772C52.0681 267.836 52.0332 259.87 51.9921 252.164C51.9283 239.502 51.8816 227.555 51.0098 217.03C50.7638 214.214 50.542 211.041 50.297 207.69C50.0536 204.343 49.7928 200.472 49.4728 196.604C50.0083 200.585 50.4735 204.446 50.9037 208.039C51.2842 211.179 51.6411 214.157 52.0088 216.891C53.4699 227.728 53.9718 239.924 54.4906 252.853C54.7815 259.93 55.0139 267.238 55.5482 274.429C57.2651 300.919 60.2492 331.564 69.2387 357.969C79.2669 387.454 95.0902 407.148 117.595 418.186L119.716 419.152C142.988 429.779 164.662 426.081 185.006 417.02ZM187.365 415.127C187.968 414.49 188.588 413.842 189.22 413.141C190.178 412.769 191.145 412.389 192.106 411.989L191.514 412.573C190.834 413.223 190.143 413.872 189.475 414.475C188.535 414.923 187.647 415.382 186.663 415.795C186.871 415.621 187.139 415.345 187.365 415.127ZM189.774 412.541C190.707 411.549 191.717 410.386 192.714 409.199C193.761 408.881 194.798 408.533 195.831 408.187C194.779 409.287 193.756 410.324 192.77 411.305C191.804 411.81 190.787 412.152 189.774 412.541ZM197.077 407.479C198.005 406.488 198.938 405.497 199.886 404.413C200.945 404.134 202.002 403.835 203.106 403.559C202.122 404.529 201.157 405.504 200.246 406.358L197.077 407.479ZM203.833 403.353C204.879 403.051 205.914 402.731 206.949 402.412C205.999 403.262 205.069 404.089 204.146 404.87C203.131 405.271 202.122 405.659 201.081 406.046C202.003 405.139 202.904 404.272 203.833 403.353ZM204.384 402.797C205.35 401.822 206.316 400.847 207.288 399.876L210.529 399.158C209.513 400.11 208.551 400.975 207.593 401.838C206.534 402.149 205.466 402.468 204.397 402.804L204.384 402.797ZM207.756 399.368C208.786 398.319 209.828 397.238 210.889 396.151L214.243 395.654C213.17 396.668 212.13 397.65 211.085 398.617C209.992 398.873 208.895 399.136 207.756 399.368ZM214.544 392.355L217.957 392.129L214.712 395.218L211.306 395.704L214.017 392.865C214.204 392.697 214.383 392.52 214.544 392.355ZM214.881 395.563C215.976 395.399 217.102 395.16 218.182 395.017C217.113 395.943 216.107 396.788 215.077 397.647C214.001 397.925 212.905 398.188 211.874 398.468C212.818 397.511 213.856 396.54 214.881 395.563ZM215.345 395.128L218.551 392.074C219.675 391.988 220.81 391.899 221.917 391.791C220.844 392.718 219.783 393.652 218.71 394.578C217.596 394.754 216.465 394.94 215.345 395.128ZM226.8 388.062C227.976 387.027 229.152 385.991 230.387 384.97L233.883 385.149C232.707 386.026 231.48 387.007 230.308 387.932L226.8 388.062ZM226.232 388.06L222.725 388.087C223.924 386.951 225.167 385.835 226.354 384.659L229.854 384.924L226.232 388.06ZM225.794 388.438L224.391 389.654C223.723 390.241 223.058 390.799 222.399 391.378L218.985 391.648L219.318 391.319C220.321 390.36 221.333 389.409 222.336 388.449L225.794 388.438ZM222.566 391.735C223.675 391.632 224.783 391.529 225.886 391.407C224.816 392.223 223.733 393.017 222.731 393.823L219.444 394.43L222.566 391.735ZM223.039 391.313L224.631 389.934C225.208 389.441 225.79 388.931 226.364 388.428L229.788 388.363C228.656 389.259 227.55 390.169 226.434 390.978L223.039 391.313ZM230.027 388.653L230.418 388.35L233.772 388.252L230.461 390.521L227.15 390.895L230.027 388.653ZM230.902 387.964L234.43 385.223L237.893 385.385L235.294 387.173L234.344 387.832L230.902 387.964ZM311.704 358.695C311.432 358.022 311.11 357.239 310.721 356.383C311.281 356.639 311.893 356.916 312.396 357.146C312.78 357.828 313.167 358.557 313.494 359.268C312.892 359.07 312.305 358.872 311.704 358.695ZM313.727 359.817L314.18 360.772C314.397 361.239 314.569 361.698 314.769 362.16C314.113 361.984 313.496 361.844 312.8 361.697C312.51 360.844 312.161 359.993 311.864 359.153C312.49 359.338 313.136 359.534 313.734 359.804L313.727 359.817ZM311.245 358.555C309.776 358.138 308.281 357.843 306.765 357.676C283.019 355.129 259.379 370.609 238.273 385.134L234.778 384.955C255.275 369.082 279.9 351.458 303.83 354.487C306.037 354.787 308.172 355.361 310.238 356.202C310.622 357.059 310.962 357.864 311.245 358.555ZM235.498 387.508L238.485 385.444L241.891 385.581L240.899 386.177L238.365 387.737L235.002 387.876C235.194 387.707 235.362 387.616 235.498 387.508ZM238.889 385.148C259.845 370.736 283.269 355.526 306.729 358.031C308.325 358.228 309.891 358.555 311.431 359.01C311.762 359.872 312.071 360.714 312.38 361.595C311.473 361.437 310.583 361.313 309.709 361.243C286.483 359.238 263.071 372.872 242.346 385.307L238.889 385.148ZM312.964 362.115C313.627 362.245 314.259 362.38 314.944 362.58C315.323 363.454 315.678 364.325 316.017 365.229C315.307 365.108 314.587 365.006 313.871 364.931C313.582 363.979 313.274 363.05 312.956 362.123L312.964 362.115ZM315.408 362.718C316.055 362.902 316.647 363.098 317.334 363.357C317.734 364.16 318.12 364.956 318.488 365.763C317.814 365.598 317.13 365.452 316.447 365.312C316.112 364.456 315.771 363.559 315.4 362.726L315.408 362.718ZM316.115 365.629C316.476 366.586 316.825 367.524 317.153 368.48C316.581 368.431 316.015 368.368 315.429 368.345L314.841 368.333C314.551 367.322 314.249 366.308 313.945 365.307C314.715 365.414 315.443 365.524 316.115 365.629ZM316.545 365.712C317.241 365.86 317.937 366.007 318.642 366.2C319.024 367.068 319.397 367.961 319.773 368.809C319.034 368.698 318.294 368.586 317.566 368.509C317.282 367.605 316.932 366.666 316.59 365.731L316.545 365.712ZM319.095 366.32C319.76 366.509 320.419 366.712 321.093 366.948L322.357 369.389C321.65 369.224 320.943 369.075 320.237 368.947C319.898 368.044 319.523 367.195 319.145 366.342L319.095 366.32ZM320.381 369.284C321.098 369.414 321.812 369.582 322.539 369.758C322.99 370.637 323.389 371.56 323.831 372.393C323.067 372.273 322.288 372.174 321.5 372.099C321.188 371.176 320.807 370.242 320.425 369.303L320.381 369.284ZM383.049 398.598C385.593 399.049 388.117 399.49 390.535 400.182C388.787 399.765 386.987 399.457 385.185 399.16L384.942 399.046C384.496 398.842 384.019 398.768 383.547 398.654L383.049 398.598ZM460.267 460.966C460.569 460.483 460.716 459.962 460.715 459.4C460.94 453.221 448.645 436.191 440.464 433.089C439.108 432.592 437.726 432.208 436.307 431.933C437.615 432.117 438.902 432.406 440.16 432.797C448.478 435.468 461.44 453.178 460.923 459.368C460.943 459.989 460.736 460.529 460.318 460.988L460.267 460.966ZM338.287 382.783C339.766 384.747 341.287 386.753 342.874 388.766C349.761 397.444 357.78 399.527 366.083 399.943L364.206 400.5C355.301 400.688 346.647 398.843 339.586 388.811C338.186 386.756 336.871 384.74 335.576 382.739L338.287 382.783ZM367.248 399.965L367.947 399.985C367.405 400.117 366.864 400.255 366.339 400.409L365.602 400.444L367.248 399.965ZM368.533 399.626C369.237 399.449 369.928 399.27 370.602 399.156L371.371 399.204L369.361 399.705L368.533 399.626ZM372.927 399.294L373.494 399.324C372.944 399.414 372.372 399.523 371.811 399.634L371.175 399.642L372.927 399.294ZM374.746 399.001C375.618 398.891 376.481 398.789 377.332 398.767L377.712 398.795C376.946 398.861 376.221 398.969 375.393 399.043L374.746 399.001ZM406.216 412.387L406.924 413.529C409.751 418.111 412.67 422.85 417.087 426.136C419.943 428.153 423.066 429.58 426.465 430.406C422.554 429.932 418.958 428.616 415.669 426.455C411.117 423.191 408.275 418.176 405.524 413.347L404.822 412.12C402.748 408.213 399.82 405.115 396.04 402.814C398.17 403.876 400.109 405.216 401.846 406.837C403.591 408.462 405.068 410.296 406.279 412.345L406.216 412.387ZM404.514 412.305L405.214 413.526C407.971 418.408 410.836 423.459 415.468 426.77C418.927 429.04 422.709 430.407 426.821 430.862L426.573 430.907C422.154 430.483 417.934 429.805 414.051 427.089C409.283 423.8 406.512 418.507 403.825 413.378L403.145 412.047C401.188 408.01 398.299 404.807 394.483 402.446C396.633 403.518 398.571 404.891 400.293 406.566C402.015 408.242 403.441 410.141 404.576 412.258L404.514 412.305ZM428.47 430.568C424.422 429.76 420.705 428.182 417.306 425.843C412.956 422.596 410.048 417.893 407.239 413.332L406.531 412.19C404.211 408.229 401.047 405.128 397.04 402.888C401.581 405.054 405.227 408.232 407.993 412.429L408.731 413.546C411.611 417.811 414.591 422.241 418.773 425.475C421.815 427.702 425.13 429.373 428.73 430.492L428.47 430.568ZM402.869 412.177L403.569 413.502C406.265 418.677 409.059 424.006 413.901 427.36C417.107 429.432 420.615 430.639 424.414 430.985C420.194 430.777 416.213 430.079 412.482 427.675C407.524 424.369 404.819 418.782 402.207 413.39L401.462 411.921C400.571 409.886 399.408 408.024 397.966 406.337C396.527 404.643 394.872 403.198 393.005 401.999C396.763 403.81 400.1 406.927 402.869 412.177ZM429.527 430.389C425.739 429.242 422.237 427.515 419.03 425.197C414.897 421.998 411.936 417.594 409.072 413.346L408.333 412.246C405.583 408.011 401.938 404.783 397.4 402.573C402.397 404.786 406.509 408.107 409.732 412.527L410.611 413.708C413.417 417.844 416.698 421.563 420.454 424.865C423.353 427.104 426.492 428.929 429.874 430.345L429.527 430.389ZM377.367 398.341L376.837 398.289C377.444 398.257 378.052 398.263 378.662 398.295C378.213 398.288 377.77 398.302 377.329 398.326L377.367 398.341ZM375.532 398.514C374.684 398.611 373.85 398.737 372.982 398.895L372.146 398.841C373.075 398.669 373.987 398.53 374.889 398.432L375.532 398.514ZM370.718 398.743C362.387 398.118 354.091 396.231 346.88 388.239L344.068 385.093L342.1 382.895L344.715 383.05C346.579 384.779 348.423 386.515 350.25 388.261C357.457 395.179 365.454 397.193 373.428 398.263C372.472 398.367 371.583 398.526 370.686 398.726L370.718 398.743ZM343.763 385.32L346.574 388.482C353.553 396.204 361.49 398.285 369.508 399.009C368.777 399.184 368.052 399.379 367.327 399.574C358.785 399.321 350.347 397.501 343.255 388.499C341.726 386.572 340.266 384.65 338.795 382.749C339.694 382.761 340.586 382.77 341.469 382.815L343.763 385.32ZM338.587 382.399L338.437 382.2L336.791 380.037C337.624 380.135 338.447 380.254 339.279 380.38C339.914 381.065 340.563 381.756 341.165 382.457C340.293 382.409 339.422 382.399 338.537 382.415L338.587 382.399ZM338.117 382.383L335.368 382.389L333.963 380.194L333.665 379.731L336.231 379.994L338.117 382.383ZM334.98 382.369L332.221 382.401C331.683 381.434 331.136 380.493 330.639 379.502L333.252 379.669L333.696 380.371L334.98 382.369ZM333.469 379.317L331.883 376.84C332.653 376.98 333.428 377.136 334.225 377.311L336.038 379.553L333.469 379.317ZM333.002 379.289L330.432 379.12L330.04 378.55L328.865 376.375C329.669 376.482 330.472 376.607 331.282 376.751C331.9 377.572 332.422 378.418 332.964 379.274L333.002 379.289ZM328.743 375.933L327.353 373.421C328.111 373.592 328.855 373.79 329.593 374L331.062 376.312C330.259 376.171 329.467 376.049 328.689 375.955L328.743 375.933ZM328.297 375.887C327.465 375.777 326.651 375.705 325.848 375.635L324.56 372.874C325.342 372.999 326.111 373.151 326.859 373.325L328.297 375.887ZM324.315 372.476C323.907 371.61 323.516 370.696 323.064 369.883C323.763 370.056 324.454 370.276 325.162 370.495C325.644 371.299 326.116 372.107 326.581 372.91C325.833 372.752 325.081 372.601 324.315 372.476ZM324.066 372.811C324.515 373.756 324.974 374.643 325.372 375.632C324.533 375.568 323.702 375.529 322.879 375.515L321.715 372.506C322.511 372.589 323.314 372.659 324.066 372.811ZM325.537 376.017L326.116 377.287L326.883 379.05C325.989 379.053 325.101 379.059 324.204 379.089L322.982 375.93C323.857 375.917 324.702 375.947 325.537 376.017ZM326.447 377.123L325.952 376.034C326.769 376.099 327.595 376.189 328.427 376.283L329.736 378.694L329.94 379.083C329.056 379.033 328.172 379.016 327.317 379.006L326.447 377.123ZM330.139 379.457L331.744 382.392C330.809 382.424 329.884 382.469 328.938 382.532C328.434 381.483 327.948 380.441 327.526 379.41L330.139 379.457ZM331.932 382.748C333.128 384.905 334.363 387.078 335.714 389.208C342.536 400.042 351.074 402.076 360.06 401.71L358.869 402.089C349.044 403.189 339.55 401.783 332.46 389.243C331.253 387.138 330.156 384.982 329.137 382.835C330.093 382.818 331.027 382.787 331.958 382.762L331.932 382.748ZM336.029 389.011C334.697 386.995 333.512 384.84 332.362 382.744C333.305 382.721 334.227 382.72 335.192 382.734C336.546 384.765 337.897 386.896 339.35 388.983C346.233 398.728 354.496 400.805 363.045 400.837L361.491 401.331C352.168 401.924 343.126 400.271 336.05 389.027L336.029 389.011ZM368.315 400.323L369.526 400.024L369.95 400.033L368.726 400.292L368.315 400.323ZM374.313 399.585C374.708 399.521 375.104 399.462 375.505 399.418L375.596 399.465L374.403 399.628L374.313 399.585ZM401.137 412.137L401.882 413.606C404.522 419.055 407.251 424.683 412.286 428.042C415.425 430.021 418.846 431.108 422.547 431.299C418.356 431.496 414.453 430.523 410.846 428.375C405.697 425.052 403.069 419.173 400.507 413.52L399.802 411.956C397.484 406.854 394.664 403.646 391.477 401.688C395.138 403.365 398.48 406.601 401.167 412.095L401.137 412.137ZM437.007 432.788C438.192 433.137 439.337 433.585 440.447 434.126C447.927 437.83 459.632 453.26 459.737 459.522C459.765 460.01 459.66 460.474 459.432 460.912C459.594 460.282 459.618 459.647 459.504 459.006C458.549 452.629 448.325 438.349 440.751 434.418C439.564 433.819 438.342 433.302 437.087 432.867L437.007 432.788ZM460.138 459.478C460.036 453.123 448.193 437.496 440.646 433.752C439.986 433.408 439.318 433.105 438.626 432.831C439.214 433.001 439.801 433.182 440.378 433.405C448.513 436.483 460.625 453.26 460.381 459.347C460.385 459.897 460.231 460.399 459.914 460.848C460.08 460.403 460.155 459.948 460.138 459.478ZM460.728 461.078C461.117 460.595 461.326 460.044 461.355 459.423C461.614 456.372 458.791 450.516 454.19 444.488C450.465 439.62 444.863 433.901 440.316 432.513C438.881 432.063 437.417 431.748 435.928 431.56C437.338 431.669 438.732 431.902 440.107 432.262C448.735 434.563 462.366 452.98 461.677 459.458C461.641 460.141 461.349 460.691 460.81 461.112L460.728 461.078ZM435.396 431.449L435.21 431.36L435.408 431.364L435.396 431.449ZM430.454 430.212C426.918 428.757 423.638 426.867 420.603 424.539C416.875 421.256 413.616 417.557 410.826 413.439L409.947 412.274C401.951 401.558 391.681 399.713 380.804 397.813C371.79 396.228 362.468 394.588 353.976 387.664C352.055 386.1 350.23 384.67 348.441 383.321L350.848 383.564C352.971 384.829 355.125 386.194 357.364 387.707C365.365 393.104 373.77 395.18 381.926 397.248C392.803 399.983 403.085 402.544 411.352 412.575L412.465 413.945C415.32 417.645 418.483 421.056 421.952 424.192C424.717 426.441 427.664 428.419 430.794 430.127L430.454 430.212ZM353.8 387.954C361.838 394.442 370.521 396.343 379.001 397.861C377.592 397.79 376.188 397.838 374.788 398.005C366.398 397.016 357.973 395.17 350.417 387.925C348.7 386.264 346.962 384.643 345.221 383.028L347.759 383.235C349.727 384.686 351.706 386.275 353.8 387.954ZM344.212 382.597L341.683 382.436L339.851 380.429C340.659 380.552 341.464 380.681 342.284 380.839L344.212 382.597ZM339.437 379.997L337.754 378.168C338.447 378.359 339.152 378.553 339.855 378.774C340.492 379.306 341.115 379.83 341.728 380.375L339.437 379.997ZM338.855 379.918L336.452 379.603L334.772 377.417L337.05 377.979L338.855 379.918ZM334.403 376.955L332.892 375.049L334.911 375.774L336.545 377.466C335.829 377.288 335.11 377.12 334.396 376.968L334.403 376.955ZM333.838 376.826C333.077 376.662 332.31 376.515 331.565 376.383L330.103 374.162C330.825 374.377 331.535 374.586 332.231 374.82L333.838 376.826ZM329.767 373.684C329.298 372.974 328.816 372.29 328.331 371.618C328.941 371.89 329.56 372.176 330.196 372.462L331.783 374.35C331.12 374.099 330.452 373.883 329.76 373.697L329.767 373.684ZM329.224 373.538C328.504 373.349 327.799 373.155 327.052 372.986C326.616 372.206 326.154 371.429 325.693 370.64C326.369 370.864 327.044 371.116 327.716 371.38C328.251 372.074 328.727 372.826 329.222 373.549L329.224 373.538ZM324.887 370.02C324.203 369.808 323.525 369.612 322.851 369.447C322.467 368.678 322.127 367.928 321.68 367.146C322.278 367.416 322.891 367.595 323.544 367.865C323.991 368.592 324.444 369.307 324.878 370.028L324.887 370.02ZM321.397 366.645C321.02 365.95 320.619 365.246 320.245 364.577C320.819 364.839 321.418 365.115 321.957 365.475L322.592 366.384L323.176 367.303C322.541 367.055 321.988 366.874 321.39 366.658L321.397 366.645ZM319.797 364.505C320.171 365.141 320.512 365.793 320.882 366.413C320.282 366.138 319.637 366.03 318.989 365.845C318.618 365.045 318.285 364.281 317.846 363.475C318.444 363.746 319.018 364.007 319.686 364.311C319.711 364.39 319.745 364.462 319.788 364.53L319.797 364.505ZM317.631 363.051L317.343 362.465L316.572 361.053C317.101 361.296 317.624 361.536 318.136 361.877C318.576 362.53 318.965 363.162 319.343 363.758C318.763 363.509 318.189 363.247 317.596 363.062L317.631 363.051ZM317.023 362.647L317.141 362.883C316.504 362.663 315.92 362.453 315.243 362.262C315.019 361.704 314.802 361.155 314.576 360.626L314.281 359.998C314.854 360.26 315.452 360.531 316.013 360.786C316.341 361.431 316.689 362.069 316.973 362.695L317.023 362.647ZM314.015 359.465C313.691 358.781 313.351 358.118 313.003 357.462C313.539 357.709 314.028 358.03 314.532 358.331C314.933 358.964 315.368 359.602 315.669 360.179C315.086 359.936 314.571 359.705 313.98 359.476L314.015 359.465ZM312.691 356.867C312.37 356.297 312.048 355.726 311.707 355.178C312.132 355.454 312.551 355.743 312.956 356.042C313.352 356.572 313.705 357.089 314.063 357.621L312.691 356.867ZM312.117 356.605C311.576 356.36 311.053 356.121 310.525 355.883C310.23 355.222 309.893 354.531 309.512 353.821C310.035 354.06 310.51 354.392 310.992 354.693C311.353 355.339 311.718 355.961 312.091 356.608L312.117 356.605ZM310.033 355.655C308.05 354.886 306.007 354.36 303.9 354.083C279.713 351.02 254.879 368.9 234.255 384.89L230.722 384.696C251.613 366.776 276.507 347.381 300.916 350.909C303.733 351.345 306.401 352.227 308.927 353.54C309.298 354.287 309.641 354.998 309.985 355.692L310.033 355.655ZM300.983 350.517C276.3 346.933 251.219 366.583 230.263 384.643L226.723 384.374C247.983 364.346 273.144 343.262 298.073 347.337C301.508 347.928 304.685 349.179 307.597 351.098C307.973 351.722 308.33 352.336 308.656 352.992C306.213 351.767 303.643 350.953 300.935 350.554L300.983 350.517ZM298.032 346.995C272.829 342.903 247.479 364.27 226.135 384.362L222.579 384.06C231.751 374.698 241.72 365.14 252.194 357.575C268.215 346.012 282.22 341.535 295.058 343.802C299.127 344.554 302.783 346.217 306.023 348.797C306.394 349.319 306.744 349.859 307.084 350.385C304.289 348.665 301.269 347.534 298.032 346.995ZM225.847 384.628C224.606 385.787 223.387 386.945 222.187 388.097C221.021 388.104 219.85 388.095 218.671 388.078C219.874 386.832 221.083 385.573 222.317 384.323L225.847 384.628ZM221.812 388.45L219.067 391.06L218.391 391.703C217.229 391.795 216.083 391.866 214.932 391.938C216.053 390.778 217.168 389.603 218.317 388.413C219.488 388.454 220.646 388.456 221.805 388.463L221.812 388.45ZM214.38 391.97C213.225 392.049 212.07 392.106 210.899 392.152C212.023 390.898 213.162 389.606 214.326 388.324C215.501 388.364 216.664 388.381 217.817 388.401C216.651 389.624 215.513 390.817 214.373 391.983L214.38 391.97ZM213.994 392.375C213.96 392.457 213.856 392.528 213.781 392.6C212.739 393.665 211.719 394.727 210.716 395.791C209.57 395.949 208.433 396.082 207.295 396.216C207.801 395.636 208.308 395.079 208.814 394.499C209.315 393.921 209.968 393.203 210.581 392.476C211.673 392.564 212.848 392.446 213.992 392.387L213.994 392.375ZM208.538 394.264C207.935 394.934 207.334 395.609 206.746 396.274C205.597 396.405 204.454 396.519 203.305 396.618L203.623 396.239L206.655 392.683L210.114 392.573C209.53 393.144 209.031 393.711 208.537 394.275L208.538 394.264ZM203.324 396.017C203.147 396.253 202.967 396.462 202.777 396.691C185.364 398.297 168.798 397.092 151.619 390.752C102.95 372.981 88.2911 320.225 75.3631 273.674L73.6129 267.443C72.1177 262.093 70.7356 256.582 69.2654 250.739C66.3221 239.025 63.2754 226.912 59.2171 215.855C57.0524 209.973 54.816 203.95 52.2794 198.239C55.2798 204.088 57.871 210.076 60.2426 215.8C64.7188 226.606 68.2361 238.271 71.6249 249.56C73.3819 255.396 75.0439 260.912 76.7978 266.164C77.8671 269.48 78.9623 272.723 80.058 276.037C87.3931 298.479 94.9915 321.691 106.754 341.476C118.375 361.016 132.649 374.493 150.218 382.49C152.819 383.676 155.502 384.744 158.264 385.7C173.813 390.898 189.779 393.235 206.162 392.712L203.324 396.017ZM49.8937 207.674C50.1319 211.039 50.3536 214.212 50.6046 217.027C51.4734 227.541 51.5707 239.51 51.5922 252.142C51.6299 259.855 51.6973 267.75 51.9159 275.761C52.7317 303.015 54.7103 334.559 63.0873 361.987C72.5129 392.595 88.1166 412.702 110.815 423.591L112.273 424.253C116.032 426.036 119.921 427.467 123.943 428.557C127.96 429.647 132.041 430.369 136.191 430.736C140.334 431.099 144.482 431.095 148.628 430.721C152.774 430.346 156.856 429.61 160.868 428.513C168.042 426.586 174.924 423.905 181.509 420.466C180.676 421.274 179.837 422.094 178.984 422.908C157.239 435.8 132.326 442.569 104.207 428.659C55.1142 404.394 48.6631 338.458 48.826 277.169C48.852 268.251 49.102 259.438 49.3405 250.901C49.6978 238.745 50.0188 227.256 49.6364 217.194C49.4871 214.408 49.495 211.288 49.3904 207.914C49.3102 204.271 49.2182 200.364 49.0236 196.287C49.3924 200.292 49.6478 204.181 49.8937 207.674ZM182.616 419.906C183.365 419.528 184.098 419.167 184.867 418.712C184.112 419.386 183.344 420.07 182.539 420.721L180.343 422.159C181.124 421.379 181.863 420.655 182.616 419.906ZM183.594 418.937C184.364 418.172 185.133 417.389 185.898 416.609C186.773 416.214 187.674 415.816 188.507 415.39C187.735 416.113 186.945 416.831 186.116 417.528C185.287 418.226 184.499 418.533 183.581 418.964L183.594 418.937ZM189.635 414.828C190.396 414.469 191.155 414.105 191.918 413.702C191.211 414.301 190.484 414.889 189.738 415.539L187.53 416.816C188.229 416.155 188.933 415.513 189.627 414.853L189.635 414.828ZM190.571 413.967L191.762 412.839C192.18 412.451 192.595 412.032 193.027 411.617L195.739 410.449C194.901 411.171 194.055 411.9 193.184 412.638C192.301 413.112 191.435 413.553 190.556 413.988L190.571 413.967ZM196.156 410.58C196.385 410.388 196.618 410.156 196.854 409.951L199.227 408.867C198.48 409.462 197.721 410.033 196.99 410.678C196.259 411.323 195.46 411.525 194.677 411.934L196.156 410.58ZM197.781 409.13C198.673 408.32 199.587 407.46 200.527 406.575C201.464 406.221 202.427 405.88 203.352 405.524C202.402 406.341 201.46 407.112 200.55 407.829C199.616 408.297 198.697 408.728 197.771 409.15L197.781 409.13ZM205.216 404.419C206.056 403.686 206.917 402.918 207.801 402.133L210.751 401.184C209.861 401.895 208.979 402.582 208.114 403.236L205.216 404.419ZM208.454 401.535C209.377 400.688 210.32 399.83 211.278 398.934C212.338 398.693 213.371 398.472 214.455 398.17C213.499 398.967 212.55 399.751 211.611 400.499C210.55 400.876 209.502 401.222 208.44 401.561L208.454 401.535ZM215.258 397.961L218.279 397.17C217.365 397.84 216.454 398.503 215.572 399.135L212.644 400.224C213.462 399.475 214.355 398.736 215.247 397.981L215.258 397.961ZM215.92 397.41C216.906 396.587 217.899 395.734 218.896 394.875L222.085 394.304C221.083 395.078 220.091 395.831 219.105 396.567L215.92 397.41ZM222.906 394.155C223.903 393.957 224.897 393.786 225.909 393.583C224.952 394.222 223.998 394.85 223.056 395.468L220.056 396.378C220.989 395.631 221.941 394.906 222.897 394.18L222.906 394.155ZM223.561 393.649C224.559 392.883 225.567 392.096 226.596 391.304L229.821 390.935C228.786 391.653 227.757 392.358 226.737 393.039L223.561 393.649ZM231.265 390.404L234.471 388.202C235.567 388.163 236.65 388.118 237.722 388.054L234.474 390.002L231.265 390.404ZM238.498 388.039L239.949 387.949L241.567 387.85C240.495 388.4 239.448 388.925 238.396 389.436C237.437 389.579 236.484 389.726 235.52 389.854L235.351 389.874C236.409 389.296 237.432 388.729 238.491 388.052L238.498 388.039ZM239.967 387.605L239.175 387.641L241.111 386.487L242.571 385.608L245.894 385.705C244.748 386.299 243.593 386.88 242.45 387.464L239.967 387.605ZM246.661 385.731L249.856 385.77L246.492 387.193L243.367 387.41L246.661 385.731ZM247.212 385.454C267.351 375.218 290.155 363.697 312.554 365.154L313.59 365.271C313.905 366.291 314.22 367.311 314.502 368.331C293.42 367.748 271.861 376.662 252.809 384.569L250.468 385.512L247.212 385.454ZM252.949 384.913C272.01 377.013 293.58 368.047 314.616 368.71L315.494 371.939C296.476 372.192 277.661 378.213 259.441 384.047L254.672 385.6L251.49 385.568C251.958 385.355 252.448 385.141 252.942 384.926L252.949 384.913ZM314.991 368.723L315.468 368.731C316.094 368.759 316.71 368.827 317.335 368.887C317.684 369.891 318.027 370.914 318.355 371.924C317.53 371.905 316.701 371.925 315.879 371.932C315.599 370.868 315.295 369.796 314.991 368.723ZM318.39 372.296L318.467 372.331L319.292 374.873C319.358 375.098 319.438 375.335 319.518 375.555L316.879 375.636L316.312 373.587L315.963 372.337C316.787 372.302 317.583 372.282 318.39 372.296ZM319.656 374.726L318.884 372.321C319.69 372.351 320.507 372.395 321.289 372.471L322.469 375.512C322.077 375.499 321.689 375.479 321.291 375.484L319.875 375.492C319.804 375.302 319.745 374.993 319.656 374.726ZM321.293 375.855L322.616 375.876L322.658 375.993L323.848 379.07C322.945 379.097 322.032 379.144 321.111 379.237L320.022 375.91L321.293 375.855ZM327.086 379.385L328.56 382.546L327.109 382.62L325.667 382.686L324.337 379.391L327.086 379.385ZM327.131 382.985L328.734 382.907C329.794 385.118 330.899 387.315 332.137 389.481C338.917 401.436 347.811 403.435 357.108 402.687C356.876 402.765 356.644 402.843 356.4 402.903C346.002 404.576 335.989 403.513 328.855 389.567C327.762 387.443 326.774 385.253 325.865 383.055L327.131 382.985ZM360.966 401.884L361.559 401.703L361.724 401.689L361.045 401.875L360.966 401.884ZM399.491 412.026L400.189 413.603C402.765 419.318 405.423 425.225 410.665 428.617C413.777 430.511 417.156 431.48 420.797 431.532C418.784 431.695 416.797 431.555 414.824 431.116C412.855 430.67 410.995 429.944 409.248 428.937C403.915 425.584 401.331 419.446 398.851 413.516L398.142 411.779C395.91 406.519 393.157 403.213 390.019 401.218C393.651 403.03 396.874 406.336 399.465 412.013L399.491 412.026ZM441.436 436.981L440.863 436.495L441.066 436.585C447.416 441.66 455.554 453.089 457.846 459.548C453.662 451.08 448.185 443.552 441.412 436.973L441.436 436.981ZM440.299 435.603L440.92 435.997C447.949 440.853 457.328 454.094 458.415 460.161C456.494 453.629 448.032 441.728 441.281 436.331C440.916 436.108 440.596 435.837 440.273 435.589L440.299 435.603ZM441.131 435.696C440.644 435.363 440.147 435.066 439.65 434.753C440.039 434.931 440.434 435.113 440.782 435.369C448.427 439.928 459.017 455.075 458.825 460.562C458.056 454.553 448.353 440.682 441.106 435.688L441.131 435.696ZM453.873 448.573C449.788 442.47 444.82 437.376 440.998 435.028C440.293 434.611 439.603 434.238 438.879 433.898C439.476 434.164 440.069 434.436 440.674 434.71C448.179 438.581 458.315 452.648 459.226 459.006C459.323 459.559 459.317 460.113 459.207 460.666C459.333 457.836 456.662 452.758 453.789 448.567L453.873 448.573ZM461.301 461.127C461.767 460.648 462.024 460.075 462.078 459.414C462.76 452.862 449.035 434.146 440.19 431.832C438.656 431.451 437.104 431.218 435.529 431.124C437.024 431.172 438.51 431.35 439.974 431.649C448.885 433.582 463.159 452.758 462.314 459.433C462.233 460.168 461.887 460.735 461.266 461.138L461.301 461.127ZM435.087 431.038L434.809 431.022L435.094 431.025L435.087 431.038ZM361.055 387.465C367.727 390.839 374.657 393.575 381.839 395.67C393.304 399.388 404.127 402.889 413.146 412.672L414.964 414.672C417.706 417.785 420.598 420.752 423.65 423.566C426.3 425.85 429.065 427.995 431.937 429.997L431.488 430.062C428.229 428.291 425.156 426.242 422.275 423.916C418.799 420.793 415.632 417.388 412.779 413.693L411.665 412.318C403.314 402.194 392.991 399.574 382.026 396.872C373.924 394.837 365.516 392.735 357.586 387.37C355.602 386.045 353.688 384.817 351.8 383.674L353.922 383.963C356.378 385.091 358.717 386.229 361.02 387.476L361.055 387.465ZM351.058 383.225L349.741 382.454L351.297 382.855L352.704 383.494C352.13 383.385 351.581 383.29 351.024 383.236L351.058 383.225ZM350.159 383.125L347.954 382.901L346.195 381.663L348.461 382.185L350.159 383.125ZM345.431 381.073L344.055 380.118C344.707 380.334 345.336 380.562 345.958 380.787L347.262 381.497C346.648 381.384 346.052 381.227 345.434 381.099L345.431 381.073ZM344.531 380.903C343.84 380.77 343.144 380.623 342.448 380.509C341.906 380.019 341.331 379.544 340.758 379.058L342.274 379.521L342.765 379.749L344.531 380.903ZM339.19 378.186L337.257 377.647L335.762 376.118L337.579 376.847L339.19 378.186ZM334.332 375.181C333.733 374.91 333.125 374.73 332.444 374.508C331.978 373.928 331.549 373.364 331.031 372.773L332.674 373.606C333.211 374.135 333.806 374.604 334.318 375.191L334.332 375.181ZM329.637 371.759L327.999 371.012C327.591 370.442 327.105 369.869 326.729 369.315C327.27 369.56 327.793 369.871 328.317 370.181L329.637 371.759ZM326.175 368.681L325.7 368.039L325.216 367.454C325.571 367.697 325.934 367.933 326.295 368.196C326.656 368.459 327.065 368.959 327.435 369.355C326.991 369.124 326.573 368.889 326.155 368.688L326.175 368.681ZM325.385 368.323C324.825 368.068 324.289 367.822 323.748 367.577C323.44 367.1 323.161 366.631 322.843 366.174L322.626 365.849L324.129 366.775L325.385 368.323ZM322.195 365.242L321.318 364.049L322.375 364.842L323.335 365.845L322.195 365.242ZM321.419 364.891C320.903 364.655 320.386 364.418 319.871 364.187C319.566 363.65 319.223 363.097 318.849 362.515C319.296 362.807 319.756 363.071 320.212 363.376C320.676 363.759 321.074 364.279 321.471 364.744L321.419 364.891ZM318.349 361.723L317.48 360.522C317.828 360.778 318.168 361.059 318.522 361.335L319.401 362.359C319.154 362.059 318.738 361.83 318.377 361.621L318.349 361.723ZM317.605 361.301L316.185 360.568C315.873 360.011 315.545 359.454 315.185 358.879C315.631 359.17 316.062 359.466 316.492 359.773C316.919 360.196 317.285 360.698 317.638 361.198L317.605 361.301ZM314.781 358.187C314.512 357.78 314.237 357.359 313.93 356.937L314.789 357.638L315.787 358.832L314.781 358.187ZM312.194 355.2C311.851 355.046 311.571 354.762 311.255 354.556L310.5 353.423C310.817 353.684 311.104 353.954 311.406 354.219C311.713 354.483 311.922 354.734 312.165 355.073L312.194 355.2ZM310.518 354.122L309.193 353.397C308.901 352.85 308.591 352.298 308.263 351.74C308.698 352.029 309.109 352.331 309.507 352.643C309.827 353.001 310.163 353.496 310.49 353.999L310.518 354.122ZM307.805 350.978L307.035 349.778C307.288 349.994 307.561 350.203 307.813 350.429L308.787 351.652L307.805 350.978ZM305.321 347.953C302.261 345.721 298.873 344.252 295.159 343.552C282.227 341.244 268.124 345.773 252.057 357.416C241.504 365.061 231.445 374.712 222.188 384.139C221.004 384.036 219.815 383.918 218.628 383.789C239.888 360.491 266.393 335.349 292.229 340.378C296.98 341.407 301.101 343.612 304.596 346.985C304.792 347.158 305.035 347.497 305.292 347.826L305.321 347.953ZM221.874 384.391C220.639 385.652 219.407 386.929 218.185 388.181L214.671 388.101C215.879 386.749 217.103 385.398 218.349 384.03L221.874 384.391ZM214.187 388.072C213.026 388.044 211.851 387.988 210.688 387.9C211.899 386.455 213.123 385 214.363 383.557L217.904 383.951C216.634 385.245 215.384 386.599 214.16 387.95L214.187 388.072ZM213.866 388.441C212.692 389.743 211.533 391.041 210.402 392.308C209.247 392.365 208.085 392.403 206.928 392.422C208.06 391.057 209.194 389.679 210.351 388.322C211.506 388.243 212.68 388.279 213.824 388.307L213.866 388.441ZM206.393 392.421C189.969 392.919 173.974 390.542 158.408 385.289C110.913 368.978 94.7312 319.507 80.4383 275.857C79.3445 272.532 78.2818 269.219 77.185 265.971C75.4426 260.721 73.7753 255.223 72.0053 249.381C68.6457 238.115 65.086 226.42 60.599 215.579C58.2245 209.828 55.5916 203.777 52.5933 197.9C55.9055 203.629 58.9203 209.506 61.6358 215.543C66.4324 226.101 70.4007 237.219 74.2183 247.91C76.3194 253.851 78.3206 259.473 80.3678 264.72C82.0744 269.092 83.7818 273.605 85.4473 277.968C93.4639 299.105 101.745 320.945 113.833 339.35C127.507 360.194 144.252 373.56 165.065 380.238C179.661 384.819 194.602 387.44 209.889 388.102C208.702 389.556 207.548 390.939 206.352 392.292L206.393 392.421ZM-66.5618 164.922C-47.5338 141.993 -22.1891 115.293 5.14919 112.333C17.9179 110.958 27.9011 115.191 34.9956 125C40.8213 133.117 44.7875 145.306 46.7775 161.266C47.5619 167.62 47.991 174.129 48.1987 180.49C47.6847 174.597 46.9875 168.538 45.9348 162.65C43.1817 147.476 38.7375 136.441 32.3538 128.964C24.9044 120.249 14.7234 116.689 2.1139 118.38C-24.2445 121.922 -48.8517 147.32 -67.3269 169.055C-83.6325 188.4 -97.3093 211.663 -109.969 241.605C-97.2358 209.794 -83.3155 185.221 -66.5618 164.922ZM-109.786 240.188C-97.1333 207.114 -83.106 181.596 -66.0823 160.541C-46.399 136.395 -20.2989 108.312 8.14945 105.931C17.3327 105.185 24.9775 107.38 30.9751 112.517C40.549 120.695 46.2661 136.598 47.9271 159.851C48.4189 166.456 48.5406 173.116 48.4698 179.58C48.2619 173.515 47.8404 167.325 47.0888 161.267C45.1484 145.203 41.1668 132.948 35.2926 124.781C28.1666 114.889 18.0139 110.551 5.11416 111.978C-22.3658 114.939 -47.7636 141.661 -66.8527 164.692C-83.3995 184.745 -97.1967 208.963 -109.786 240.188ZM-67.0429 169.299C-48.6636 147.589 -24.1072 122.272 2.15857 118.748C14.636 117.071 24.7023 120.596 32.0746 129.204C38.3969 136.608 42.8339 147.585 45.5534 162.704C46.6564 169.013 47.4442 175.36 47.9051 181.745C47.1354 175.785 46.0466 169.887 44.6488 164.048C41.3107 150.122 36.1737 139.714 29.4201 133.145C21.6654 125.596 11.4893 122.799 -0.901273 124.786C-26.4099 128.914 -50.0498 152.959 -67.8065 173.437C-83.7884 191.883 -97.3689 214.149 -110.091 242.866C-97.3377 212.441 -83.5162 188.822 -67.0429 169.299ZM-67.5224 173.681C-49.8223 153.232 -26.1825 129.29 -0.841691 125.15C22.2947 121.413 37.0736 134.169 44.3559 164.123C45.8074 170.29 46.9168 176.514 47.6809 182.803C46.6177 176.952 45.2203 171.184 43.4887 165.499C39.4744 152.566 33.7236 143.072 26.4881 137.314C18.4398 130.933 8.21978 128.865 -3.90992 131.197C-28.4057 135.906 -51.1818 158.583 -68.286 177.819C-84.0025 195.493 -97.455 216.742 -110.233 244.117C-97.3802 214.895 -83.6808 192.329 -67.5224 173.681ZM-68.0019 178.062C-50.9691 158.861 -28.2386 136.247 -3.82889 131.559C19.2337 127.135 34.5959 138.272 43.1167 165.67C44.9196 171.617 46.3568 177.651 47.4235 183.774C46.0663 178.064 44.3414 172.47 42.2472 166.986C37.5912 154.964 31.2786 146.428 23.5283 141.482C15.2254 136.289 5.00462 134.931 -6.91202 137.61C-30.4459 142.897 -52.3336 164.214 -68.7652 182.184C-84.2381 199.105 -97.5741 219.334 -110.375 245.297C-97.4728 217.485 -83.908 195.933 -68.0019 178.062ZM-68.4961 182.432C-52.0692 164.447 -30.2642 143.249 -6.81765 137.963C16.2994 132.774 32.2398 142.293 41.928 167.065C44.1382 172.883 45.9444 178.823 47.3532 184.888C45.6608 179.224 43.5604 173.72 41.0538 168.366C35.7611 157.341 28.8679 149.702 20.5501 145.66L19.7525 145.294C11.4335 141.509 1.45526 141.079 -9.92095 144.037C-32.511 149.895 -53.492 169.84 -69.2447 186.565C-84.2775 202.524 -97.8517 222.239 -110.602 246.608C-97.6353 220.112 -84.1541 199.581 -68.4961 182.432ZM-68.9756 186.814C-53.2582 170.133 -32.3355 150.227 -9.84021 144.415C13.4616 138.355 29.9967 146.257 40.6995 168.559C43.2632 174.042 45.4138 179.689 47.1335 185.492C45.1255 180.074 42.694 174.855 39.834 169.835C33.9375 159.721 26.4551 153.004 17.6004 149.808C8.96249 146.746 -1.33102 147.015 -12.9194 150.427C-34.6456 156.915 -54.6919 175.491 -69.7258 190.942C-84.5115 206.141 -97.929 224.703 -110.676 247.537C-97.8126 222.832 -84.1443 202.913 -68.9756 186.814ZM-69.4551 191.196C-54.4581 175.783 -34.4553 157.242 -12.8446 150.769C10.7494 143.728 27.8545 150.004 39.4794 169.958C42.4942 175.261 45.0324 180.786 47.104 186.528C44.7198 181.146 41.8616 176.028 38.5308 171.178C25.981 153.267 8.14348 148.57 -16.0048 156.801C-37.1703 164.013 -57.1178 182.209 -70.3015 195.261C-84.8039 209.797 -98.1184 227.263 -110.811 248.552C-97.9603 225.368 -84.4018 206.559 -69.4551 191.196ZM-69.9381 195.584C-56.8196 182.585 -36.8982 164.376 -15.8007 157.19C8.17027 149.02 25.8429 153.731 38.3025 171.425C41.7373 176.449 44.6664 181.758 47.0866 187.341C44.3655 182.104 41.1345 177.206 37.3968 172.643C24.093 156.798 5.66888 153.726 -18.9301 163.251C-39.4163 171.183 -58.283 187.849 -70.6781 199.692C-85.1363 213.483 -98.3472 229.819 -110.954 249.519C-98.141 227.904 -84.6942 210.216 -69.9381 195.584ZM-70.4306 199.959C-57.9871 188.166 -39.2259 171.511 -18.801 163.592C5.63874 154.134 23.9267 157.172 37.1045 172.877C40.9838 177.63 44.3149 182.742 47.0979 188.211C43.9929 183.072 40.3386 178.357 36.14 174.064C34.3435 172.221 32.3888 170.569 30.266 169.113C28.1433 167.656 25.8996 166.423 23.5352 165.413C21.1658 164.405 18.7212 163.645 16.2034 163.12C13.6856 162.595 11.1402 162.33 8.56415 162.315C-0.377819 162.16 -10.3558 164.564 -21.95 169.642C-36.9934 176.236 -53.0995 187.493 -71.1769 204.047C-86.3645 218.105 -99.7652 233.698 -111.392 250.82C-98.5617 230.7 -85.1436 213.999 -70.4306 199.959ZM100.748 435.702C99.6447 435.197 98.5235 434.687 97.4236 434.088C74.7714 422.529 59.8626 401.297 51.8518 369.18C44.3453 339.05 44.3273 304.918 45.2733 278.563C45.6793 268.352 46.2316 258.347 46.8239 248.694C47.5106 237.396 48.1758 226.672 48.3244 217.432C48.3469 214.897 48.4247 211.93 48.4985 208.811C48.5948 204.965 48.6954 200.681 48.7339 196.181C48.8782 200.307 48.9772 204.288 49.0202 207.987C49.094 211.332 49.1625 214.504 49.2727 217.27C49.6418 227.342 49.3655 238.817 48.9789 250.949C48.7289 259.484 48.4771 268.309 48.4576 277.23C48.2936 338.585 54.7796 404.598 104.038 429.007C104.867 429.386 105.689 429.761 106.498 430.129C133.192 442.285 156.916 436.109 177.817 424.006L175.778 425.908C154.653 439.959 129.282 448.695 100.748 435.702ZM173.998 427.489C173.35 428.069 172.698 428.634 172.046 429.199C149.661 445.737 122.28 456.174 90.6533 439.507C67.9747 427.568 53.3742 405.754 46.0246 372.84C38.9344 341.116 40.1908 304.646 41.7468 279.972C42.5141 267.731 43.5942 256.069 44.633 244.797C45.5389 235.013 46.3857 225.788 46.8979 217.618C47.0344 215.446 47.2111 212.95 47.3953 210.305C47.7062 205.959 48.0405 201.116 48.287 195.923C48.2385 200.529 48.1388 204.852 48.0905 208.781C48.0671 211.939 47.9373 214.862 47.908 217.41C47.8074 226.733 47.1582 237.386 46.4749 248.678C45.8944 258.316 45.2781 268.309 44.9356 278.566C44.0384 304.954 43.9818 339.109 51.5189 369.285C55.2711 384.32 60.6844 397.223 67.6198 407.655C71.3184 413.328 75.6808 418.438 80.7087 422.972C85.7332 427.514 91.2562 431.331 97.2809 434.433C98.4221 435.024 99.5853 435.582 100.757 436.114C104.615 437.949 108.614 439.4 112.751 440.458C116.894 441.515 121.095 442.166 125.359 442.41C129.624 442.658 133.874 442.492 138.107 441.909C142.341 441.327 146.478 440.349 150.519 438.965C158.844 436.164 166.67 432.335 173.998 427.489ZM179.124 423.285L180.706 422.324C180.296 422.671 179.875 423.032 179.445 423.386C179.012 423.746 178.298 424.199 177.706 424.593C178.18 424.171 178.655 423.721 179.124 423.285ZM184.579 419.447C185.144 418.953 185.697 418.452 186.265 417.951L187.846 417.056L186.082 418.445L184.579 419.447ZM191.836 414.257C192.357 413.831 192.859 413.412 193.367 412.979L195.005 412.11L193.503 413.237L191.836 414.257ZM199.127 409.433L200.531 408.343L200.738 408.168C201.311 407.906 201.871 407.638 202.432 407.358C201.874 407.751 201.305 408.132 200.749 408.514L199.127 409.433ZM209.468 402.696C210.219 402.099 210.989 401.492 211.705 400.885L214.406 399.96C213.596 400.525 212.814 401.06 212.04 401.587L209.468 402.696ZM216.833 398.7C217.634 398.121 218.436 397.547 219.237 396.968L221.966 396.22L219.483 397.786L216.833 398.7ZM226.73 394.423L224.269 395.141L226.866 393.414L229.602 392.843C228.684 393.361 227.785 393.873 226.882 394.369L226.73 394.423ZM230.769 392.613C230.918 392.566 231.065 392.547 231.222 392.509L232.957 392.122L230.713 393.166L228.595 393.842L230.769 392.613ZM231.829 391.991L234.569 390.409L235.595 390.283L237.345 390.034C236.383 390.5 235.434 390.973 234.474 391.427C233.554 391.591 232.707 391.797 231.829 391.991ZM239.608 389.295L242.551 387.803L245.359 387.669L242.427 388.852C241.488 388.989 240.548 389.159 239.608 389.295ZM246.58 387.558L248.901 387.369L246.451 388.123L244.181 388.508L246.58 387.558ZM247.693 387.105L250.764 385.829L253.7 385.878L250.563 386.858L247.693 387.105ZM254.886 385.882L257.287 385.914L254.662 386.471L252.352 386.695L254.886 385.882ZM255.81 385.592L259.566 384.39C277.797 378.542 296.606 372.534 315.596 372.3L315.968 373.657L316.499 375.608C299.879 376.332 283.348 380.051 267.29 383.677C264.393 384.325 261.535 384.978 258.706 385.599L255.81 385.592ZM267.391 384.049C283.449 380.424 299.999 376.698 316.606 375.984C316.913 377.116 317.238 378.237 317.569 379.378C304.599 380.166 291.616 381.865 279.007 383.523C273.473 384.241 268.08 384.958 262.759 385.587L260.447 385.598L267.391 384.049ZM316.984 375.969C317.874 375.935 318.765 375.906 319.647 375.897L320.736 379.223L317.941 379.364L316.984 375.969ZM320.857 379.573C321.242 380.697 321.636 381.812 322.029 382.939L319.11 383.135C318.738 382.024 318.393 380.888 318.068 379.734L320.857 379.573ZM321.249 379.554L324.011 379.395C324.432 380.492 324.88 381.59 325.341 382.69L323.184 382.827L322.456 382.876C322.016 381.786 321.628 380.674 321.249 379.554ZM323.16 383.255L325.457 383.112C326.393 385.346 327.386 387.583 328.516 389.756C335.199 402.702 344.325 404.748 353.864 403.657C342.933 405.912 332.419 405.115 325.248 389.849C324.242 387.708 323.361 385.512 322.573 383.298L323.16 383.255ZM397.8 411.979L398.51 413.716C401.015 419.709 403.599 425.935 409.069 429.304C412.062 431.099 415.3 431.987 418.793 431.965C416.854 432.154 414.932 432.048 413.026 431.648C411.121 431.247 409.324 430.567 407.626 429.61C402.081 426.248 399.58 419.849 397.164 413.653C396.927 413.023 396.671 412.399 396.425 411.789C394.252 406.314 391.517 402.876 388.377 400.855C392.05 402.539 395.24 406.003 397.763 411.931L397.8 411.979ZM457.18 459.081C452.805 451.376 447.634 444.25 441.659 437.708C447.976 444 453.152 451.125 457.18 459.081ZM461.868 461.211C462.389 460.698 462.67 460.08 462.719 459.35C463.579 452.583 449.111 433.118 440.083 431.161C438.474 430.82 436.855 430.636 435.21 430.612L435.14 430.58C436.723 430.546 438.289 430.666 439.851 430.928C448.914 432.492 463.948 452.385 463.021 459.304C462.947 460.146 462.544 460.775 461.81 461.185L461.868 461.211ZM434.763 430.633L434.412 430.628L434.355 430.602C434.458 430.652 434.589 430.583 434.708 430.595L434.763 430.633ZM433.967 430.271L433.846 430.216L434.26 430.179L434.331 430.212L433.967 430.271ZM354.284 383.691L354.124 383.616L353.97 383.544L354.284 383.691ZM348.836 381.886L348.671 381.813L348.416 381.696L348.836 381.886ZM343.572 379.588L342.999 379.397L342.53 379.086L343.572 379.588ZM338.127 376.696L337.797 376.549L337.442 376.273L338.127 376.696ZM332.917 373.322L332.691 373.103L333.19 373.46L332.917 373.322ZM328.735 370.071L328.538 369.981L328.37 369.793L328.735 370.071ZM324.53 366.572L324.472 366.547L324.402 366.514L324.53 366.572ZM320.595 362.999L320.525 362.966L320.443 362.932L320.595 362.999ZM316.94 359.496L316.799 359.431L316.656 359.252L316.94 359.496ZM289.216 336.711C291.905 337.33 294.436 338.347 296.798 339.767C299.167 341.19 301.248 342.949 303.05 345.036C299.874 342.414 296.271 340.68 292.237 339.829C266.147 334.738 239.467 360.143 218.125 383.56L214.564 383.139C236.159 357.901 262.892 331.137 289.235 336.667L289.216 336.711ZM76.4912 245.935C79.0504 252.152 81.4741 258.007 83.9078 263.39C86.3398 268.767 88.8142 274.366 91.1126 279.753C106.892 316.161 123.159 353.671 159.824 370.371C163.726 372.137 167.727 373.631 171.838 374.846C185.615 378.87 199.63 381.722 213.881 383.397C212.633 384.865 211.392 386.319 210.181 387.764C194.832 387.111 179.828 384.482 165.175 379.876C118.86 365.029 102.051 320.701 85.797 277.848C84.1432 273.47 82.4178 268.951 80.7109 264.596C78.6771 259.339 76.674 253.728 74.5549 247.783C70.7481 237.039 66.8236 225.869 61.9773 215.413C59.5105 210.047 56.6189 204.093 53.2134 198.24C62.6949 212.502 69.8722 229.89 76.4912 245.935ZM-65.5897 156.166C-45.3967 130.741 -18.4072 101.336 11.1366 99.5217C20.9369 98.9157 28.9429 101.843 34.9589 108.202C48.5777 122.6 50.2505 152.112 48.8955 178.207C48.9493 172.158 48.813 165.955 48.3434 159.786C46.6403 136.486 40.8855 120.48 31.2385 112.243C25.1202 107.035 17.356 104.79 8.12123 105.563C-20.4608 107.953 -46.7065 136.077 -66.3355 160.325C-83.1568 181.104 -97.0696 206.292 -109.617 238.781C-97.0389 204.426 -82.8793 177.921 -65.5897 156.166ZM-70.9117 204.335C-52.8367 187.825 -36.7853 176.585 -21.7882 170.001C3.13832 159.069 22.0098 160.471 35.8981 174.337C40.1453 178.68 43.8282 183.452 46.9535 188.655C43.4882 183.777 39.4855 179.395 34.9439 175.504C32.9208 173.809 30.7489 172.335 28.4316 171.076C26.1093 169.818 23.6939 168.803 21.1689 168.029C18.6438 167.256 16.0747 166.742 13.4436 166.482C10.819 166.226 8.19483 166.231 5.57105 166.499C-3.39912 167.21 -13.3865 170.348 -24.9393 176.079C-39.6073 183.346 -55.3234 194.246 -71.613 208.393C-86.2285 221.284 -99.3948 235.52 -111.112 251.103C-99.4901 233.983 -86.0944 218.392 -70.9117 204.335ZM2.55806 170.688C-6.51027 172.216 -16.4869 176.066 -27.9545 182.486C-43.8211 191.429 -58.7492 201.726 -72.7356 213.387C-86.727 225.049 -99.5509 237.873 -111.204 251.869C-99.4166 236.111 -86.1489 221.728 -71.3912 208.717C-55.0541 194.582 -39.4151 183.663 -24.7769 176.405C0.978783 163.629 19.8714 163.431 34.7001 175.788C39.3537 179.775 43.4349 184.285 46.9355 189.31C43.069 184.58 38.642 180.446 33.6544 176.909C24.8795 170.821 14.3916 168.717 2.55806 170.688ZM83.883 444.926C56.3831 430.031 41.0614 400.118 36.9969 353.489C33.5573 314.149 39.0993 269.825 43.1462 237.44C44.0222 230.428 44.8437 223.799 45.5112 217.792L46.1211 212.539C46.6923 207.719 47.3673 201.944 47.9761 195.611C47.6838 200.884 47.3325 205.848 46.9748 210.235C46.7856 212.882 46.6071 215.389 46.4725 217.55C45.9773 225.687 45.1203 234.931 44.2159 244.72C43.1688 256.001 42.0887 267.663 41.3229 279.908C39.7459 304.654 38.5162 341.105 45.6677 372.903C49.115 388.323 54.3198 401.57 61.1102 412.288C64.7043 418.098 68.992 423.334 73.9763 428.008C78.9591 432.678 84.4652 436.614 90.4947 439.819C91.9705 440.589 93.4257 441.311 94.8901 441.976C98.8013 443.842 102.858 445.303 107.058 446.353C111.265 447.406 115.528 448.026 119.858 448.222C124.187 448.412 128.491 448.174 132.772 447.5C137.053 446.826 141.22 445.736 145.282 444.225C153.71 441.145 161.582 437.007 168.898 431.815C146.598 449.942 117.487 463.161 83.883 444.926ZM175.809 426.373L175.85 426.279L175.95 426.214C175.897 426.269 175.84 426.315 175.771 426.358L175.809 426.373ZM212.268 401.947L212.307 401.864L212.425 401.821L212.268 401.947ZM219.673 398.114L220.202 397.92C219.89 398.073 219.592 398.205 219.283 398.351C219.404 398.247 219.524 398.161 219.662 398.079L219.673 398.114ZM226.525 395.038L227.047 394.754L227.673 394.558L226.525 395.038ZM234.083 392.041L234.63 391.782L235.232 391.631L234.083 392.041ZM241.85 389.497L242.54 389.226L243.133 389.133L241.85 389.497ZM249.928 387.511L250.63 387.296L251.384 387.228L249.928 387.511ZM258.118 386.177L259.044 385.979L259.937 385.971L258.118 386.177ZM266.15 385.591C270.393 385.072 274.682 384.51 279.064 383.931C291.693 382.267 304.657 380.541 317.724 379.804C318.055 380.944 318.401 382.08 318.766 383.205C300.911 384.256 283.435 385.298 266.141 385.545L266.15 385.591ZM321.665 390.14C320.734 387.992 319.947 385.766 319.228 383.53L322.147 383.333C322.976 385.589 323.861 387.833 324.889 390.011C331.246 403.518 340.115 405.858 349.623 404.738C338.752 407.078 328.486 405.925 321.656 390.093L321.665 390.14ZM405.976 430.216C400.258 426.837 397.823 420.166 395.458 413.698L394.718 411.692C392.574 405.962 389.837 402.394 386.666 400.328C390.388 402.15 393.598 405.694 396.066 411.896L396.804 413.761C399.246 420.02 401.778 426.48 407.419 429.91C410.405 431.647 413.627 432.464 417.083 432.36C415.161 432.587 413.255 432.515 411.352 432.141C409.455 431.765 407.66 431.112 405.967 430.17L405.976 430.216ZM441.824 438.492C447.478 444.741 452.409 451.523 456.618 458.82C451.788 451.494 446.852 444.697 441.82 438.444L441.824 438.492ZM463.189 460.708C462.972 460.973 462.713 461.175 462.403 461.316C462.991 460.809 463.324 460.164 463.392 459.389C464.338 452.377 449.118 432.204 439.924 430.605C438.236 430.322 436.53 430.209 434.816 430.261L434.739 430.225C436.396 430.114 438.054 430.161 439.708 430.367C446.947 431.341 458.729 444.531 462.636 454.064C463.929 457.157 464.144 459.42 463.18 460.662L463.189 460.708Z" fill="#222222"/>
</g>
</g>
</svg>
